<svg viewBox="0 0 1974.2578125 400" xmlns="http://www.w3.org/2000/svg"><g><g><g><g><g><line x1="30" y1="378" x2="25" y2="378" style="visibility: inherit;" fill="rgb(0, 0, 0)" stroke="rgb(204, 204, 204)" stroke-width="1px"></line><line x1="30" y1="336" x2="25" y2="336" style="visibility: inherit;" fill="rgb(0, 0, 0)" stroke="rgb(204, 204, 204)" stroke-width="1px"></line><line x1="30" y1="294" x2="25" y2="294" style="visibility: inherit;" fill="rgb(0, 0, 0)" stroke="rgb(204, 204, 204)" stroke-width="1px"></line><line x1="30" y1="252" x2="25" y2="252" style="visibility: inherit;" fill="rgb(0, 0, 0)" stroke="rgb(204, 204, 204)" stroke-width="1px"></line><line x1="30" y1="210" x2="25" y2="210" style="visibility: inherit;" fill="rgb(0, 0, 0)" stroke="rgb(204, 204, 204)" stroke-width="1px"></line><line x1="30" y1="168" x2="25" y2="168" style="visibility: inherit;" fill="rgb(0, 0, 0)" stroke="rgb(204, 204, 204)" stroke-width="1px"></line><line x1="30" y1="126" x2="25" y2="126" style="visibility: inherit;" fill="rgb(0, 0, 0)" stroke="rgb(204, 204, 204)" stroke-width="1px"></line><line x1="30" y1="84" x2="25" y2="84" style="visibility: inherit;" fill="rgb(0, 0, 0)" stroke="rgb(204, 204, 204)" stroke-width="1px"></line><line x1="30" y1="42" x2="25" y2="42" style="visibility: inherit;" fill="rgb(0, 0, 0)" stroke="rgb(204, 204, 204)" stroke-width="1px"></line><line x1="30" y1="0" x2="25" y2="0" style="visibility: inherit;" fill="rgb(0, 0, 0)" stroke="rgb(204, 204, 204)" stroke-width="1px"></line></g><g transform="translate(20, 0)"><text x="0" y="378" dx="0em" dy="0.3em" style="text-anchor: end; visibility: hidden; font-family: &quot;Helvetica Neue&quot;, sans-serif; font-size: 15px; font-weight: 200;" fill="rgb(50, 49, 63)" stroke="none" stroke-width="1px">-5</text><text x="0" y="336" dx="0em" dy="0.3em" style="text-anchor: end; visibility: inherit; font-family: &quot;Helvetica Neue&quot;, sans-serif; font-size: 15px; font-weight: 200;" fill="rgb(50, 49, 63)" stroke="none" stroke-width="1px">0</text><text x="0" y="294" dx="0em" dy="0.3em" style="text-anchor: end; visibility: inherit; font-family: &quot;Helvetica Neue&quot;, sans-serif; font-size: 15px; font-weight: 200;" fill="rgb(50, 49, 63)" stroke="none" stroke-width="1px">5</text><text x="0" y="252" dx="0em" dy="0.3em" style="text-anchor: end; visibility: inherit; font-family: &quot;Helvetica Neue&quot;, sans-serif; font-size: 15px; font-weight: 200;" fill="rgb(50, 49, 63)" stroke="none" stroke-width="1px">10</text><text x="0" y="210" dx="0em" dy="0.3em" style="text-anchor: end; visibility: inherit; font-family: &quot;Helvetica Neue&quot;, sans-serif; font-size: 15px; font-weight: 200;" fill="rgb(50, 49, 63)" stroke="none" stroke-width="1px">15</text><text x="0" y="168" dx="0em" dy="0.3em" style="text-anchor: end; visibility: inherit; font-family: &quot;Helvetica Neue&quot;, sans-serif; font-size: 15px; font-weight: 200;" fill="rgb(50, 49, 63)" stroke="none" stroke-width="1px">20</text><text x="0" y="126" dx="0em" dy="0.3em" style="text-anchor: end; visibility: inherit; font-family: &quot;Helvetica Neue&quot;, sans-serif; font-size: 15px; font-weight: 200;" fill="rgb(50, 49, 63)" stroke="none" stroke-width="1px">25</text><text x="0" y="84" dx="0em" dy="0.3em" style="text-anchor: end; visibility: inherit; font-family: &quot;Helvetica Neue&quot;, sans-serif; font-size: 15px; font-weight: 200;" fill="rgb(50, 49, 63)" stroke="none" stroke-width="1px">30</text><text x="0" y="42" dx="0em" dy="0.3em" style="text-anchor: end; visibility: inherit; font-family: &quot;Helvetica Neue&quot;, sans-serif; font-size: 15px; font-weight: 200;" fill="rgb(50, 49, 63)" stroke="none" stroke-width="1px">35</text><text x="0" y="0" dx="0em" dy="0.3em" style="text-anchor: end; visibility: hidden; font-family: &quot;Helvetica Neue&quot;, sans-serif; font-size: 15px; font-weight: 200;" fill="rgb(50, 49, 63)" stroke="none" stroke-width="1px">40</text></g><line x1="30" y1="0" x2="30" y2="378" fill="rgb(0, 0, 0)" stroke="rgb(204, 204, 204)" stroke-width="1px"></line></g></g><g transform="translate(30, 0)" clip-path="url(#clip_0)"><clipPath id="clip_0"><rect width="1944" height="377"></rect></clipPath><g><g><g><line x1="0" y1="0" x2="0" y2="378" fill="rgb(0, 0, 0)" stroke="rgb(60, 60, 60)" stroke-width="1px" opacity="0.25"></line><line x1="149.55846153846156" y1="0" x2="149.55846153846156" y2="378" fill="rgb(0, 0, 0)" stroke="rgb(60, 60, 60)" stroke-width="1px" opacity="0.25"></line><line x1="299.1169230769231" y1="0" x2="299.1169230769231" y2="378" fill="rgb(0, 0, 0)" stroke="rgb(60, 60, 60)" stroke-width="1px" opacity="0.25"></line><line x1="448.67538461538464" y1="0" x2="448.67538461538464" y2="378" fill="rgb(0, 0, 0)" stroke="rgb(60, 60, 60)" stroke-width="1px" opacity="0.25"></line><line x1="598.2338461538462" y1="0" x2="598.2338461538462" y2="378" fill="rgb(0, 0, 0)" stroke="rgb(60, 60, 60)" stroke-width="1px" opacity="0.25"></line><line x1="747.7923076923078" y1="0" x2="747.7923076923078" y2="378" fill="rgb(0, 0, 0)" stroke="rgb(60, 60, 60)" stroke-width="1px" opacity="0.25"></line><line x1="897.3507692307693" y1="0" x2="897.3507692307693" y2="378" fill="rgb(0, 0, 0)" stroke="rgb(60, 60, 60)" stroke-width="1px" opacity="0.25"></line><line x1="1046.9092307692308" y1="0" x2="1046.9092307692308" y2="378" fill="rgb(0, 0, 0)" stroke="rgb(60, 60, 60)" stroke-width="1px" opacity="0.25"></line><line x1="1196.4676923076925" y1="0" x2="1196.4676923076925" y2="378" fill="rgb(0, 0, 0)" stroke="rgb(60, 60, 60)" stroke-width="1px" opacity="0.25"></line><line x1="1346.0261538461539" y1="0" x2="1346.0261538461539" y2="378" fill="rgb(0, 0, 0)" stroke="rgb(60, 60, 60)" stroke-width="1px" opacity="0.25"></line><line x1="1495.5846153846155" y1="0" x2="1495.5846153846155" y2="378" fill="rgb(0, 0, 0)" stroke="rgb(60, 60, 60)" stroke-width="1px" opacity="0.25"></line><line x1="1645.143076923077" y1="0" x2="1645.143076923077" y2="378" fill="rgb(0, 0, 0)" stroke="rgb(60, 60, 60)" stroke-width="1px" opacity="0.25"></line><line x1="1794.7015384615386" y1="0" x2="1794.7015384615386" y2="378" fill="rgb(0, 0, 0)" stroke="rgb(60, 60, 60)" stroke-width="1px" opacity="0.25"></line><line x1="1944.26" y1="0" x2="1944.26" y2="378" fill="rgb(0, 0, 0)" stroke="rgb(60, 60, 60)" stroke-width="1px" opacity="0.25"></line></g><g><line x1="0" y1="378" x2="1944.26" y2="378" fill="rgb(0, 0, 0)" stroke="rgb(60, 60, 60)" stroke-width="1px" opacity="0.25"></line><line x1="0" y1="336" x2="1944.26" y2="336" fill="rgb(0, 0, 0)" stroke="rgb(60, 60, 60)" stroke-width="1px" opacity="0.25"></line><line x1="0" y1="294" x2="1944.26" y2="294" fill="rgb(0, 0, 0)" stroke="rgb(60, 60, 60)" stroke-width="1px" opacity="0.25"></line><line x1="0" y1="252" x2="1944.26" y2="252" fill="rgb(0, 0, 0)" stroke="rgb(60, 60, 60)" stroke-width="1px" opacity="0.25"></line><line x1="0" y1="210" x2="1944.26" y2="210" fill="rgb(0, 0, 0)" stroke="rgb(60, 60, 60)" stroke-width="1px" opacity="0.25"></line><line x1="0" y1="168" x2="1944.26" y2="168" fill="rgb(0, 0, 0)" stroke="rgb(60, 60, 60)" stroke-width="1px" opacity="0.25"></line><line x1="0" y1="126" x2="1944.26" y2="126" fill="rgb(0, 0, 0)" stroke="rgb(60, 60, 60)" stroke-width="1px" opacity="0.25"></line><line x1="0" y1="84" x2="1944.26" y2="84" fill="rgb(0, 0, 0)" stroke="rgb(60, 60, 60)" stroke-width="1px" opacity="0.25"></line><line x1="0" y1="42" x2="1944.26" y2="42" fill="rgb(0, 0, 0)" stroke="rgb(60, 60, 60)" stroke-width="1px" opacity="0.25"></line><line x1="0" y1="0" x2="1944.26" y2="0" fill="rgb(0, 0, 0)" stroke="rgb(60, 60, 60)" stroke-width="1px" opacity="0.25"></line></g></g></g><g><g><line x1="0" y1="336" x2="1944.26" y2="336" fill="rgb(0, 0, 0)" stroke="rgb(153, 153, 153)" stroke-width="1.5px"></line></g></g><g><g><line x1="149.55846153846156" y1="0" x2="149.55846153846156" y2="378" fill="rgb(0, 0, 0)" stroke="rgb(153, 153, 153)" stroke-width="1.5px"></line></g></g><g><g><g><g><g><path stroke="rgb(255, 112, 67)" stroke-width="2px" d="M151.80183846153844,173.13983459472655L153.29742307692308,233.16679369608562L155.5408,241.97466380009885L156.2885923076923,248.9839135580916L158.53196923076922,252.98877257937653L162.27093076923077,254.95153735079182L163.7665153846154,258.0502823373412L165.2621,255.43343052065893L167.5054769230769,259.1872592776039L169.74885384615385,257.79253869005055L171.24443846153846,260.3482271494224L174.9834,262.7916577894857L175.7311923076923,269.5583137565109L176.4789846153846,265.29190568934956L177.22677692307693,260.8493474288604L177.97456923076925,261.03203727354764L179.47015384615386,263.2940027647235L180.21794615384616,260.80071646480405L180.96573846153845,253.00278109225678L183.2091153846154,257.9527198379779L183.95690769230768,259.93897776932045L186.20028461538462,263.4926214878873L187.69586923076923,267.10425892676466L189.19145384615385,267.1318394650685L189.93924615384614,269.7727224870694L191.43483076923076,268.5498332146459L192.18262307692308,274.0027106256012L192.9304153846154,273.0553384576077L193.6782076923077,274.19506792030677L201.9039230769231,271.740900975087L204.1473,268.9914336152413L207.13846923076923,272.1421879386065L210.12963846153843,267.24756711427267L210.87743076923076,266.7167863999352L211.62522307692308,262.69913182412915L214.6163923076923,257.10915881352173L216.85976923076925,259.11197710861006L217.60756153846154,262.4709548258578L220.59873076923077,262.80925972271797L222.8421076923077,261.4494205517665L225.08548461538462,254.27236226544446L228.07665384615385,254.4051182843334L228.82444615384617,249.15003253234843L229.57223846153846,249.53775991957912L230.32003076923078,248.7690321036015L234.8067846153846,241.9976263762845L236.30236923076924,241.46965094315712L240.78912307692306,240.87295399925284L243.7802923076923,242.2634588839136L246.02366923076923,241.44740783432866L248.26704615384614,241.62020271552936L249.0148384615385,236.94272375561079L250.51042307692305,239.78994344765476L252.7538,235.43034983465517L253.50159230769228,237.1240456318271L254.24938461538463,237.33139716284765L255.74496923076924,236.65610119790398L259.48393076923077,233.79124937302413L265.4662692307692,234.166213031038L268.45743846153846,236.0103810879238L269.2052307692308,236.77022329763042L269.95302307692305,241.6478547172373L273.69198461538457,243.12102372974263L274.4397769230769,239.63361649258908L276.68315384615386,243.57603160265953L279.6743230769231,254.87777783573478L280.4221153846154,240.48670677921808L281.1699076923077,236.5780062335937L284.16107692307696,234.26300990316386L284.9088692307692,230.90012210610487L287.1522461538462,229.91845754100876L287.9000384615385,229.68067016731098L288.6478307692307,233.00596189007828L289.3956230769231,239.1025357310764L290.14341538461537,246.80728782750995L293.1345846153846,245.11695811878155L293.88237692307695,242.5366352536378L294.63016923076924,250.42517115262254L297.62133846153847,243.13215809281465L299.1169230769231,241.45691800349067L299.86471538461535,241.03007342874162L302.85588461538464,237.69609293075712L304.3514692307692,237.9944680362697L306.59484615384616,234.1167822866951L307.34263846153846,228.62966000474114L310.3338076923077,219.40565392542572L313.3249769230769,226.47468208682184L314.07276923076927,225.07245974611146L315.56835384615385,236.6578456396096L316.31614615384615,236.23626659267498L317.06393846153844,233.64559690363097L319.3073153846154,234.5969589388548L320.8029,230.67636490728538L323.79406923076925,226.8289735451531L325.28965384615384,230.16993207306265L326.03744615384613,229.15901511595524L326.7852384615384,218.31004427228567L327.5330307692308,221.6708376955096L329.77640769230766,227.75038635973792L330.5242,224.4283271230023L332.76757692307694,222.84606936721136L334.26316153846153,216.78197176495118L337.25433076923076,210.57819704022015L338.7499153846154,208.3006240382361L343.9844615384616,214.09993206178652L345.48004615384616,224.84611157407534L346.97563076923075,226.51730094146058L354.45355384615385,214.35644603839737L355.20134615384615,219.74564244182716L356.69693076923073,219.03464108967665L357.4447230769231,222.6769879267367L358.9403076923077,218.33422400832075L359.6881,224.17002782732746L362.67926923076925,228.99371154718347L364.17485384615384,228.50684797614662L364.92264615384613,229.22624818682965L367.1660230769231,229.29296151638295L367.91381538461536,224.87033707808035L370.1571923076923,227.58102567443515L370.90498461538465,221.8876566906578L371.6527769230769,228.50461799780234L372.40056923076924,232.93775613530912L373.14836153846153,232.22637533366145L373.8961538461539,229.08821696614487L375.39173846153847,226.8274129436417L376.88732307692305,224.28716953643035L381.3740769230769,227.18466040331563L382.8696615384615,228.02650716176416L383.6174538461538,222.69956525699754L384.36524615384616,222.73678248513906L385.8608307692308,223.56915514460556L388.1042076923077,229.39836771004573L392.59096153846156,232.16840203852036L394.83433846153844,232.05471957087974L396.3299230769231,227.8080079870257L397.07771538461543,229.2161158622769L399.3210923076923,227.8820267535422L400.0688846153846,224.80593352136387L402.31226153846154,228.06906978462052L403.06005384615383,232.17157502630494L403.8078461538462,231.83795093901267L404.5556384615385,226.40118594652253L405.3034307692307,221.15984753041133L406.79901538461536,218.8835362884892L407.5468076923077,220.3355245569144L409.0423923076923,226.2650534040765L409.7901846153846,217.2238600450385L411.28576923076923,220.7439941944781L415.7725230769231,211.78877415196914L416.52031538461534,209.00722339262023L418.0159,200.68006261912547L418.76369230769234,208.53581927559824L420.25927692307687,202.6100810491407L421.7548615384615,211.9815779466124L423.25044615384616,217.33630506664045L423.99823846153845,206.20115815853697L424.74603076923074,209.64943505649268L425.4938230769231,208.84250901321172L426.98940769230774,211.25531908495904L429.9805769230769,202.9997195929184L432.97174615384614,195.5821180510437L433.7195384615385,203.7383539714746L435.2151230769231,204.24623676604688L435.96291538461537,199.22002667480038L436.71070769230766,208.8083570026821L437.4585,206.29421673007536L438.2062923076923,193.97801071316184L446.4320076923077,200.49378903317597L448.67538461538464,198.64209192600367L449.42317692307694,200.77819540664765L450.17096923076923,204.95153246057205L451.6665538461538,202.3657514201178L452.41434615384617,206.92817555320846L453.16213846153846,208.79438057623378L455.4055153846154,204.71644699638742L456.9011,211.33790124945367L459.8922692307692,210.34453509563227L460.64006153846157,203.3164653262617L462.13564615384615,213.26709277797713L465.1268153846154,207.27008810177625L466.62239999999997,220.58765758621834L467.3701923076923,223.7877025155079L468.1179846153846,210.55170482856846L470.36136153846155,197.7434903276985L471.85694615384614,197.7140775404791L473.3525307692307,191.43532483755908L474.1003230769231,191.98152357243984L474.84811538461537,187.32257313651633L475.5959076923077,194.82526500640546L477.0914923076923,190.28832388256575L478.58707692307695,196.85752723959752L480.83045384615383,193.20039969084792L481.5782461538461,181.30713432787368L483.07383076923077,183.72836371229897L483.8216230769231,189.236093832388L485.3172076923077,191.1393731127854L487.5605846153846,186.5589516457459L489.8039615384615,191.71288412543458L490.5517538461538,188.44123976494728L491.2995461538462,177.35074022504378L493.54292307692305,191.00397604539148L497.28188461538457,186.70460081922334L498.029676923077,195.17219612779076L498.77746923076927,204.07940851356074L501.7686384615385,212.08051434441794L502.5164307692308,204.49224625336635L503.26422307692303,198.37407288159935L505.5076,201.03450656577752L506.2553923076923,208.6281855443701L507.00318461538455,192.96562613324997L509.24656153846155,206.9741395479574L509.99435384615384,208.7093946461784L510.7421461538461,210.595682220849L512.9855230769231,210.75785528595654L513.7333153846154,200.0504485048883L514.4811076923078,201.30936904255807L515.9766923076924,199.41229320767926L518.2200692307692,194.26169919016684L520.4634461538461,191.03017676546355L521.9590307692308,193.3516019684011L522.7068230769231,197.37480292176676L523.4546153846154,198.12550960425912L525.6979923076923,202.8386219473233L526.4457846153846,210.06006397021216L527.9413692307693,212.4550146771463L530.1847461538462,208.40457967384592L532.428123076923,202.7882381714498L533.1759153846153,185.76670839604654L533.9237076923076,188.18277757499155L536.1670846153846,194.2115974262042L536.9148769230769,205.20512243864403L537.6626692307692,199.3668956498898L538.4104615384616,192.44502103651342L539.1582538461538,197.77302503843924L539.9060461538461,192.0234789296772L540.6538384615384,195.58188830731598L541.4016307692308,200.20411812876293L542.1494230769231,193.68424649885998L545.8883846153847,210.86042751830186L546.6361769230768,213.6554571879813L548.8795538461538,208.11925069911553L550.3751384615384,196.5736676186186L552.6185153846154,189.1416226935277L554.1140999999999,200.34985546683387L555.6096846153846,192.79507236174837L559.3486461538462,186.14340392821708L560.0964384615385,183.53281426806194L560.8442307692308,191.66595539394174L561.592023076923,192.2215272851241L562.3398153846153,192.65162292062857L563.0876076923076,196.29106296968158L567.5743615384615,184.43802981910466L569.8177384615384,177.35990719268605L570.5655307692307,172.29553866918792L572.8089076923077,175.5845077175769L576.5478692307693,180.3743417087295L578.0434538461539,183.74034189725703L580.2868307692307,175.80199458714156L581.0346230769231,176.36257772537732L582.5302076923077,168.8784076698038L583.278,183.14328147947094L584.0257923076923,176.99525872849867L587.0169615384615,179.68049332923445L587.7647538461539,184.62150701385144L589.2603384615385,178.3434878071261L591.5037153846154,184.54675740878682L592.2515076923077,186.69932533010564L593.7470923076922,163.87987911784427L595.9904692307692,174.6178028304082L597.4860538461538,172.43069993644573L598.9816384615385,166.19325776409795L599.7294307692307,177.79719730624907L601.2250153846154,171.89345822341724L601.9728076923077,160.61432117468104L602.7206,168.26966616826047L603.4683923076923,163.14423421634666L606.4595615384616,160.2116836072082L607.2073538461538,169.64203975686027L608.7029384615385,173.1730515137402L609.4507307692307,177.38371159673432L614.6852769230769,184.36167714787086L618.4242384615385,189.82902799759356L619.1720307692308,182.24693730286L620.6676153846154,180.28967813818647L624.406576923077,183.22188777422102L625.9021615384615,187.66367568568543L630.3889153846153,185.24159408248389L631.1367076923077,192.55008595019117L633.3800846153846,188.74252710365883L634.8756692307693,188.2686531831712L636.3712538461539,181.4379981080604L638.6146307692308,188.6316425355206L639.362423076923,183.11344879404146L640.8580076923076,182.65248922932494L642.3535923076923,170.92019527139945L643.1013846153846,165.24483541633828L644.5969692307692,166.90492442437923L645.3447615384615,154.80932497651511L646.0925538461538,146.20086665845818L647.5881384615385,137.2134335001064L649.0837230769231,146.06121158279998L649.8315153846154,155.84011108142553L650.5793076923077,151.6385036600623L651.3271000000001,151.13463532551077L655.0660615384616,166.36814847647307L657.3094384615384,165.31876499699877L659.5528153846153,172.77285471000135L661.0484,179.1410932925372L661.7961923076923,178.5806788942837L664.7873615384616,172.8854748170871L665.5351538461539,175.29299884170678L666.2829461538462,171.90271374011348L669.2741153846154,162.66856228847752L670.0219076923076,169.935268379366L670.7697,169.4802825745865L673.0130769230769,164.30637236093875L676.0042461538461,169.19442116145606L676.7520384615384,169.55241681197737L678.2476230769231,173.09397675402525L678.9954153846154,177.9437130499487L680.491,178.85424961476366L683.4821692307692,175.85825824283634L685.7255461538462,169.47762389773587L688.7167153846154,165.5336311006106L690.2122999999999,171.50592587658224L690.9600923076923,185.52017603451773L691.7078846153846,169.05348579831733L692.4556769230769,164.2730199618961L693.2034692307692,147.76421919217313L694.6990538461539,153.78069572727367L696.1946384615385,157.57033203347905L697.6902230769231,157.16156073176376L698.4380153846154,165.11214088887778L700.6813923076922,170.4603522069518L702.9247692307692,169.17455251751457L703.6725615384615,166.3622457737773L704.420353846154,165.02985261877774L705.9159384615384,158.44059779326435L706.6637307692307,167.89533498509974L711.1504846153847,165.73799543558957L713.3938615384615,162.34872551106935L714.8894461538462,166.21703613395314L716.3850307692308,162.60068563934024L717.8806153846155,170.5401842841773L719.3762,165.87586431576955L720.8717846153846,184.35047760068693L723.1151615384615,183.60312820481712L723.8629538461538,187.85988530005974L725.3585384615385,184.48964270660053L726.8541230769231,188.52422805077848L730.5930846153846,188.22236721235132L734.3320461538462,179.41154489292794L739.5665923076923,177.91036247073882L740.3143846153846,166.42780871438404L742.5577615384615,172.13467693366545L746.2967230769231,170.9512965396081L747.0445153846154,170.4948475039033L750.0356846153845,174.2771209840797L750.7834769230769,167.1380822853106L754.5224384615385,168.66537213928368L755.2702307692308,173.12166096215935L758.2614,165.97433362202244L759.0091923076923,161.03500278628982L762.0003615384616,168.66639227419785L763.4959461538461,162.55750255226846L764.2437384615386,163.22537078571128L764.9915307692307,152.45031493911586L767.2349076923076,148.19760119445672L767.9827,152.16427495580956L768.7304923076923,153.96967878422774L769.4782846153846,158.42536583011656L770.9738692307693,162.23683914236474L772.4694538461538,158.48621356242694L773.9650384615384,169.1172176150783L774.7128307692308,164.7368404983126L778.4517923076924,147.8450580309743L779.947376923077,158.52604108420329L782.1907538461538,149.73035374138604L784.4341307692308,158.45337204340183L785.1819230769231,170.69540194990702L787.4253,169.19327788927131L788.1730923076923,165.79418896180766L788.9208846153846,176.92098532471957L789.6686769230769,176.56201073292019L791.1642615384616,177.11912488272287L791.9120538461539,178.64985251848296L792.6598461538462,173.99738582948368L794.9032230769232,178.12663302882126L796.3988076923076,167.74349163423867L797.1465999999999,168.72472006520346L797.8943923076923,188.05011433951628L798.6421846153846,189.17892631048022L799.3899769230769,185.51800707621618L800.1377692307692,172.58812422786747L800.8855615384616,157.1467736437686L802.3811461538462,156.02750436423366L803.1289384615384,153.4598178224416L804.6245230769231,153.10917566908608L805.3723153846154,130.49009779845252L806.1201076923077,136.5344662392503L807.6156923076924,135.06939061835337L809.8590692307693,136.76574824297376L810.6068615384614,138.6093501507755L812.1024461538461,142.25518229957547L813.5980307692307,154.1043493919065L815.0936153846154,165.93254216611305L815.8414076923077,162.77919962644515L818.8325769230769,157.6222586269374L821.8237461538462,149.61360279998738L822.5715384615385,149.4306678540036L823.3193307692308,159.3794283872068L824.0671230769232,155.00592277568342L825.5627076923076,157.0517674869042L832.2928384615385,165.68189250514834L833.0406307692307,163.02707680929444L835.2840076923077,163.00326270475975L838.275176923077,163.36050735008715L839.0229692307693,159.00765697870253L839.7707615384616,165.19977701118466L842.7619307692307,166.23703840582277L844.2575153846154,166.7582113520996L845.0053076923077,158.39720354212892L845.7531,147.3861386881953L846.5008923076923,140.54532864464807L847.9964769230769,150.1355983954548L849.4920615384615,150.5363270745181L852.4832307692308,118.73997413520044L853.9788153846155,131.68582635405878L856.2221923076922,125.56738712694823L856.9699846153845,144.00983743593358L857.7177769230769,133.3666374963543L863.7001153846153,142.1476968989389L868.1868692307693,135.83630433921948L868.9346615384616,128.2822411032115L869.6824538461539,132.14175174487391L871.1780384615384,129.62402075014714L872.673623076923,132.4908074814654L874.917,136.04646709112936L877.9081692307692,146.0091603672394L879.4037538461538,144.79228282260013L880.1515461538461,127.74769893874415L880.8993384615385,125.6319814776555L881.6471307692308,129.8787199477494L883.8905076923077,138.16131198725228L884.6383000000001,141.50369070308307L885.3860923076924,152.32561033834534L887.6294692307692,142.19308394328368L889.8728461538461,144.6336283789922L890.6206384615385,147.69766747370159L892.8640153846154,147.3064358283265L893.6118076923076,151.57807133111822L899.5941461538462,140.8384714691915L900.3419384615385,152.60024433843913L901.0897307692308,139.82303574174736L901.837523076923,144.0254483993061L903.3331076923076,132.73591474971832L904.8286923076923,124.1799857670598L905.5764846153846,120.6753532071537L906.3242769230769,125.7508128086429L913.8022,114.68103232699241L916.0455769230769,121.97335430397675L916.7933692307691,129.62085873615015L921.2801230769231,131.91532163247481L922.0279153846154,139.16507621467127L924.2712923076923,142.54563732671744L925.0190846153846,132.72647140922555L927.2624615384616,133.46048346282964L928.0102538461539,132.08983788110356L929.5058384615385,121.6279930465821L931.0014230769231,121.3464042944434L931.7492153846154,109.17109316211724L935.4881769230769,107.82174391445943L936.2359692307692,109.95381999729017L936.9837615384615,122.7141210613087L937.7315538461539,130.98018875578526L938.4793461538461,127.19289352782152L939.2271384615384,132.5525951567299L940.7227230769231,125.48383485341122L942.2183076923077,124.1521618768696L943.7138923076923,117.9339215791324L944.4616846153847,121.8508535413821L945.209476923077,133.8433094810549L945.9572692307692,146.9249706134084L948.9484384615384,146.1089550673869L949.6962307692307,143.73883763789385L950.444023076923,134.07330125045178L951.1918153846154,130.4484395843458L951.9396076923077,136.24764708373638L953.4351923076923,134.93830870702823L957.9219461538462,128.42760802519285L960.9131153846154,127.31160576829879L962.4087,141.45801599891638L963.1564923076922,141.29055128790264L964.652076923077,154.104539418994L969.1388307692307,161.5900911909569L971.3822076923077,159.23792515613468L974.373376923077,156.11029465371632L976.6167538461539,155.35134790559022L978.1123384615385,155.92847822681594L978.8601307692309,158.58932493985117L982.5990923076924,154.7586178498302L983.3468846153846,150.70945928230552L984.0946769230769,153.50598219024872L986.3380538461539,157.95668882837086L987.8336384615385,139.92848125068497L989.3292230769231,142.70587841485462L993.815976923077,145.07551327875868L995.3115615384615,144.34722733443274L996.8071461538461,142.36413608507547L999.050523076923,136.86457379115612L1001.2939,128.20299997530768L1002.7894846153846,127.87924003761918L1004.2850692307692,128.3890731824391L1005.0328615384616,131.12101318462314L1006.5284461538461,123.40828363119456L1008.0240307692306,117.1577574286373L1010.2674076923076,123.7799725749899L1011.0152,125.33043863128097L1011.7629923076922,117.85667664965365L1012.5107846153846,119.85367444960576L1013.258576923077,126.8460578458174L1014.0063692307691,130.40109066141954L1014.7541615384615,123.97684176741686L1015.5019538461539,120.95275942467566L1016.9975384615385,115.95166890448661L1019.9887076923077,121.40606443267131L1022.2320846153846,103.46029801830497L1022.979876923077,120.16767918002483L1023.7276692307692,113.43323300466443L1024.4754615384616,121.04835337150502L1025.2232538461537,122.62229658880551L1026.7188384615386,128.75189000541943L1028.2144230769231,129.26341294427698L1028.9622153846155,127.91118964497235L1029.7100076923077,134.57137938931774L1032.701176923077,151.6321468464151L1034.1967615384615,153.59875138216137L1034.9445538461537,150.37440851539708L1037.1879307692307,155.065101153138L1042.422476923077,157.682868276026L1043.9180615384616,147.11380255539112L1046.9092307692308,142.35880022302385L1047.657023076923,142.39778938496204L1048.4048153846152,149.3985704056747L1049.9004,144.37990704475462L1050.6481923076922,140.03306381939743L1053.6393615384616,134.84348489951208L1054.3871538461538,133.95928666838898L1055.8827384615386,109.429043714594L1056.6305307692307,115.28852046361857L1058.1261153846153,113.37023424809212L1058.8739076923077,116.77087123636431L1061.865076923077,132.32311910823205L1062.6128692307693,131.88756846773796L1064.1084538461537,137.63063399782314L1064.856246153846,143.57768880836593L1066.3518307692307,144.20114671319664L1071.5863769230768,143.65466187739327L1074.5775461538462,140.39569834346736L1076.0731307692308,136.39446730514496L1077.5687153846154,125.99615993420386L1078.3165076923076,124.48170181210921L1079.0643,137.49812237498034L1082.0554692307692,140.05094754598036L1082.8032615384616,136.4703980819503L1083.5510538461538,148.203076583236L1084.2988461538462,152.21493242747746L1087.2900153846153,145.90177779012654L1088.0378076923078,141.03200481266765L1089.5333923076923,140.0273714282591L1090.2811846153847,130.75211808987294L1092.5245615384615,138.68551542526748L1093.2723538461537,131.77342302136634L1094.7679384615383,128.54365540928057L1096.263523076923,133.84084305911392L1097.0113153846153,132.1219484341075L1098.5068999999999,117.81617630099691L1100.7502769230769,130.19876883010423L1101.4980692307693,123.43739702209118L1102.9936538461538,122.26978944384484L1103.7414461538463,138.0998531615212L1105.9848230769232,139.6042831639826L1106.7326153846154,112.9466244681978L1107.4804076923078,115.45510658139415L1109.7237846153846,114.34448367209774L1110.4715769230768,104.10159981609615L1111.9671615384616,101.96230768490818L1112.7149538461538,105.1234373039324L1118.6972923076924,99.00335052063622L1122.436253846154,112.70000997583514L1123.184046153846,127.33543614228918L1124.6796307692307,131.64049521510086L1126.9230076923077,123.89286522725644L1128.4185923076923,126.20114551432471L1129.1663846153847,131.47095623689918L1130.6619692307693,115.9119126945975L1131.4097615384615,123.52533032657641L1132.1575538461539,147.7665551548158L1133.6531384615384,144.89147288361826L1134.4009307692309,133.15448079712897L1137.3921,127.89312580591604L1138.1398923076922,134.20848776631487L1138.8876846153846,134.61476766056165L1140.3832692307692,133.55867051272665L1141.8788538461538,135.97330451320866L1142.6266461538462,149.0240945077837L1144.870023076923,128.19044381911766L1145.6178153846154,117.44087953039178L1147.8611923076924,125.43595771366887L1148.6089846153848,129.30461181302493L1149.356776923077,128.91993288914065L1150.8523615384615,123.23835781033597L1153.0957384615385,124.22353567453828L1154.591323076923,131.89409343220873L1157.5824923076923,108.99805245572799L1158.3302846153845,118.51931903977766L1159.8258692307693,97.81781820789632L1161.3214538461539,100.1033036385827L1162.0692461538463,104.03700478830757L1165.8082076923079,122.7718899024234L1169.5471692307692,130.54822252374532L1171.790546153846,122.24426512226773L1172.5383384615384,114.87727916324388L1174.033923076923,105.57468954153256L1176.2773,101.91142262321631L1177.7728846153846,98.32110800824103L1178.520676923077,110.86354076450294L1181.5118461538461,104.5819648137508L1183.0074307692307,104.08200282023893L1184.5030153846153,100.34175276888641L1188.9897692307693,102.36881420241383L1190.4853538461539,106.97988717736075L1191.9809384615385,115.41880994940811L1197.2154846153846,118.95718785210465L1197.963276923077,133.58711457001377L1199.4588615384614,147.06863147534696L1202.4500307692308,149.96260217124433L1203.197823076923,144.5693117784994L1205.4412,142.18703771015302L1206.1889923076924,144.36923939053455L1206.9367846153846,132.9005225854257L1208.4323692307692,131.50387723582105L1209.1801615384616,129.24687452425255L1209.927953846154,124.46470115748795L1210.6757461538461,115.90225698922279L1212.9191230769231,134.2071235845423L1213.6669153846153,122.04723222334673L1215.1625,108.60605604234928L1215.9102923076923,103.70980348256103L1217.405876923077,101.4494000980605L1218.153669230769,105.71914120271606L1221.892630769231,102.97481018507324L1222.640423076923,97.34730847520706L1225.6315923076925,75.69064371620084L1227.8749692307692,82.36805620220866L1228.6227615384614,88.67078681967712L1229.3705538461538,84.09999188249947L1230.8661384615384,101.04597861342143L1231.6139307692306,103.59561299937968L1236.848476923077,107.88862922396669L1239.8396461538462,116.02307714626323L1241.3352307692307,100.8436558088074L1242.8308153846156,78.3436670176514L1244.3264,87.32453597007816L1245.074192307692,88.51733538006647L1246.569776923077,92.41575337485392L1248.813153846154,59.67187363494173L1249.560946153846,65.02079434862719L1250.3087384615385,80.69367741005408L1251.0565307692307,86.73887716974247L1254.7954923076923,99.4006003319854L1255.5432846153847,98.38800101754146L1256.291076923077,88.20335186383784L1257.0388692307693,83.30863302915623L1260.7778307692306,88.7899221703953L1263.0212076923076,91.42660478953883L1263.769,95.46812648299829L1265.2645846153846,98.95426925280486L1269.7513384615386,88.36402117616967L1271.2469230769232,97.12624227052561L1274.238092307692,101.57552262501423L1276.481469230769,99.55637650455236L1279.4726384615385,79.55735980959889L1280.2204307692307,87.71144692971035L1281.7160153846153,73.52075574933468L1283.9593923076923,99.36942915391108L1284.7071846153847,79.05454204139062L1286.2027692307693,90.3261514858957L1287.6983538461539,99.464076248531L1292.1851076923076,99.84854646025059L1293.6806923076922,85.18466327904025L1294.4284846153846,90.0893147907127L1295.176276923077,92.903159596242L1298.9152384615386,99.43995809691552L1300.4108230769232,93.97035255541323L1301.9064076923078,96.76320602504342L1302.6542000000002,97.50291467355044L1303.4019923076924,86.70607166803956L1304.1497846153845,115.37289299422162L1304.8975769230767,106.11735003990856L1305.6453692307691,121.50069063983699L1306.3931615384615,135.08131484097117L1307.8887461538461,132.54747710471054L1308.6365384615385,132.86478313640515L1311.6277076923077,122.10434970248352L1313.1232923076923,115.05821120729928L1314.6188769230769,123.56260351173788L1316.8622538461539,128.32079310602117L1317.6100461538463,127.069317132522L1323.5923846153846,112.43399466060742L1326.5835538461538,121.08966124362269L1327.3313461538462,119.57711382155827L1328.8269307692308,104.26635902599656L1329.5747230769232,104.13214941562154L1331.0703076923078,106.93468010378632L1331.8181000000002,118.07410242043142L1332.5658923076924,108.47391725128654L1334.061476923077,119.93424244360733L1334.8092692307691,112.62855438579408L1335.5570615384615,120.0472330044849L1337.8004384615383,124.15190169899802L1340.0438153846153,122.17359472345629L1342.2871923076923,122.3458955846732L1343.7827769230769,96.22781784713311L1345.2783615384617,88.41551355505021L1346.7739461538463,102.45574412651087L1347.5217384615385,117.04794780975362L1348.2695307692309,132.24681146435563L1349.017323076923,135.0052396988283L1350.5129076923076,135.50249589724623L1352.0084923076922,132.1403408340079L1354.2518692307692,123.0804159777532L1354.9996615384616,114.81851857321817L1356.4952461538462,111.68156290544954L1357.2430384615384,104.62185951625418L1357.9908307692308,98.6314497101713L1358.7386230769232,98.56872330573464L1360.2342076923078,89.39352051470496L1360.982,68.65170789125614L1361.7297923076924,69.09038059523147L1362.4775846153848,87.19051965562846L1363.225376923077,88.10333506654388L1364.7209615384613,93.92698140772723L1365.4687538461537,103.2311999943459L1366.9643384615383,115.28728177282039L1369.2077153846153,116.83483609940868L1369.9555076923077,115.85755195447814L1371.4510923076923,125.76531616075047L1372.946676923077,125.76596935926443L1373.6944692307693,109.32203329991154L1374.4422615384615,116.73336211356201L1376.6856384615385,108.18169854094731L1377.4334307692309,107.57247400609765L1378.181223076923,113.39116340897971L1379.6768076923076,95.41559002894155L1381.1723923076922,94.04196787276265L1381.9201846153846,105.41453743297569L1384.9113538461538,102.60601349130246L1385.6591461538462,106.77100677692869L1387.902523076923,87.42580841226555L1388.6503153846154,74.3503775647734L1392.389276923077,75.07447151593004L1393.1370692307694,99.5020767549803L1397.623823076923,73.41215365251941L1399.1194076923077,71.88508730189841L1399.8672,90.52048896993665L1401.3627846153845,95.53760394450399L1402.110576923077,101.04687621590591L1402.8583692307693,95.89790334699234L1405.1017461538463,94.19734916685161L1408.840707692308,103.07186798094227L1410.3362923076922,81.75303820799604L1411.8318769230768,82.81822890624056L1412.5796692307692,87.7347575329515L1413.3274615384614,87.92605126561898L1415.5708384615384,92.7159218840772L1416.3186307692308,99.28986351434185L1418.5620076923078,104.10057825043833L1419.3098,108.10838999903228L1420.8053846153846,112.52251751070042L1426.0399307692308,116.80439584449783L1434.265646153846,106.18039350665299L1435.0134384615385,116.58124931459969L1435.761230769231,112.12810461525402L1436.509023076923,119.61242326739853L1437.2568153846155,115.83233714297154L1441.7435692307693,124.83545940553938L1443.2391538461538,118.56160391359163L1444.7347384615384,120.53806120704519L1446.9781153846154,114.33084371050921L1447.7259076923076,117.51261533705969L1448.4737,109.99137873815363L1449.2214923076924,109.81926662577678L1449.9692846153846,104.08183862410777L1450.717076923077,110.16330628746982L1451.4648692307692,105.75647861762235L1452.2126615384616,102.09132943950794L1452.960453846154,99.25697148007322L1453.7082461538462,100.77682947287695L1455.951623076923,100.95629908855545L1457.4472076923075,111.00318715902796L1458.195,110.04623380925364L1461.9339615384615,115.27849812528376L1463.429546153846,126.44986652390864L1465.672923076923,129.0071217652695L1466.4207153846155,86.66291665049687L1467.1685076923077,95.47596778084664L1467.9163,92.42695830670857L1469.4118846153847,94.16590990708562L1470.907469230769,71.92288753260209L1471.6552615384614,75.09068398848405L1474.6464307692306,87.69244343102156L1475.394223076923,90.49403897333292L1476.1420153846154,79.56926133003356L1476.8898076923076,73.34570935699554L1479.1331846153846,81.65748118188554L1479.880976923077,88.40035017988339L1480.6287692307692,93.14572051255908L1482.124353846154,77.6371092469613L1482.8721461538462,85.89150807627999L1484.3677307692308,78.93482572371931L1485.8633153846154,87.69514497228596L1486.6111076923075,78.7557338977507L1487.3589,73.78630678372792L1488.1066923076921,67.86925203098622L1489.602276923077,61.0324615613124L1491.0978615384615,76.37854859475306L1491.845653846154,77.4489048548063L1494.836823076923,75.6643155342357L1496.3324076923077,99.09879068422441L1497.8279923076923,101.77881373634438L1499.323576923077,105.94094191925137L1502.314746153846,101.30821709741281L1503.8103307692306,105.42213718501029L1504.558123076923,104.38047235176805L1506.0537076923076,99.90252088678551L1507.5492923076922,101.71602793989712L1508.2970846153846,97.5896602730603L1510.5404615384616,75.06743622626078L1512.0360461538462,60.44578919096955L1512.7838384615386,69.28711627709203L1513.5316307692308,69.22511584271854L1515.0272153846154,68.94521596519041L1520.2617615384615,84.73221311639065L1523.2529307692307,102.86963890131562L1526.2441000000001,99.72832586714628L1527.7396846153847,90.38926927525995L1528.487476923077,85.45580171171184L1529.2352692307693,73.59476160862732L1529.9830615384615,84.80196849710688L1530.7308538461537,82.35502740388671L1532.9742307692306,84.64901642994528L1534.4698153846152,88.33700519717888L1535.2176076923076,87.68718243533101L1536.7131923076922,87.35430420632144L1540.4521538461538,82.41289649005716L1541.1999461538462,82.41694499966286L1541.9477384615386,87.72244348141976L1544.1911153846154,88.08954230954987L1544.9389076923076,80.73321770994454L1547.1822846153846,76.13963111375642L1548.6778692307691,65.59272845057546L1551.6690384615385,72.09719530318495L1552.4168307692307,78.05698155382726L1553.9124153846153,76.20624091322782L1556.9035846153847,89.90372396227173L1557.651376923077,97.51278141591115L1559.1469615384617,96.5757234847797L1560.642546153846,113.51908022214991L1562.1381307692307,93.79435719529806L1562.885923076923,88.84437323792787L1563.6337153846152,86.96759209620171L1565.8770923076922,82.32491504659026L1566.6248846153846,88.87511621085622L1567.3726769230768,84.0000966307943L1570.3638461538462,81.68658456781907L1571.1116384615384,90.89383415205799L1572.6072230769232,94.96401232897057L1574.1028076923078,102.49718093251244L1574.8506,81.41505370597088L1576.3461846153846,83.49419994719858L1577.8417692307692,84.88953110033702L1578.5895615384616,85.70522198720323L1580.8329384615383,76.352262916911L1583.0763153846153,82.13629702786477L1585.3196923076923,89.28419722922541L1586.0674846153847,96.14506209856586L1589.058653846154,94.4097905235792L1589.8064461538463,86.10737709659776L1591.3020307692307,79.06217303958289L1593.5454076923077,83.54881344387331L1595.0409923076922,87.62805099923924L1596.5365769230768,69.20255157820003L1597.2843692307692,83.48865991490379L1598.0321615384617,74.59708576883713L1598.7799538461538,70.85359329768687L1600.2755384615384,51.59041309029794L1601.0233307692308,58.0469776890352L1601.7711230769232,56.42434850865004L1602.5189153846154,53.25929081863876L1603.2667076923078,49.665343726688434L1607.7534615384614,63.506623125882015L1609.2490461538462,78.24184207980716L1610.7446307692308,86.54041748098444L1611.4924230769232,81.6030053715063L1612.2402153846153,67.36099926790808L1613.7358,71.01575803249057L1616.7269692307693,77.62832770895142L1618.222553846154,77.16317989787404L1621.9615153846153,89.97274972884611L1623.4570999999999,79.28135224889718L1627.9438538461538,72.88194550761386L1630.1872307692308,69.93004462630591L1631.6828153846154,84.22215581823224L1634.6739846153848,82.76693775883382L1636.1695692307692,86.45550455277021L1639.1607384615384,78.98448634485288L1639.9085307692308,85.69698971064787L1640.656323076923,96.05688284517845L1641.4041153846154,93.71184584523456L1647.386453846154,80.04128301163689L1648.8820384615385,85.19511503235634L1650.377623076923,72.85827067578748L1651.1254153846153,82.68186113901857L1652.6209999999999,82.5362426953946L1653.3687923076923,70.7579483189133L1657.1077538461539,71.25859467807993L1657.855546153846,72.69760495999316L1658.6033384615384,83.70073747141248L1663.8378846153846,79.80553016267692L1667.576846153846,77.85879668873531L1670.5680153846154,70.73285308585145L1672.8113923076924,79.9624586161421L1675.0547692307694,68.86600204916363L1675.8025615384615,84.17115582634267L1681.7848999999999,81.12023825970692L1683.2804846153845,93.29181087754091L1685.5238615384615,75.5479817830875L1686.2716538461539,74.3521639604055L1687.7672384615385,75.10770696788495L1691.5062,83.06588725399547L1695.2451615384616,75.6312504526104L1698.2363307692308,87.28293874709811L1698.984123076923,89.23340986608673L1700.4797076923076,91.79796141337715L1701.9752923076924,98.63447585067246L1704.2186692307691,75.45744884460049L1705.714253846154,75.58197409032886L1706.4620461538461,80.24346745585683L1707.957630769231,76.439886269373L1709.4532153846155,84.58557112487341L1710.2010076923077,73.261873037594L1710.9488,79.02069990712602L1712.4443846153845,74.50659776749762L1713.939969230769,65.34178761341224L1714.6877615384615,69.21487952310281L1715.4355538461539,79.06129814973218L1716.183346153846,80.62610913746158L1717.6789307692306,79.78875657266457L1723.6612692307692,70.07683899836604L1725.904646153846,81.59542169918109L1726.6524384615384,78.22950752536053L1728.148023076923,75.73490088112828L1728.8958153846154,75.12761369806663L1731.8869846153846,70.6127998817932L1737.1215307692307,79.15016147525881L1738.6171153846155,74.6036942436836L1740.8604923076923,77.44702125188041L1741.6082846153845,72.84918804642626L1743.103869230769,75.4868278541332L1743.8516615384615,88.82461136167564L1746.0950384615385,83.0819583764499L1748.3384153846155,91.91344847606234L1750.5817923076922,84.35578838290064L1752.8251692307692,78.9860720515353L1754.3207538461538,76.26693320275172L1755.0685461538462,79.06065227509197L1755.8163384615384,65.94474160767123L1756.5641307692306,83.41551130371505L1757.311923076923,75.10928007568691L1761.798676923077,75.87690800830342L1763.2942615384616,73.06366782509974L1764.0420538461537,78.96966076154467L1764.7898461538462,83.06547729697985L1765.5376384615386,91.8116025712265L1769.2766000000001,95.99013014047722L1770.0243923076923,81.70075157331934L1770.7721846153847,69.43090216197578L1772.267769230769,57.4955786631744L1773.7633538461537,71.93776908288322L1774.511146153846,91.77533825214647L1775.2589384615385,74.14422201773272L1776.0067307692307,85.94569820134444L1776.754523076923,87.02403033231576L1777.5023153846153,77.70904360179014L1779.7456923076923,76.73036445906877L1781.241276923077,75.72979800646408L1781.9890692307692,83.71545247987831L1782.7368615384617,82.17214057887333L1785.7280307692308,74.98201910372364" style="fill: none;" fill="none"></path></g></g></g></g><g opacity="0.2"><g><g><g><path stroke="rgb(255, 112, 67)" stroke-width="2px" d="M151.80183846153844,173.13983459472655L153.29742307692308,281.18836097717286L155.5408,254.65799674987792L156.2885923076923,262.66596908569335L158.53196923076922,262.44664764404297L162.27093076923077,260.2299613952637L163.7665153846154,267.19599266052245L165.2621,247.16119766235352L167.5054769230769,271.68342247009275L169.74885384615385,252.96244125366212L171.24443846153846,269.4733211517334L174.9834,271.7258239746094L175.7311923076923,294.76493339538575L176.4789846153846,249.16446647644042L177.22677692307693,243.86065750122071L177.97456923076925,261.7370853424072L179.47015384615386,272.08719005584715L180.21794615384616,251.0521465301514L180.96573846153845,222.37294006347656L183.2091153846154,277.46713027954104L183.95690769230768,267.7924095153809L186.20028461538462,277.57609004974364L187.69586923076923,281.44421195983887L189.19145384615385,267.24151039123535L189.93924615384614,280.2863697052002L191.43483076923076,263.67675590515137L192.18262307692308,295.74829902648924L192.9304153846154,269.27501220703124L193.6782076923077,278.7451675415039L201.9039230769231,261.93942375183104L204.1473,258.0071788787842L207.13846923076923,284.7327238082886L210.12963846153843,247.68459548950193L210.87743076923076,264.59500923156736L211.62522307692308,246.63666229248045L214.6163923076923,234.75833702087402L216.85976923076925,267.1206504821777L217.60756153846154,275.903377532959L220.59873076923077,264.1621982574463L222.8421076923077,256.0109676361084L225.08548461538462,225.56794509887695L228.07665384615385,254.93608589172362L228.82444615384617,228.13147773742676L229.57223846153846,251.08856391906738L230.32003076923078,245.69428825378418L234.8067846153846,214.91318321228027L236.30236923076924,239.35782279968262L240.78912307692306,238.48623275756836L243.7802923076923,247.82535438537596L246.02366923076923,238.1832618713379L248.26704615384614,242.3113723754883L249.0148384615385,218.23302154541014L250.51042307692305,251.1787181854248L252.7538,217.99210281372072L253.50159230769228,243.8987892150879L254.24938461538463,238.160799407959L255.74496923076924,233.954927444458L259.48393076923077,222.331876373291L265.4662692307692,235.66606407165526L268.45743846153846,243.3870391845703L269.2052307692308,239.8095874786377L269.95302307692305,261.1583564758301L273.69198461538457,249.01369400024413L274.4397769230769,225.6839984893799L276.68315384615386,259.34568214416504L279.6743230769231,300.0847400665283L280.4221153846154,182.92244567871094L281.1699076923077,220.94320907592774L284.16107692307696,225.00302696228027L284.9088692307692,217.44857368469238L287.1522461538462,225.9917999267578L287.9000384615385,228.7295207977295L288.6478307692307,246.3071273803711L289.3956230769231,263.4888290405273L290.14341538461537,277.62629413604736L293.1345846153846,238.3556396484375L293.88237692307695,232.21534423828126L294.63016923076924,281.979313659668L297.62133846153847,213.96010665893553L299.1169230769231,234.75595779418944L299.86471538461535,239.3226951599121L302.85588461538464,224.36017112731935L304.3514692307692,239.1879684448242L306.59484615384616,218.60603942871094L307.34263846153846,206.6811710357666L310.3338076923077,182.50962982177734L313.3249769230769,254.75079460144042L314.07276923076927,219.46357040405275L315.56835384615385,282.9993890762329L316.31614615384615,234.54995040893556L317.06393846153844,223.28291816711425L319.3073153846154,238.40240707397462L320.8029,214.9939888000488L323.79406923076925,211.43940811157225L325.28965384615384,243.5337661743164L326.03744615384613,225.11534729003907L326.7852384615384,174.91416091918944L327.5330307692308,235.11401138305663L329.77640769230766,252.06858100891114L330.5242,211.14009017944338L332.76757692307694,216.5170383453369L334.26316153846153,192.52558135986328L337.25433076923076,185.76309814453126L338.7499153846154,199.19033203125L343.9844615384616,237.29716415405275L345.48004615384616,267.8308296203613L346.97563076923075,233.20205841064453L354.45355384615385,165.71302642822266L355.20134615384615,241.30242805480958L356.69693076923073,216.19063568115234L357.4447230769231,237.2463752746582L358.9403076923077,200.96316833496093L359.6881,247.51324310302735L362.67926923076925,248.2884464263916L364.17485384615384,226.55939369201658L364.92264615384613,232.103849029541L367.1660230769231,229.55981483459473L367.91381538461536,207.17983932495116L370.1571923076923,238.42378005981445L370.90498461538465,199.11418075561525L371.6527769230769,254.97246322631838L372.40056923076924,250.67030868530273L373.14836153846153,229.3808521270752L373.8961538461539,216.53558349609375L375.39173846153847,217.7841968536377L376.88732307692305,214.12619590759277L381.3740769230769,238.7746238708496L382.8696615384615,231.39389419555664L383.6174538461538,201.39179763793945L384.36524615384616,222.88565139770506L385.8608307692308,226.8986457824707L388.1042076923077,252.71521797180174L392.59096153846156,243.248539352417L394.83433846153844,231.5999897003174L396.3299230769231,210.82116165161133L397.07771538461543,234.84854736328126L399.3210923076923,222.54567031860353L400.0688846153846,212.50156059265137L402.31226153846154,241.1216148376465L403.06005384615383,248.581595993042L403.8078461538462,230.50345458984376L404.5556384615385,204.65412597656248L405.3034307692307,200.1944938659668L406.79901538461536,209.77829132080078L407.5468076923077,226.14347763061525L409.0423923076923,249.9831687927246L409.7901846153846,181.05908660888673L411.28576923076923,234.82453079223632L415.7725230769231,175.9678939819336L416.52031538461534,197.88102035522462L418.0159,167.3714195251465L418.76369230769234,239.95884590148927L420.25927692307687,178.90712814331056L421.7548615384615,249.46756553649902L423.25044615384616,238.75521354675294L423.99823846153845,161.66057052612302L424.74603076923074,223.44254264831542L425.4938230769231,205.61480484008788L426.98940769230774,220.90655937194825L429.9805769230769,169.97732162475586L432.97174615384614,165.9117118835449L433.7195384615385,236.36329765319826L435.2151230769231,206.27776794433592L435.96291538461537,179.11518630981445L436.71070769230766,247.16167831420898L437.4585,196.23765563964844L438.2062923076923,144.7131866455078L446.4320076923077,226.55690231323243L448.67538461538464,191.23530349731445L449.42317692307694,209.32260932922364L450.17096923076923,221.64488067626954L451.6665538461538,192.0226272583008L452.41434615384617,225.1778720855713L453.16213846153846,216.25920066833498L455.4055153846154,188.40471267700195L456.9011,237.82371826171874L459.8922692307692,206.37107048034667L460.64006153846157,175.2041862487793L462.13564615384615,253.0696025848389L465.1268153846154,183.28206939697267L466.62239999999997,273.85793552398684L467.3701923076923,236.58788223266603L468.1179846153846,157.60771408081055L470.36136153846155,146.51063232421876L471.85694615384614,197.59642639160157L473.3525307692307,166.3203140258789L474.1003230769231,194.16631851196288L474.84811538461537,168.68677139282227L475.5959076923077,224.8360324859619L477.0914923076923,172.14055938720702L478.58707692307695,223.13434066772462L480.83045384615383,178.5718894958496L481.5782461538461,133.73407287597655L483.07383076923077,193.41328125L483.8216230769231,211.26701431274415L485.3172076923077,198.752490234375L487.5605846153846,168.23726577758788L489.8039615384615,212.32861404418946L490.5517538461538,175.35466232299805L491.2995461538462,132.98874206542968L493.54292307692305,245.61691932678224L497.28188461538457,169.50709991455076L498.029676923077,229.04257736206054L498.77746923076927,239.70825805664063L501.7686384615385,244.08493766784667L502.5164307692308,174.13917388916013L503.26422307692303,173.90137939453126L505.5076,211.67624130249024L506.2553923076923,239.00290145874024L507.00318461538455,130.31538848876954L509.24656153846155,263.0081932067871L509.99435384615384,215.6504150390625L510.7421461538461,218.14083251953124L512.9855230769231,211.40654754638672L513.7333153846154,157.22082138061523L514.4811076923078,206.3450511932373L515.9766923076924,191.82398986816406L518.2200692307692,173.6593231201172L520.4634461538461,178.1040870666504L521.9590307692308,202.63730278015137L522.7068230769231,213.4676067352295L523.4546153846154,201.12833633422852L525.6979923076923,221.6910713195801L526.4457846153846,238.9458320617676L527.9413692307693,222.03481750488282L530.1847461538462,192.2028396606445L532.428123076923,180.3228721618652L533.1759153846153,117.68058929443356L533.9237076923076,197.8470542907715L536.1670846153846,218.32687683105468L536.9148769230769,249.17922248840333L537.6626692307692,176.01398849487305L538.4104615384616,164.7575225830078L539.1582538461538,219.08504104614258L539.9060461538461,169.0252944946289L540.6538384615384,209.8155258178711L541.4016307692308,218.6930374145508L542.1494230769231,167.60475997924803L545.8883846153847,279.5651515960693L546.6361769230768,224.83557586669923L548.8795538461538,185.97442474365232L550.3751384615384,150.39133529663087L552.6185153846154,159.41344299316407L554.1140999999999,245.1827865600586L555.6096846153846,162.57593994140623L559.3486461538462,159.5367301940918L560.0964384615385,173.0904556274414L560.8442307692308,224.19851989746093L561.592023076923,194.4438148498535L562.3398153846153,194.37200546264648L563.0876076923076,210.84882316589355L567.5743615384615,137.0258972167969L569.8177384615384,149.04741668701172L570.5655307692307,152.0380645751953L572.8089076923077,188.74038391113282L576.5478692307693,199.53367767333984L578.0434538461539,197.2043426513672L580.2868307692307,144.0486053466797L581.0346230769231,178.6049102783203L582.5302076923077,138.94172744750978L583.278,240.20277671813966L584.0257923076923,152.40316772460938L587.0169615384615,190.42143173217772L587.7647538461539,204.38556175231932L589.2603384615385,153.23141098022458L591.5037153846154,209.3598358154297L592.2515076923077,195.30959701538086L593.7470923076922,72.60209426879885L595.9904692307692,217.56949768066406L597.4860538461538,163.68228836059572L598.9816384615385,141.24348907470704L599.7294307692307,224.21295547485352L601.2250153846154,148.27850189208982L601.9728076923077,115.49777297973634L602.7206,198.89104614257812L603.4683923076923,142.64250640869142L606.4595615384616,148.4814811706543L607.2073538461538,207.36346435546875L608.7029384615385,187.29709854125974L609.4507307692307,194.22635192871093L614.6852769230769,212.273539352417L618.4242384615385,211.69843139648435L619.1720307692308,151.91857452392577L620.6676153846154,172.46064147949218L624.406576923077,194.9507263183594L625.9021615384615,205.430827331543L630.3889153846153,175.55326766967775L631.1367076923077,221.78405342102053L633.3800846153846,173.5122917175293L634.8756692307693,186.3731575012207L636.3712538461539,154.1153778076172L638.6146307692308,217.4062202453613L639.362423076923,161.040673828125L640.8580076923076,180.80865097045898L642.3535923076923,123.99101943969728L643.1013846153846,142.54339599609375L644.5969692307692,173.545280456543L645.3447615384615,106.42692718505856L646.0925538461538,111.76703338623048L647.5881384615385,101.26370086669925L649.0837230769231,181.45232391357422L649.8315153846154,194.95570907592773L650.5793076923077,134.83207397460936L651.3271000000001,149.11916198730466L655.0660615384616,227.30220108032225L657.3094384615384,161.12123107910156L659.5528153846153,202.5892135620117L661.0484,204.61404762268066L661.7961923076923,176.33902130126953L664.7873615384616,150.10465850830076L665.5351538461539,184.92309494018556L666.2829461538462,158.34157333374023L669.2741153846154,125.7319564819336L670.0219076923076,199.00209274291993L670.7697,167.66033935546872L673.0130769230769,143.61073150634766L676.0042461538461,188.7466163635254L676.7520384615384,170.9843994140625L678.2476230769231,187.2602165222168L678.9954153846154,197.34265823364257L680.491,182.49639587402345L683.4821692307692,163.87429275512693L685.7255461538462,143.955086517334L688.7167153846154,149.75765991210938L690.2122999999999,195.39510498046874L690.9600923076923,241.57717666625976L691.7078846153846,103.18672485351561L692.4556769230769,145.15115661621093L693.2034692307692,81.72901611328126L694.6990538461539,177.8466018676758L696.1946384615385,172.72887725830077L697.6902230769231,155.52647552490237L698.4380153846154,196.914461517334L700.6813923076922,191.85319747924805L702.9247692307692,164.0313537597656L703.6725615384615,155.11301879882814L704.420353846154,159.7002799987793L705.9159384615384,132.08357849121094L706.6637307692307,205.7142837524414L711.1504846153847,157.1086372375488L713.3938615384615,148.79164581298826L714.8894461538462,181.69027862548828L716.3850307692308,148.13528366088866L717.8806153846155,202.2981788635254L719.3762,147.21858444213865L720.8717846153846,258.24893074035646L723.1151615384615,180.6137306213379L723.8629538461538,204.88691368103028L725.3585384615385,171.0086723327637L726.8541230769231,204.66256942749024L730.5930846153846,187.01492385864256L734.3320461538462,144.1682556152344L739.5665923076923,171.90563278198243L740.3143846153846,120.49759368896486L742.5577615384615,194.962149810791L746.2967230769231,166.21777496337893L747.0445153846154,168.66905136108397L750.0356846153845,189.40621490478517L750.7834769230769,138.58192749023436L754.5224384615385,174.7745315551758L755.2702307692308,190.94681625366212L758.2614,137.38502426147463L759.0091923076923,141.27767944335938L762.0003615384616,199.19195022583008L763.4959461538461,138.12194366455077L764.2437384615386,165.8968437194824L764.9915307692307,109.35009155273434L767.2349076923076,131.1867462158203L767.9827,168.0309700012207L768.7304923076923,161.1912940979004L769.4782846153846,176.24811401367185L770.9738692307693,177.48273239135744L772.4694538461538,143.48371124267578L773.9650384615384,211.6412338256836L774.7128307692308,147.21533203125L778.4517923076924,80.2779281616211L779.947376923077,201.24997329711914L782.1907538461538,114.5476043701172L784.4341307692308,193.34544525146487L785.1819230769231,219.66352157592775L787.4253,163.1847816467285L788.1730923076923,152.19783325195314L788.9208846153846,221.42817077636718L789.6686769230769,175.12611236572266L791.1642615384616,179.34758148193362L791.9120538461539,184.77276306152342L792.6598461538462,155.38751907348635L794.9032230769232,194.64362182617188L796.3988076923076,126.21092605590823L797.1465999999999,172.64963378906248L797.8943923076923,265.35169143676757L798.6421846153846,193.69417419433591L799.3899769230769,170.87433013916015L800.1377692307692,120.86859283447268L800.8855615384616,95.38137130737306L802.3811461538462,151.55042724609373L803.1289384615384,143.18907165527344L804.6245230769231,151.70660705566405L805.3723153846154,40.01378631591797L806.1201076923077,160.71194000244142L807.6156923076924,129.2090881347656L809.8590692307693,143.55117874145506L810.6068615384614,145.9837577819824L812.1024461538461,156.8385108947754L813.5980307692307,201.50101776123046L815.0936153846154,213.24531326293945L815.8414076923077,150.16582946777342L818.8325769230769,136.99449462890624L821.8237461538462,117.5789794921875L822.5715384615385,148.69892807006838L823.3193307692308,199.17447052001953L824.0671230769232,137.51190032958985L825.5627076923076,165.23514633178712L832.2928384615385,200.202392578125L833.0406307692307,152.4078140258789L835.2840076923077,162.9080062866211L838.275176923077,164.78948593139648L839.0229692307693,141.59625549316408L839.7707615384616,189.96825714111327L842.7619307692307,170.386083984375L844.2575153846154,168.84290313720703L845.0053076923077,124.95317230224609L845.7531,103.34187927246091L846.5008923076923,113.18208847045895L847.9964769230769,188.49667739868164L849.4920615384615,152.1392417907715L852.4832307692308,-8.445437622070358L853.9788153846155,183.46923522949217L856.2221923076922,101.0936302185059L856.9699846153845,217.779638671875L857.7177769230769,90.7938377380371L863.7001153846153,177.27193450927734L868.1868692307693,110.59073410034182L868.9346615384616,98.06598815917971L869.6824538461539,147.57979431152341L871.1780384615384,119.55309677124023L872.673623076923,143.95795440673828L874.917,150.26910552978518L877.9081692307692,185.85993347167968L879.4037538461538,139.92477264404297L880.1515461538461,59.569363403320324L880.8993384615385,117.16911163330076L881.6471307692308,146.865673828125L883.8905076923077,171.29168014526368L884.6383000000001,154.87320556640623L885.3860923076924,195.61328887939453L887.6294692307692,101.6629783630371L889.8728461538461,154.39580612182615L890.6206384615385,159.95382385253905L892.8640153846154,145.74150924682615L893.6118076923076,168.66461334228515L899.5941461538462,97.88007202148435L900.3419384615385,199.6473358154297L901.0897307692308,88.71420135498045L901.837523076923,160.83509902954103L903.3331076923076,87.57778015136722L904.8286923076923,89.9562698364258L905.5764846153846,106.65682296752931L906.3242769230769,146.0526512145996L913.8022,70.40191040039065L916.0455769230769,151.14264221191408L916.7933692307691,160.21087646484375L921.2801230769231,141.09317321777343L922.0279153846154,168.16409454345705L924.2712923076923,156.06788177490233L925.0190846153846,93.44980773925784L927.2624615384616,136.3965316772461L928.0102538461539,126.60725555419924L929.5058384615385,79.7806137084961L931.0014230769231,120.2200492858887L931.7492153846154,60.4698486328125L935.4881769230769,102.42434692382812L936.2359692307692,118.48212432861328L936.9837615384615,173.7553253173828L937.7315538461539,164.0444595336914L938.4793461538461,112.0437126159668L939.2271384615384,153.99140167236328L940.7227230769231,97.20879364013672L942.2183076923077,118.82546997070312L943.7138923076923,93.06096038818362L944.4616846153847,137.51858139038086L945.209476923077,181.81313323974607L945.9572692307692,199.25161514282226L948.9484384615384,142.8448928833008L949.6962307692307,134.25836791992185L950.444023076923,95.4111557006836L951.1918153846154,115.94899291992186L951.9396076923077,159.44447708129883L953.4351923076923,129.70095520019532L957.9219461538462,102.38480529785159L960.9131153846154,122.84759674072265L962.4087,198.0436569213867L963.1564923076922,140.62069244384767L964.652076923077,205.36049194335936L969.1388307692307,191.53229827880858L971.3822076923077,149.8292610168457L974.373376923077,143.599772644043L976.6167538461539,152.31556091308596L978.1123384615385,158.23699951171875L978.8601307692309,169.2327117919922L982.5990923076924,139.4357894897461L983.3468846153846,134.51282501220703L984.0946769230769,164.69207382202146L986.3380538461539,175.75951538085937L987.8336384615385,67.8156509399414L989.3292230769231,153.8154670715332L993.815976923077,154.554052734375L995.3115615384615,141.4340835571289L996.8071461538461,134.4317710876465L999.050523076923,114.8663246154785L1001.2939,93.55670471191405L1002.7894846153846,126.58420028686521L1004.2850692307692,130.42840576171875L1005.0328615384616,142.04877319335938L1006.5284461538461,92.55736541748047L1008.0240307692306,92.15565261840823L1010.2674076923076,150.2688331604004L1011.0152,131.5323028564453L1011.7629923076922,87.96162872314454L1012.5107846153846,127.84166564941404L1013.258576923077,154.81559143066409L1014.0063692307691,144.62122192382813L1014.7541615384615,98.27984619140625L1015.5019538461539,108.85643005371094L1016.9975384615385,95.94730682373046L1019.9887076923077,143.22364654541013L1022.2320846153846,31.677232360839866L1022.979876923077,186.9972038269043L1023.7276692307692,86.49544830322264L1024.4754615384616,151.5088348388672L1025.2232538461537,128.91806945800784L1026.7188384615386,153.270263671875L1028.2144230769231,131.30950469970702L1028.9622153846155,122.5022964477539L1029.7100076923077,161.2121383666992L1032.701176923077,219.87521667480468L1034.1967615384615,161.4651695251465L1034.9445538461537,137.47703704833984L1037.1879307692307,173.82787170410157L1042.422476923077,168.15393676757813L1043.9180615384616,104.83753967285156L1046.9092307692308,123.33879089355469L1047.657023076923,142.55374603271483L1048.4048153846152,177.40169448852538L1049.9004,124.30525360107424L1050.6481923076922,122.64569091796878L1053.6393615384616,114.08516921997068L1054.3871538461538,130.42249374389647L1055.8827384615386,11.308071899414074L1056.6305307692307,138.7264274597168L1058.1261153846153,105.69708938598632L1058.8739076923077,130.37341918945313L1061.865076923077,194.53211059570313L1062.6128692307693,130.14536590576174L1064.1084538461537,160.60289611816404L1064.856246153846,167.36590805053712L1066.3518307692307,146.69497833251953L1071.5863769230768,141.46872253417968L1074.5775461538462,127.35984420776364L1076.0731307692308,120.38954315185549L1077.5687153846154,84.4029304504395L1078.3165076923076,118.42386932373046L1079.0643,189.56380462646484L1082.0554692307692,150.26224822998046L1082.8032615384616,122.1482002258301L1083.5510538461538,195.1337905883789L1084.2988461538462,168.26235580444333L1087.2900153846153,120.64915924072267L1088.0378076923078,121.55291290283202L1089.5333923076923,136.008837890625L1090.2811846153847,93.65110473632814L1092.5245615384615,170.41910476684572L1093.2723538461537,104.12505340576172L1094.7679384615383,115.62458496093751L1096.263523076923,155.02959365844725L1097.0113153846153,125.24636993408203L1098.5068999999999,60.59308776855471L1100.7502769230769,179.7291389465332L1101.4980692307693,96.39190979003905L1102.9936538461538,117.5993591308594L1103.7414461538463,201.42010803222655L1105.9848230769232,145.62200317382815L1106.7326153846154,6.315989685058639L1107.4804076923078,125.48903503417966L1109.7237846153846,109.9019920349121L1110.4715769230768,63.13006439208982L1111.9671615384616,93.40513916015624L1112.7149538461538,117.7679557800293L1118.6972923076924,74.52300338745118L1122.436253846154,167.48664779663085L1123.184046153846,185.87714080810548L1124.6796307692307,148.86073150634766L1126.9230076923077,92.90234527587893L1128.4185923076923,135.43426666259768L1129.1663846153847,152.5501991271973L1130.6619692307693,53.675738525390614L1131.4097615384615,153.97900085449217L1132.1575538461539,244.73145446777343L1133.6531384615384,133.39114379882815L1134.4009307692309,86.20651245117188L1137.3921,106.84770584106445L1138.1398923076922,159.46993560791017L1138.8876846153846,136.23988723754883L1140.3832692307692,129.33428192138672L1141.8788538461538,145.63184051513673L1142.6266461538462,201.22725448608398L1144.870023076923,44.85584106445316L1145.6178153846154,74.44262237548833L1147.8611923076924,157.41627044677736L1148.6089846153848,144.77922821044922L1149.356776923077,127.3812171936035L1150.8523615384615,100.51205749511718L1153.0957384615385,128.16424713134768L1154.591323076923,162.57632446289065L1157.5824923076923,17.413888549804653L1158.3302846153845,156.60438537597656L1159.8258692307693,15.011814880371105L1161.3214538461539,109.2452453613281L1162.0692461538463,119.77180938720704L1165.8082076923079,197.7114303588867L1169.5471692307692,161.6535530090332L1171.790546153846,89.02843551635743L1172.5383384615384,85.40933532714843L1174.033923076923,68.36433105468745L1176.2773,87.25835494995118L1177.7728846153846,83.95984954833983L1178.520676923077,161.03327178955078L1181.5118461538461,79.45566101074218L1183.0074307692307,102.08215484619143L1184.5030153846153,85.38075256347656L1188.9897692307693,110.47705993652346L1190.4853538461539,125.42417907714844L1191.9809384615385,149.17450103759765L1197.2154846153846,133.1106994628906L1197.963276923077,192.1068214416504L1199.4588615384614,200.99469909667968L1202.4500307692308,161.538484954834L1203.197823076923,122.99615020751955L1205.4412,132.65794143676757L1206.1889923076924,153.09804611206053L1206.9367846153846,87.02565536499026L1208.4323692307692,125.91729583740232L1209.1801615384616,120.2188636779785L1209.927953846154,105.33600769042965L1210.6757461538461,81.6524803161621L1212.9191230769231,207.4265899658203L1213.6669153846153,73.40766677856448L1215.1625,54.841351318359386L1215.9102923076923,84.12479324340819L1217.405876923077,92.40778656005858L1218.153669230769,122.7981056213379L1221.892630769231,91.99748611450195L1222.640423076923,74.83730163574216L1225.6315923076925,-10.936015319824207L1227.8749692307692,109.07770614624025L1228.6227615384614,113.88170928955077L1229.3705538461538,65.81681213378909L1230.8661384615384,168.82992553710938L1231.6139307692306,113.79415054321288L1236.848476923077,125.06069412231446L1239.8396461538462,148.5608688354492L1241.3352307692307,40.1259704589844L1242.8308153846156,-11.656288146972656L1244.3264,123.24801177978517L1245.074192307692,93.28853302001949L1246.569776923077,108.0094253540039L1248.813153846154,-71.30364532470702L1249.560946153846,86.41647720336914L1250.3087384615385,143.38520965576174L1251.0565307692307,110.91967620849607L1254.7954923076923,150.04749298095703L1255.5432846153847,94.33760375976561L1256.291076923077,47.464755249023426L1257.0388692307693,63.729757690429665L1260.7778307692306,110.7150787353516L1263.0212076923076,101.97333526611328L1263.769,111.63421325683595L1265.2645846153846,112.89884033203128L1269.7513384615386,46.003028869628906L1271.2469230769232,132.1751266479492L1274.238092307692,119.37264404296877L1276.481469230769,91.47979202270506L1279.4726384615385,-0.43870697021480964L1280.2204307692307,120.32779541015628L1281.7160153846153,16.75799102783202L1283.9593923076923,202.7641227722168L1284.7071846153847,-2.2050064086914176L1286.2027692307693,135.412589263916L1287.6983538461539,136.01577529907226L1292.1851076923076,101.38642730712888L1293.6806923076922,26.52913055419924L1294.4284846153846,109.70792083740236L1295.176276923077,104.15853881835938L1298.9152384615386,125.5871520996094L1300.4108230769232,72.0919303894043L1301.9064076923078,107.93461990356445L1302.6542000000002,100.46174926757811L1303.4019923076924,43.518699645996094L1304.1497846153845,230.0401782989502L1304.8975769230767,69.09517822265627L1305.6453692307691,183.0340530395508L1306.3931615384615,189.4038116455078L1307.8887461538461,122.41212615966796L1308.6365384615385,134.1340072631836L1311.6277076923077,79.0626159667969L1313.1232923076923,86.8736572265625L1314.6188769230769,157.58017272949218L1316.8622538461539,147.3535514831543L1317.6100461538463,122.06341323852538L1323.5923846153846,53.89270477294923L1326.5835538461538,155.7123275756836L1327.3313461538462,113.52692413330078L1328.8269307692308,43.023339843749966L1329.5747230769232,103.5953109741211L1331.0703076923078,118.14480285644532L1331.8181000000002,162.6317916870117L1332.5658923076924,70.07317657470702L1334.061476923077,165.77554321289062L1334.8092692307691,83.40580215454105L1335.5570615384615,149.72194747924806L1337.8004384615383,140.5705764770508L1340.0438153846153,114.26036682128904L1342.2871923076923,123.03509902954102L1343.7827769230769,-8.244493103027366L1345.2783615384617,57.16629638671873L1346.7739461538463,158.6166664123535L1347.5217384615385,175.4167625427246L1348.2695307692309,193.0422660827637L1349.017323076923,146.03895263671873L1350.5129076923076,137.49152069091798L1352.0084923076922,118.69172058105471L1354.2518692307692,86.84071655273436L1354.9996615384616,81.77092895507809L1356.4952461538462,99.13374023437501L1357.2430384615384,76.38304595947261L1357.9908307692308,74.66981048583983L1358.7386230769232,98.31781768798828L1360.2342076923078,52.692709350585915L1360.982,-14.31554260253904L1361.7297923076924,70.84507141113284L1362.4775846153848,159.5910758972168L1363.225376923077,91.75459671020508L1364.7209615384613,117.22156677246096L1365.4687538461537,140.44807434082034L1366.9643384615383,163.51160888671876L1369.2077153846153,123.02505340576172L1369.9555076923077,111.94841537475588L1371.4510923076923,165.39637298583986L1372.946676923077,125.7685821533203L1373.6944692307693,43.54628906250002L1374.4422615384615,146.37867736816406L1376.6856384615385,73.97504425048828L1377.4334307692309,105.13557586669918L1378.181223076923,136.6659210205078L1379.6768076923076,23.51329650878904L1381.1723923076922,88.5474792480469L1381.9201846153846,150.9048156738281L1384.9113538461538,91.37191772460938L1385.6591461538462,123.43097991943358L1387.902523076923,10.045014953613304L1388.6503153846154,22.048654174804653L1392.389276923077,77.97084732055663L1393.1370692307694,197.21249771118164L1397.623823076923,-30.947538757324253L1399.1194076923077,65.77682189941407L1399.8672,165.06209564208984L1401.3627846153845,115.60606384277344L1402.110576923077,123.08396530151367L1402.8583692307693,75.30201187133792L1405.1017461538463,87.39513244628904L1408.840707692308,138.56994323730467L1410.3362923076922,-3.522280883789051L1411.8318769230768,87.07899169921876L1412.5796692307692,107.40087203979493L1413.3274615384614,88.69122619628905L1415.5708384615384,111.87540435791016L1416.3186307692308,125.58563003540041L1418.5620076923078,123.34343719482422L1419.3098,124.1396369934082L1420.8053846153846,130.17902755737305L1426.0399307692308,133.9319091796875L1434.265646153846,63.68438415527345L1435.0134384615385,158.1846725463867L1435.761230769231,94.3155258178711L1436.509023076923,149.5496978759766L1437.2568153846155,100.71199264526365L1441.7435692307693,160.84794845581052L1443.2391538461538,93.46618194580077L1444.7347384615384,128.44389038085936L1446.9781153846154,89.5019737243652L1447.7259076923076,130.2397018432617L1448.4737,79.90643234252929L1449.2214923076924,109.13081817626954L1449.9692846153846,81.1321266174316L1450.717076923077,134.489176940918L1451.4648692307692,88.1291679382324L1452.2126615384616,87.43073272705078L1452.960453846154,87.91953964233397L1453.7082461538462,106.85626144409179L1455.951623076923,101.67417755126951L1457.4472076923075,151.19073944091795L1458.195,106.21842041015623L1461.9339615384615,136.2075553894043L1463.429546153846,171.1353401184082L1465.672923076923,139.23614273071288L1466.4207153846155,-82.71390380859378L1467.1685076923077,130.7281723022461L1467.9163,80.23092041015622L1469.4118846153847,101.12171630859376L1470.907469230769,-17.04920196533203L1471.6552615384614,87.7618698120117L1474.6464307692306,138.09948120117187L1475.394223076923,101.70042114257814L1476.1420153846154,35.870150756835926L1476.8898076923076,48.45150146484377L1479.1331846153846,114.90456848144532L1479.880976923077,115.371826171875L1480.6287692307692,112.12720184326173L1482.124353846154,15.602664184570301L1482.8721461538462,118.90910339355469L1484.3677307692308,51.10809631347655L1485.8633153846154,122.73642196655271L1486.6111076923075,42.998089599609386L1487.3589,53.908598327636696L1488.1066923076921,44.20103302001951L1489.602276923077,33.68529968261714L1491.0978615384615,137.7628967285156L1491.845653846154,81.73032989501957L1494.836823076923,68.52595825195311L1496.3324076923077,192.8366912841797L1497.8279923076923,112.49890594482423L1499.323576923077,122.58945465087893L1502.314746153846,82.7773178100586L1503.8103307692306,121.87781753540037L1504.558123076923,100.21381301879882L1506.0537076923076,81.99071502685547L1507.5492923076922,108.97005615234377L1508.2970846153846,81.08418960571288L1510.5404615384616,-15.021459960937477L1512.0360461538462,1.9592010498046761L1512.7838384615386,104.65242462158204L1513.5316307692308,68.97711410522459L1515.0272153846154,67.82561645507815L1520.2617615384615,147.8802017211914L1523.2529307692307,175.41934204101562L1526.2441000000001,87.16307373046874L1527.7396846153847,53.033042907714844L1528.487476923077,65.72193145751953L1529.2352692307693,26.150601196289074L1529.9830615384615,129.63079605102538L1530.7308538461537,72.56726303100584L1532.9742307692306,93.82497253417966L1534.4698153846152,103.0889602661133L1535.2176076923076,85.08789138793946L1536.7131923076922,86.02279129028318L1540.4521538461538,62.64726562499999L1541.1999461538462,82.43313903808593L1541.9477384615386,108.94443740844724L1544.1911153846154,89.55793762207031L1544.9389076923076,51.30791931152345L1547.1822846153846,57.765284729003895L1548.6778692307691,23.405117797851574L1551.6690384615385,98.11506271362305L1552.4168307692307,101.8961265563965L1553.9124153846153,68.80327835083006L1556.9035846153847,144.69365615844725L1557.651376923077,127.94901123046873L1559.1469615384617,92.8274917602539L1560.642546153846,181.29250717163086L1562.1381307692307,14.895465087890614L1562.885923076923,69.04443740844727L1563.6337153846152,79.46046752929686L1565.8770923076922,63.75420684814452L1566.6248846153846,115.07592086791993L1567.3726769230768,64.50001831054686L1570.3638461538462,72.43253631591801L1571.1116384615384,127.72283248901365L1572.6072230769232,111.2447250366211L1574.1028076923078,132.6298553466797L1574.8506,-2.913455200195358L1576.3461846153846,91.8107849121094L1577.8417692307692,90.47085571289062L1578.5895615384616,88.96798553466795L1580.8329384615383,38.9404266357422L1583.0763153846153,105.27243347167968L1585.3196923076923,117.87579803466798L1586.0674846153847,123.58852157592776L1589.058653846154,87.46870422363281L1589.8064461538463,52.897723388671864L1591.3020307692307,50.8813568115234L1593.5454076923077,101.49537506103513L1595.0409923076922,103.94500122070315L1596.5365769230768,-4.49944610595702L1597.2843692307692,140.63309326171876L1598.0321615384617,39.030789184570324L1598.7799538461538,55.87962341308594L1600.2755384615384,-25.462307739257824L1601.0233307692308,83.87323608398435L1601.7711230769232,49.9338317871094L1602.5189153846154,40.59906005859375L1603.2667076923078,35.28955535888673L1607.7534615384614,118.87174072265623L1609.2490461538462,137.1827178955078L1610.7446307692308,119.73471908569331L1611.4924230769232,61.85335693359377L1612.2402153846153,10.392974853515625L1613.7358,85.63479309082032L1616.7269692307693,104.07860641479493L1618.222553846154,75.30258865356444L1621.9615153846153,141.21102905273438L1623.4570999999999,36.51576232910156L1627.9438538461538,47.284318542480435L1630.1872307692308,58.12244110107423L1631.6828153846154,141.39060058593748L1634.6739846153848,76.9460655212402L1636.1695692307692,101.20977172851565L1639.1607384615384,49.10041351318358L1639.9085307692308,112.54700317382816L1640.656323076923,137.4964553833008L1641.4041153846154,84.33169784545896L1647.386453846154,25.359031677246094L1648.8820384615385,105.81044311523436L1650.377623076923,23.510893249511696L1651.1254153846153,121.97622299194336L1652.6209999999999,81.95376892089848L1653.3687923076923,23.64477081298827L1657.1077538461539,73.26118011474608L1657.855546153846,78.45364608764646L1658.6033384615384,127.71326751708983L1663.8378846153846,64.22470092773438L1667.576846153846,70.07186279296877L1670.5680153846154,42.22907867431638L1672.8113923076924,116.88088073730472L1675.0547692307694,24.48017578125001L1675.8025615384615,145.3917709350586L1681.7848999999999,68.91656799316405L1683.2804846153845,141.97810134887695L1685.5238615384615,4.572665405273483L1686.2716538461539,69.56889266967772L1687.7672384615385,78.12987899780273L1691.5062,114.89860839843749L1695.2451615384616,45.8927032470703L1698.2363307692308,133.88969192504882L1698.984123076923,97.03529434204103L1700.4797076923076,102.05616760253906L1701.9752923076924,125.98053359985352L1704.2186692307691,-17.25065917968749L1705.714253846154,76.0800750732422L1706.4620461538461,98.88944091796873L1707.957630769231,61.22556152343748L1709.4532153846155,117.16831054687498L1710.2010076923077,27.967080688476585L1710.9488,102.0560073852539L1712.4443846153845,56.45018920898434L1713.939969230769,28.682546997070347L1714.6877615384615,84.70724716186527L1715.4355538461539,118.44697265625001L1716.183346153846,86.8853530883789L1717.6789307692306,76.43934631347656L1723.6612692307692,31.229168701171886L1725.904646153846,127.66975250244141L1726.6524384615384,64.76585083007814L1728.148023076923,65.75647430419923L1728.8958153846154,72.69846496582028L1731.8869846153846,52.55354461669924L1737.1215307692307,113.29960784912106L1738.6171153846155,56.417825317382835L1740.8604923076923,88.82032928466799L1741.6082846153845,54.457855224609375L1743.103869230769,86.03738708496098L1743.8516615384615,142.17574539184568L1746.0950384615385,60.111346435546864L1748.3384153846155,127.23940887451172L1750.5817923076922,54.125148010253895L1752.8251692307692,57.50720672607423L1754.3207538461538,65.3903778076172L1755.0685461538462,90.23552856445309L1755.8163384615384,13.481098937988293L1756.5641307692306,153.2985900878906L1757.311923076923,41.88435516357424L1761.798676923077,78.94741973876955L1763.2942615384616,61.810707092285156L1764.0420538461537,102.59363250732423L1764.7898461538462,99.44874343872073L1765.5376384615386,126.79610366821288L1769.2766000000001,112.70424041748049L1770.0243923076923,24.543237304687466L1770.7721846153847,20.35150451660155L1772.267769230769,9.754284667968761L1773.7633538461537,129.70653076171877L1774.511146153846,171.12561492919923L1775.2589384615385,3.6197570800781023L1776.0067307692307,133.151602935791L1776.754523076923,91.3373588562012L1777.5023153846153,40.4490966796875L1779.7456923076923,72.81564788818355L1781.241276923077,71.72753219604493L1781.9890692307692,115.65807037353517L1782.7368615384617,75.9988929748535L1785.7280307692308,46.22153320312498" style="fill: none;" fill="none"></path></g></g></g></g></g></g><g transform="translate(30, 378)" clip-path="url(#clip_1)"><clipPath id="clip_1"><rect width="1944" height="21"></rect></clipPath><g><g><line x1="0" y1="0" x2="0" y2="5" style="visibility: inherit;" fill="rgb(0, 0, 0)" stroke="rgb(204, 204, 204)" stroke-width="1px"></line><line x1="149.55846153846156" y1="0" x2="149.55846153846156" y2="5" style="visibility: inherit;" fill="rgb(0, 0, 0)" stroke="rgb(204, 204, 204)" stroke-width="1px"></line><line x1="299.1169230769231" y1="0" x2="299.1169230769231" y2="5" style="visibility: inherit;" fill="rgb(0, 0, 0)" stroke="rgb(204, 204, 204)" stroke-width="1px"></line><line x1="448.67538461538464" y1="0" x2="448.67538461538464" y2="5" style="visibility: inherit;" fill="rgb(0, 0, 0)" stroke="rgb(204, 204, 204)" stroke-width="1px"></line><line x1="598.2338461538462" y1="0" x2="598.2338461538462" y2="5" style="visibility: inherit;" fill="rgb(0, 0, 0)" stroke="rgb(204, 204, 204)" stroke-width="1px"></line><line x1="747.7923076923078" y1="0" x2="747.7923076923078" y2="5" style="visibility: inherit;" fill="rgb(0, 0, 0)" stroke="rgb(204, 204, 204)" stroke-width="1px"></line><line x1="897.3507692307693" y1="0" x2="897.3507692307693" y2="5" style="visibility: inherit;" fill="rgb(0, 0, 0)" stroke="rgb(204, 204, 204)" stroke-width="1px"></line><line x1="1046.9092307692308" y1="0" x2="1046.9092307692308" y2="5" style="visibility: inherit;" fill="rgb(0, 0, 0)" stroke="rgb(204, 204, 204)" stroke-width="1px"></line><line x1="1196.4676923076925" y1="0" x2="1196.4676923076925" y2="5" style="visibility: inherit;" fill="rgb(0, 0, 0)" stroke="rgb(204, 204, 204)" stroke-width="1px"></line><line x1="1346.0261538461539" y1="0" x2="1346.0261538461539" y2="5" style="visibility: inherit;" fill="rgb(0, 0, 0)" stroke="rgb(204, 204, 204)" stroke-width="1px"></line><line x1="1495.5846153846155" y1="0" x2="1495.5846153846155" y2="5" style="visibility: inherit;" fill="rgb(0, 0, 0)" stroke="rgb(204, 204, 204)" stroke-width="1px"></line><line x1="1645.143076923077" y1="0" x2="1645.143076923077" y2="5" style="visibility: inherit;" fill="rgb(0, 0, 0)" stroke="rgb(204, 204, 204)" stroke-width="1px"></line><line x1="1794.7015384615386" y1="0" x2="1794.7015384615386" y2="5" style="visibility: inherit;" fill="rgb(0, 0, 0)" stroke="rgb(204, 204, 204)" stroke-width="1px"></line><line x1="1944.26" y1="0" x2="1944.26" y2="5" style="visibility: inherit;" fill="rgb(0, 0, 0)" stroke="rgb(204, 204, 204)" stroke-width="1px"></line></g><g transform="translate(0, 8)"><text x="0" y="0" dx="0em" dy="0.95em" style="text-anchor: middle; visibility: hidden; font-family: &quot;Helvetica Neue&quot;, sans-serif; font-size: 15px; font-weight: 200;" fill="rgb(50, 49, 63)" stroke="none" stroke-width="1px">-20k</text><text x="149.55846153846156" y="0" dx="0em" dy="0.95em" style="text-anchor: middle; visibility: inherit; font-family: &quot;Helvetica Neue&quot;, sans-serif; font-size: 15px; font-weight: 200;" fill="rgb(50, 49, 63)" stroke="none" stroke-width="1px">0</text><text x="299.1169230769231" y="0" dx="0em" dy="0.95em" style="text-anchor: middle; visibility: inherit; font-family: &quot;Helvetica Neue&quot;, sans-serif; font-size: 15px; font-weight: 200;" fill="rgb(50, 49, 63)" stroke="none" stroke-width="1px">20k</text><text x="448.67538461538464" y="0" dx="0em" dy="0.95em" style="text-anchor: middle; visibility: inherit; font-family: &quot;Helvetica Neue&quot;, sans-serif; font-size: 15px; font-weight: 200;" fill="rgb(50, 49, 63)" stroke="none" stroke-width="1px">40k</text><text x="598.2338461538462" y="0" dx="0em" dy="0.95em" style="text-anchor: middle; visibility: inherit; font-family: &quot;Helvetica Neue&quot;, sans-serif; font-size: 15px; font-weight: 200;" fill="rgb(50, 49, 63)" stroke="none" stroke-width="1px">60k</text><text x="747.7923076923078" y="0" dx="0em" dy="0.95em" style="text-anchor: middle; visibility: inherit; font-family: &quot;Helvetica Neue&quot;, sans-serif; font-size: 15px; font-weight: 200;" fill="rgb(50, 49, 63)" stroke="none" stroke-width="1px">80k</text><text x="897.3507692307693" y="0" dx="0em" dy="0.95em" style="text-anchor: middle; visibility: inherit; font-family: &quot;Helvetica Neue&quot;, sans-serif; font-size: 15px; font-weight: 200;" fill="rgb(50, 49, 63)" stroke="none" stroke-width="1px">100k</text><text x="1046.9092307692308" y="0" dx="0em" dy="0.95em" style="text-anchor: middle; visibility: inherit; font-family: &quot;Helvetica Neue&quot;, sans-serif; font-size: 15px; font-weight: 200;" fill="rgb(50, 49, 63)" stroke="none" stroke-width="1px">120k</text><text x="1196.4676923076925" y="0" dx="0em" dy="0.95em" style="text-anchor: middle; visibility: inherit; font-family: &quot;Helvetica Neue&quot;, sans-serif; font-size: 15px; font-weight: 200;" fill="rgb(50, 49, 63)" stroke="none" stroke-width="1px">140k</text><text x="1346.0261538461539" y="0" dx="0em" dy="0.95em" style="text-anchor: middle; visibility: inherit; font-family: &quot;Helvetica Neue&quot;, sans-serif; font-size: 15px; font-weight: 200;" fill="rgb(50, 49, 63)" stroke="none" stroke-width="1px">160k</text><text x="1495.5846153846155" y="0" dx="0em" dy="0.95em" style="text-anchor: middle; visibility: inherit; font-family: &quot;Helvetica Neue&quot;, sans-serif; font-size: 15px; font-weight: 200;" fill="rgb(50, 49, 63)" stroke="none" stroke-width="1px">180k</text><text x="1645.143076923077" y="0" dx="0em" dy="0.95em" style="text-anchor: middle; visibility: inherit; font-family: &quot;Helvetica Neue&quot;, sans-serif; font-size: 15px; font-weight: 200;" fill="rgb(50, 49, 63)" stroke="none" stroke-width="1px">200k</text><text x="1794.7015384615386" y="0" dx="0em" dy="0.95em" style="text-anchor: middle; visibility: inherit; font-family: &quot;Helvetica Neue&quot;, sans-serif; font-size: 15px; font-weight: 200;" fill="rgb(50, 49, 63)" stroke="none" stroke-width="1px">220k</text><text x="1944.26" y="0" dx="0em" dy="0.95em" style="text-anchor: middle; visibility: hidden; font-family: &quot;Helvetica Neue&quot;, sans-serif; font-size: 15px; font-weight: 200;" fill="rgb(50, 49, 63)" stroke="none" stroke-width="1px">240k</text></g><line x1="0" y1="0" x2="1944.26" y2="0" fill="rgb(0, 0, 0)" stroke="rgb(204, 204, 204)" stroke-width="1px"></line></g></g></g></g></svg>