<svg viewBox="0 0 1974.2578125 400" xmlns="http://www.w3.org/2000/svg"><g><g><g><g><g><line x1="40" y1="378" x2="35" y2="378" style="visibility: inherit;" fill="rgb(0, 0, 0)" stroke="rgb(204, 204, 204)" stroke-width="1px"></line><line x1="40" y1="330.74999999999994" x2="35" y2="330.74999999999994" style="visibility: inherit;" fill="rgb(0, 0, 0)" stroke="rgb(204, 204, 204)" stroke-width="1px"></line><line x1="40" y1="283.5000000000001" x2="35" y2="283.5000000000001" style="visibility: inherit;" fill="rgb(0, 0, 0)" stroke="rgb(204, 204, 204)" stroke-width="1px"></line><line x1="40" y1="236.25000000000006" x2="35" y2="236.25000000000006" style="visibility: inherit;" fill="rgb(0, 0, 0)" stroke="rgb(204, 204, 204)" stroke-width="1px"></line><line x1="40" y1="189" x2="35" y2="189" style="visibility: inherit;" fill="rgb(0, 0, 0)" stroke="rgb(204, 204, 204)" stroke-width="1px"></line><line x1="40" y1="141.74999999999997" x2="35" y2="141.74999999999997" style="visibility: inherit;" fill="rgb(0, 0, 0)" stroke="rgb(204, 204, 204)" stroke-width="1px"></line><line x1="40" y1="94.49999999999989" x2="35" y2="94.49999999999989" style="visibility: inherit;" fill="rgb(0, 0, 0)" stroke="rgb(204, 204, 204)" stroke-width="1px"></line><line x1="40" y1="47.25000000000006" x2="35" y2="47.25000000000006" style="visibility: inherit;" fill="rgb(0, 0, 0)" stroke="rgb(204, 204, 204)" stroke-width="1px"></line><line x1="40" y1="0" x2="35" y2="0" style="visibility: inherit;" fill="rgb(0, 0, 0)" stroke="rgb(204, 204, 204)" stroke-width="1px"></line></g><g transform="translate(30, 0)"><text x="0" y="378" dx="0em" dy="0.3em" style="text-anchor: end; visibility: hidden; font-family: &quot;Helvetica Neue&quot;, sans-serif; font-size: 15px; font-weight: 200;" fill="rgb(50, 49, 63)" stroke="none" stroke-width="1px">4.2</text><text x="0" y="330.74999999999994" dx="0em" dy="0.3em" style="text-anchor: end; visibility: inherit; font-family: &quot;Helvetica Neue&quot;, sans-serif; font-size: 15px; font-weight: 200;" fill="rgb(50, 49, 63)" stroke="none" stroke-width="1px">4.4</text><text x="0" y="283.5000000000001" dx="0em" dy="0.3em" style="text-anchor: end; visibility: inherit; font-family: &quot;Helvetica Neue&quot;, sans-serif; font-size: 15px; font-weight: 200;" fill="rgb(50, 49, 63)" stroke="none" stroke-width="1px">4.6</text><text x="0" y="236.25000000000006" dx="0em" dy="0.3em" style="text-anchor: end; visibility: inherit; font-family: &quot;Helvetica Neue&quot;, sans-serif; font-size: 15px; font-weight: 200;" fill="rgb(50, 49, 63)" stroke="none" stroke-width="1px">4.8</text><text x="0" y="189" dx="0em" dy="0.3em" style="text-anchor: end; visibility: inherit; font-family: &quot;Helvetica Neue&quot;, sans-serif; font-size: 15px; font-weight: 200;" fill="rgb(50, 49, 63)" stroke="none" stroke-width="1px">5</text><text x="0" y="141.74999999999997" dx="0em" dy="0.3em" style="text-anchor: end; visibility: inherit; font-family: &quot;Helvetica Neue&quot;, sans-serif; font-size: 15px; font-weight: 200;" fill="rgb(50, 49, 63)" stroke="none" stroke-width="1px">5.2</text><text x="0" y="94.49999999999989" dx="0em" dy="0.3em" style="text-anchor: end; visibility: inherit; font-family: &quot;Helvetica Neue&quot;, sans-serif; font-size: 15px; font-weight: 200;" fill="rgb(50, 49, 63)" stroke="none" stroke-width="1px">5.4</text><text x="0" y="47.25000000000006" dx="0em" dy="0.3em" style="text-anchor: end; visibility: inherit; font-family: &quot;Helvetica Neue&quot;, sans-serif; font-size: 15px; font-weight: 200;" fill="rgb(50, 49, 63)" stroke="none" stroke-width="1px">5.6</text><text x="0" y="0" dx="0em" dy="0.3em" style="text-anchor: end; visibility: hidden; font-family: &quot;Helvetica Neue&quot;, sans-serif; font-size: 15px; font-weight: 200;" fill="rgb(50, 49, 63)" stroke="none" stroke-width="1px">5.8</text></g><line x1="40" y1="0" x2="40" y2="378" fill="rgb(0, 0, 0)" stroke="rgb(204, 204, 204)" stroke-width="1px"></line></g></g><g transform="translate(40, 0)" clip-path="url(#clip_0)"><clipPath id="clip_0"><rect width="1934" height="377"></rect></clipPath><g><g><g><line x1="0" y1="0" x2="0" y2="378" fill="rgb(0, 0, 0)" stroke="rgb(60, 60, 60)" stroke-width="1px" opacity="0.25"></line><line x1="148.78923076923078" y1="0" x2="148.78923076923078" y2="378" fill="rgb(0, 0, 0)" stroke="rgb(60, 60, 60)" stroke-width="1px" opacity="0.25"></line><line x1="297.57846153846157" y1="0" x2="297.57846153846157" y2="378" fill="rgb(0, 0, 0)" stroke="rgb(60, 60, 60)" stroke-width="1px" opacity="0.25"></line><line x1="446.3676923076923" y1="0" x2="446.3676923076923" y2="378" fill="rgb(0, 0, 0)" stroke="rgb(60, 60, 60)" stroke-width="1px" opacity="0.25"></line><line x1="595.1569230769231" y1="0" x2="595.1569230769231" y2="378" fill="rgb(0, 0, 0)" stroke="rgb(60, 60, 60)" stroke-width="1px" opacity="0.25"></line><line x1="743.9461538461538" y1="0" x2="743.9461538461538" y2="378" fill="rgb(0, 0, 0)" stroke="rgb(60, 60, 60)" stroke-width="1px" opacity="0.25"></line><line x1="892.7353846153846" y1="0" x2="892.7353846153846" y2="378" fill="rgb(0, 0, 0)" stroke="rgb(60, 60, 60)" stroke-width="1px" opacity="0.25"></line><line x1="1041.5246153846153" y1="0" x2="1041.5246153846153" y2="378" fill="rgb(0, 0, 0)" stroke="rgb(60, 60, 60)" stroke-width="1px" opacity="0.25"></line><line x1="1190.3138461538463" y1="0" x2="1190.3138461538463" y2="378" fill="rgb(0, 0, 0)" stroke="rgb(60, 60, 60)" stroke-width="1px" opacity="0.25"></line><line x1="1339.103076923077" y1="0" x2="1339.103076923077" y2="378" fill="rgb(0, 0, 0)" stroke="rgb(60, 60, 60)" stroke-width="1px" opacity="0.25"></line><line x1="1487.8923076923077" y1="0" x2="1487.8923076923077" y2="378" fill="rgb(0, 0, 0)" stroke="rgb(60, 60, 60)" stroke-width="1px" opacity="0.25"></line><line x1="1636.6815384615384" y1="0" x2="1636.6815384615384" y2="378" fill="rgb(0, 0, 0)" stroke="rgb(60, 60, 60)" stroke-width="1px" opacity="0.25"></line><line x1="1785.4707692307693" y1="0" x2="1785.4707692307693" y2="378" fill="rgb(0, 0, 0)" stroke="rgb(60, 60, 60)" stroke-width="1px" opacity="0.25"></line><line x1="1934.26" y1="0" x2="1934.26" y2="378" fill="rgb(0, 0, 0)" stroke="rgb(60, 60, 60)" stroke-width="1px" opacity="0.25"></line></g><g><line x1="0" y1="378" x2="1934.26" y2="378" fill="rgb(0, 0, 0)" stroke="rgb(60, 60, 60)" stroke-width="1px" opacity="0.25"></line><line x1="0" y1="330.74999999999994" x2="1934.26" y2="330.74999999999994" fill="rgb(0, 0, 0)" stroke="rgb(60, 60, 60)" stroke-width="1px" opacity="0.25"></line><line x1="0" y1="283.5000000000001" x2="1934.26" y2="283.5000000000001" fill="rgb(0, 0, 0)" stroke="rgb(60, 60, 60)" stroke-width="1px" opacity="0.25"></line><line x1="0" y1="236.25000000000006" x2="1934.26" y2="236.25000000000006" fill="rgb(0, 0, 0)" stroke="rgb(60, 60, 60)" stroke-width="1px" opacity="0.25"></line><line x1="0" y1="189" x2="1934.26" y2="189" fill="rgb(0, 0, 0)" stroke="rgb(60, 60, 60)" stroke-width="1px" opacity="0.25"></line><line x1="0" y1="141.74999999999997" x2="1934.26" y2="141.74999999999997" fill="rgb(0, 0, 0)" stroke="rgb(60, 60, 60)" stroke-width="1px" opacity="0.25"></line><line x1="0" y1="94.49999999999989" x2="1934.26" y2="94.49999999999989" fill="rgb(0, 0, 0)" stroke="rgb(60, 60, 60)" stroke-width="1px" opacity="0.25"></line><line x1="0" y1="47.25000000000006" x2="1934.26" y2="47.25000000000006" fill="rgb(0, 0, 0)" stroke="rgb(60, 60, 60)" stroke-width="1px" opacity="0.25"></line><line x1="0" y1="0" x2="1934.26" y2="0" fill="rgb(0, 0, 0)" stroke="rgb(60, 60, 60)" stroke-width="1px" opacity="0.25"></line></g></g></g><g><g><line x1="0" y1="1370.2500000000005" x2="1934.26" y2="1370.2500000000005" fill="rgb(0, 0, 0)" stroke="rgb(153, 153, 153)" stroke-width="1.5px"></line></g></g><g><g><line x1="148.78923076923078" y1="0" x2="148.78923076923078" y2="378" fill="rgb(0, 0, 0)" stroke="rgb(153, 153, 153)" stroke-width="1.5px"></line></g></g><g><g><g><g><g><path stroke="rgb(255, 112, 67)" stroke-width="2px" d="M208.30492307692307,409.62140403724317L223.18384615384616,365.76304095192006L238.06276923076925,314.9756347097335L252.9416923076923,285.80894349745137L267.8206153846154,255.44109027687887L282.69953846153845,225.3462166455128L297.57846153846157,201.28542688058786L312.4573846153846,182.06977534221005L327.3363076923077,165.3404806611214L342.2152307692308,148.98735856854756L357.09415384615386,138.29137421486536L371.9730769230769,128.747289446548L386.85200000000003,116.48042165251809L401.7309230769231,110.06492079317457L416.60984615384615,95.36862456471698L431.48876923076926,96.57152167747734L446.3676923076923,89.92776864604713L461.2466153846154,84.41555994728651L476.1255384615385,81.32480671882337L491.0044615384615,76.07855090940814L505.8833846153846,71.25611455967919L520.7623076923077,69.8114026507651L535.6412307692308,67.4879775272484L550.5201538461538,67.63455604513365L565.3990769230769,64.52357747794025L580.278,61.6769095795259L595.1569230769231,61.91780981329981L610.0358461538461,62.43856709911017L624.9147692307693,58.28061161359824L639.7936923076923,60.66063244612968L654.6726153846154,58.99638566675378L669.5515384615385,60.136679987988316L684.4304615384616,61.059116289974156L699.3093846153846,56.57004370356083L714.1883076923077,56.12273550234232L729.0672307692307,54.340529296465036L743.9461538461538,58.3528477321866L758.825076923077,62.08392296761588L773.7040000000001,66.38485216470457L788.5829230769231,68.72508668850134L803.4618461538462,65.25119106789123L818.3407692307692,67.92810931222573L833.2196923076923,74.51221905929611L848.0986153846154,76.6105484476978L862.9775384615385,78.51576322161355L877.8564615384615,77.8571656257273L892.7353846153846,78.40614116990605L907.6143076923076,77.20183116240742L922.4932307692308,77.74515531480193L937.3721538461539,75.82774082789729L952.251076923077,78.28404408948683L967.13,81.62092842214162L982.008923076923,88.272405465068L996.887846153846,89.44852927463131L1011.7667692307692,92.42630682264877L1026.6456923076923,89.1990605590932L1041.5246153846153,92.74031416456648L1056.4035384615383,89.86451588664625L1071.2824615384616,89.56556265910069L1086.1613846153846,91.12368655358648L1101.0403076923076,90.11672269201779L1115.9192307692306,91.5166915683497L1130.7981538461538,84.738261506053L1145.677076923077,90.04901104192345L1160.556,87.9739798854917L1175.434923076923,89.82511767881385L1190.3138461538463,86.67277594301947L1205.1927692307693,85.84019897065855L1220.0716923076923,83.25421845447664L1234.9506153846153,90.62576031428927L1249.8295384615385,89.81659297052948L1264.7084615384615,96.42608113882773L1279.5873846153845,100.85561782392074L1294.4663076923075,95.82533394837128L1309.3452307692307,94.9076650806744L1324.224153846154,94.58065714658125L1339.103076923077,90.30063599511328L1353.982,96.12110902084083L1368.8609230769232,94.12926107548947L1383.7398461538462,91.20677282473753L1398.6187692307692,96.15527666066157L1413.4976923076922,98.67843269739296L1428.3766153846154,97.58370784756124L1443.2555384615384,102.22428672313856L1458.1344615384614,103.1659871272359L1473.0133846153844,103.4738733006559L1487.8923076923077,102.3525549734652L1502.771230769231,108.58428080749724L1517.650153846154,106.40447160036706L1532.529076923077,111.39514253172325L1547.4080000000001,116.86023133728861L1562.2869230769231,114.75738114968522L1577.1658461538461,113.39402101652058L1592.0447692307691,109.64556096417573L1606.9236923076924,106.63663164220134L1621.8026153846154,110.4325106665571L1636.6815384615384,113.14229552205614L1651.5604615384614,112.89579411547328L1666.4393846153846,114.68015536650182L1681.3183076923078,120.13734691187375L1696.1972307692308,116.95613001832356L1711.0761538461538,114.25812896908388L1725.955076923077,110.05233146979634L1740.834,111.49255978458729L1755.712923076923,115.22171980865494L1770.591846153846,114.26756284812626" style="fill: none;" fill="none"></path></g></g></g></g><g opacity="0.2"><g><g><g><path stroke="rgb(255, 112, 67)" stroke-width="2px" d="M178.54707692307693,441.6749441027642L193.42600000000002,357.45521986484533L208.30492307692307,274.82992672920227L223.18384615384616,262.187130689621L238.06276923076925,178.39407885074615L252.9416923076923,199.72567105293274L267.8206153846154,159.44407904148102L282.69953846153845,125.16304993629456L297.57846153846157,117.95980596542358L312.4573846153846,113.46022868156433L327.3363076923077,104.1714438199997L342.2152307692308,88.0699821710586L357.09415384615386,97.85950863361359L371.9730769230769,92.24996352195734L386.85200000000003,69.13935863971705L401.7309230769231,85.12523853778833L416.60984615384615,37.9071643352508L431.48876923076926,101.29643225669861L446.3676923076923,63.73574280738825L461.2466153846154,62.62093091011042L476.1255384615385,69.07582247257227L491.0044615384615,55.248369812965336L505.8833846153846,52.08023571968073L520.7623076923077,64.05984485149378L535.6412307692308,58.22938764095301L550.5201538461538,68.21909809112543L565.3990769230769,52.10975074768061L580.278,50.312263011932316L595.1569230769231,62.879919648170414L610.0358461538461,64.51901757717127L624.9147692307693,41.66526103019709L639.7936923076923,70.17317318916315L654.6726153846154,52.34361791610712L669.5515384615385,64.69554448127741L684.4304615384616,64.74736475944513L699.3093846153846,38.619580507278386L714.1883076923077,54.33396720886225L729.0672307692307,47.213185071945134L743.9461538461538,74.39945483207697L758.825076923077,77.00624012947077L773.7040000000001,83.58673954010004L788.5829230769231,78.0852284431457L803.4618461538462,51.35655426979059L818.3407692307692,78.63519930839533L833.2196923076923,100.84751093387604L848.0986153846154,85.0035735368728L862.9775384615385,86.13640987873072L877.8564615384615,75.22283399105066L892.7353846153846,80.60200417041773L907.6143076923076,72.38465988636011L922.4932307692308,79.91842710971827L937.3721538461539,68.15815293788904L952.251076923077,88.10918533802027L967.13,94.96838772296906L982.008923076923,114.87818920612335L996.887846153846,94.15300691127771L1011.7667692307692,104.33738136291504L1026.6456923076923,76.29010641574854L1041.5246153846153,106.90530145168304L1056.4035384615383,78.36134040355677L1071.2824615384616,88.36975121498102L1086.1613846153846,97.3561760187149L1101.0403076923076,86.08887040615076L1115.9192307692306,97.11656355857849L1130.7981538461538,57.62455487251276L1145.677076923077,111.29200065135956L1160.556,79.67385792732233L1175.434923076923,97.22966694831848L1190.3138461538463,74.06341159343714L1205.1927692307693,82.509891629219L1220.0716923076923,72.91029775142664L1234.9506153846153,120.11192464828491L1249.8295384615385,86.57992386817926L1264.7084615384615,122.86403203010559L1279.5873846153845,118.5737636089325L1294.4663076923075,75.70419931411737L1309.3452307692307,91.23698973655695L1324.224153846154,93.27262544631952L1339.103076923077,73.18055176734919L1353.982,119.40300071239471L1368.8609230769232,86.16186940670008L1383.7398461538462,79.5168199539184L1398.6187692307692,115.9492918252945L1413.4976923076922,108.77105677127838L1428.3766153846154,93.20480847358698L1443.2555384615384,120.78660213947296L1458.1344615384614,106.93278872966766L1473.0133846153844,104.70541799068451L1487.8923076923077,97.86728167533875L1502.771230769231,133.51118409633636L1517.650153846154,97.68523478507996L1532.529076923077,131.35782623291016L1547.4080000000001,138.72058653831482L1562.2869230769231,106.3459804058075L1577.1658461538461,107.94058048725128L1592.0447692307691,94.65172076225281L1606.9236923076924,94.60091435909271L1621.8026153846154,125.61602675914764L1636.6815384615384,123.98143494129181L1651.5604615384614,111.90978848934174L1666.4393846153846,121.81760036945343L1681.3183076923078,141.96611309051514L1696.1972307692308,104.23126244544983L1711.0761538461538,103.46612477302551L1725.955076923077,93.22914147377008L1740.834,117.25347304344177L1755.712923076923,130.13835990428925L1770.591846153846,110.45093500614166" style="fill: none;" fill="none"></path></g></g></g></g></g></g><g transform="translate(40, 378)" clip-path="url(#clip_1)"><clipPath id="clip_1"><rect width="1934" height="21"></rect></clipPath><g><g><line x1="0" y1="0" x2="0" y2="5" style="visibility: inherit;" fill="rgb(0, 0, 0)" stroke="rgb(204, 204, 204)" stroke-width="1px"></line><line x1="148.78923076923078" y1="0" x2="148.78923076923078" y2="5" style="visibility: inherit;" fill="rgb(0, 0, 0)" stroke="rgb(204, 204, 204)" stroke-width="1px"></line><line x1="297.57846153846157" y1="0" x2="297.57846153846157" y2="5" style="visibility: inherit;" fill="rgb(0, 0, 0)" stroke="rgb(204, 204, 204)" stroke-width="1px"></line><line x1="446.3676923076923" y1="0" x2="446.3676923076923" y2="5" style="visibility: inherit;" fill="rgb(0, 0, 0)" stroke="rgb(204, 204, 204)" stroke-width="1px"></line><line x1="595.1569230769231" y1="0" x2="595.1569230769231" y2="5" style="visibility: inherit;" fill="rgb(0, 0, 0)" stroke="rgb(204, 204, 204)" stroke-width="1px"></line><line x1="743.9461538461538" y1="0" x2="743.9461538461538" y2="5" style="visibility: inherit;" fill="rgb(0, 0, 0)" stroke="rgb(204, 204, 204)" stroke-width="1px"></line><line x1="892.7353846153846" y1="0" x2="892.7353846153846" y2="5" style="visibility: inherit;" fill="rgb(0, 0, 0)" stroke="rgb(204, 204, 204)" stroke-width="1px"></line><line x1="1041.5246153846153" y1="0" x2="1041.5246153846153" y2="5" style="visibility: inherit;" fill="rgb(0, 0, 0)" stroke="rgb(204, 204, 204)" stroke-width="1px"></line><line x1="1190.3138461538463" y1="0" x2="1190.3138461538463" y2="5" style="visibility: inherit;" fill="rgb(0, 0, 0)" stroke="rgb(204, 204, 204)" stroke-width="1px"></line><line x1="1339.103076923077" y1="0" x2="1339.103076923077" y2="5" style="visibility: inherit;" fill="rgb(0, 0, 0)" stroke="rgb(204, 204, 204)" stroke-width="1px"></line><line x1="1487.8923076923077" y1="0" x2="1487.8923076923077" y2="5" style="visibility: inherit;" fill="rgb(0, 0, 0)" stroke="rgb(204, 204, 204)" stroke-width="1px"></line><line x1="1636.6815384615384" y1="0" x2="1636.6815384615384" y2="5" style="visibility: inherit;" fill="rgb(0, 0, 0)" stroke="rgb(204, 204, 204)" stroke-width="1px"></line><line x1="1785.4707692307693" y1="0" x2="1785.4707692307693" y2="5" style="visibility: inherit;" fill="rgb(0, 0, 0)" stroke="rgb(204, 204, 204)" stroke-width="1px"></line><line x1="1934.26" y1="0" x2="1934.26" y2="5" style="visibility: inherit;" fill="rgb(0, 0, 0)" stroke="rgb(204, 204, 204)" stroke-width="1px"></line></g><g transform="translate(0, 8)"><text x="0" y="0" dx="0em" dy="0.95em" style="text-anchor: middle; visibility: hidden; font-family: &quot;Helvetica Neue&quot;, sans-serif; font-size: 15px; font-weight: 200;" fill="rgb(50, 49, 63)" stroke="none" stroke-width="1px">-20k</text><text x="148.78923076923078" y="0" dx="0em" dy="0.95em" style="text-anchor: middle; visibility: inherit; font-family: &quot;Helvetica Neue&quot;, sans-serif; font-size: 15px; font-weight: 200;" fill="rgb(50, 49, 63)" stroke="none" stroke-width="1px">0</text><text x="297.57846153846157" y="0" dx="0em" dy="0.95em" style="text-anchor: middle; visibility: inherit; font-family: &quot;Helvetica Neue&quot;, sans-serif; font-size: 15px; font-weight: 200;" fill="rgb(50, 49, 63)" stroke="none" stroke-width="1px">20k</text><text x="446.3676923076923" y="0" dx="0em" dy="0.95em" style="text-anchor: middle; visibility: inherit; font-family: &quot;Helvetica Neue&quot;, sans-serif; font-size: 15px; font-weight: 200;" fill="rgb(50, 49, 63)" stroke="none" stroke-width="1px">40k</text><text x="595.1569230769231" y="0" dx="0em" dy="0.95em" style="text-anchor: middle; visibility: inherit; font-family: &quot;Helvetica Neue&quot;, sans-serif; font-size: 15px; font-weight: 200;" fill="rgb(50, 49, 63)" stroke="none" stroke-width="1px">60k</text><text x="743.9461538461538" y="0" dx="0em" dy="0.95em" style="text-anchor: middle; visibility: inherit; font-family: &quot;Helvetica Neue&quot;, sans-serif; font-size: 15px; font-weight: 200;" fill="rgb(50, 49, 63)" stroke="none" stroke-width="1px">80k</text><text x="892.7353846153846" y="0" dx="0em" dy="0.95em" style="text-anchor: middle; visibility: inherit; font-family: &quot;Helvetica Neue&quot;, sans-serif; font-size: 15px; font-weight: 200;" fill="rgb(50, 49, 63)" stroke="none" stroke-width="1px">100k</text><text x="1041.5246153846153" y="0" dx="0em" dy="0.95em" style="text-anchor: middle; visibility: inherit; font-family: &quot;Helvetica Neue&quot;, sans-serif; font-size: 15px; font-weight: 200;" fill="rgb(50, 49, 63)" stroke="none" stroke-width="1px">120k</text><text x="1190.3138461538463" y="0" dx="0em" dy="0.95em" style="text-anchor: middle; visibility: inherit; font-family: &quot;Helvetica Neue&quot;, sans-serif; font-size: 15px; font-weight: 200;" fill="rgb(50, 49, 63)" stroke="none" stroke-width="1px">140k</text><text x="1339.103076923077" y="0" dx="0em" dy="0.95em" style="text-anchor: middle; visibility: inherit; font-family: &quot;Helvetica Neue&quot;, sans-serif; font-size: 15px; font-weight: 200;" fill="rgb(50, 49, 63)" stroke="none" stroke-width="1px">160k</text><text x="1487.8923076923077" y="0" dx="0em" dy="0.95em" style="text-anchor: middle; visibility: inherit; font-family: &quot;Helvetica Neue&quot;, sans-serif; font-size: 15px; font-weight: 200;" fill="rgb(50, 49, 63)" stroke="none" stroke-width="1px">180k</text><text x="1636.6815384615384" y="0" dx="0em" dy="0.95em" style="text-anchor: middle; visibility: inherit; font-family: &quot;Helvetica Neue&quot;, sans-serif; font-size: 15px; font-weight: 200;" fill="rgb(50, 49, 63)" stroke="none" stroke-width="1px">200k</text><text x="1785.4707692307693" y="0" dx="0em" dy="0.95em" style="text-anchor: middle; visibility: inherit; font-family: &quot;Helvetica Neue&quot;, sans-serif; font-size: 15px; font-weight: 200;" fill="rgb(50, 49, 63)" stroke="none" stroke-width="1px">220k</text><text x="1934.26" y="0" dx="0em" dy="0.95em" style="text-anchor: middle; visibility: hidden; font-family: &quot;Helvetica Neue&quot;, sans-serif; font-size: 15px; font-weight: 200;" fill="rgb(50, 49, 63)" stroke="none" stroke-width="1px">240k</text></g><line x1="0" y1="0" x2="1934.26" y2="0" fill="rgb(0, 0, 0)" stroke="rgb(204, 204, 204)" stroke-width="1px"></line></g></g></g></g></svg>