<svg viewBox="0 0 1974.2578125 400" xmlns="http://www.w3.org/2000/svg"><g><g><g><g><g><line x1="30" y1="378" x2="25" y2="378" style="visibility: inherit;" fill="rgb(0, 0, 0)" stroke="rgb(204, 204, 204)" stroke-width="1px"></line><line x1="30" y1="330.75" x2="25" y2="330.75" style="visibility: inherit;" fill="rgb(0, 0, 0)" stroke="rgb(204, 204, 204)" stroke-width="1px"></line><line x1="30" y1="283.5" x2="25" y2="283.5" style="visibility: inherit;" fill="rgb(0, 0, 0)" stroke="rgb(204, 204, 204)" stroke-width="1px"></line><line x1="30" y1="236.25" x2="25" y2="236.25" style="visibility: inherit;" fill="rgb(0, 0, 0)" stroke="rgb(204, 204, 204)" stroke-width="1px"></line><line x1="30" y1="189" x2="25" y2="189" style="visibility: inherit;" fill="rgb(0, 0, 0)" stroke="rgb(204, 204, 204)" stroke-width="1px"></line><line x1="30" y1="141.75" x2="25" y2="141.75" style="visibility: inherit;" fill="rgb(0, 0, 0)" stroke="rgb(204, 204, 204)" stroke-width="1px"></line><line x1="30" y1="94.5" x2="25" y2="94.5" style="visibility: inherit;" fill="rgb(0, 0, 0)" stroke="rgb(204, 204, 204)" stroke-width="1px"></line><line x1="30" y1="47.25" x2="25" y2="47.25" style="visibility: inherit;" fill="rgb(0, 0, 0)" stroke="rgb(204, 204, 204)" stroke-width="1px"></line><line x1="30" y1="0" x2="25" y2="0" style="visibility: inherit;" fill="rgb(0, 0, 0)" stroke="rgb(204, 204, 204)" stroke-width="1px"></line></g><g transform="translate(20, 0)"><text x="0" y="378" dx="0em" dy="0.3em" style="text-anchor: end; visibility: hidden; font-family: &quot;Helvetica Neue&quot;, sans-serif; font-size: 15px; font-weight: 200;" fill="rgb(50, 49, 63)" stroke="none" stroke-width="1px">-1</text><text x="0" y="330.75" dx="0em" dy="0.3em" style="text-anchor: end; visibility: inherit; font-family: &quot;Helvetica Neue&quot;, sans-serif; font-size: 15px; font-weight: 200;" fill="rgb(50, 49, 63)" stroke="none" stroke-width="1px">0</text><text x="0" y="283.5" dx="0em" dy="0.3em" style="text-anchor: end; visibility: inherit; font-family: &quot;Helvetica Neue&quot;, sans-serif; font-size: 15px; font-weight: 200;" fill="rgb(50, 49, 63)" stroke="none" stroke-width="1px">1</text><text x="0" y="236.25" dx="0em" dy="0.3em" style="text-anchor: end; visibility: inherit; font-family: &quot;Helvetica Neue&quot;, sans-serif; font-size: 15px; font-weight: 200;" fill="rgb(50, 49, 63)" stroke="none" stroke-width="1px">2</text><text x="0" y="189" dx="0em" dy="0.3em" style="text-anchor: end; visibility: inherit; font-family: &quot;Helvetica Neue&quot;, sans-serif; font-size: 15px; font-weight: 200;" fill="rgb(50, 49, 63)" stroke="none" stroke-width="1px">3</text><text x="0" y="141.75" dx="0em" dy="0.3em" style="text-anchor: end; visibility: inherit; font-family: &quot;Helvetica Neue&quot;, sans-serif; font-size: 15px; font-weight: 200;" fill="rgb(50, 49, 63)" stroke="none" stroke-width="1px">4</text><text x="0" y="94.5" dx="0em" dy="0.3em" style="text-anchor: end; visibility: inherit; font-family: &quot;Helvetica Neue&quot;, sans-serif; font-size: 15px; font-weight: 200;" fill="rgb(50, 49, 63)" stroke="none" stroke-width="1px">5</text><text x="0" y="47.25" dx="0em" dy="0.3em" style="text-anchor: end; visibility: inherit; font-family: &quot;Helvetica Neue&quot;, sans-serif; font-size: 15px; font-weight: 200;" fill="rgb(50, 49, 63)" stroke="none" stroke-width="1px">6</text><text x="0" y="0" dx="0em" dy="0.3em" style="text-anchor: end; visibility: hidden; font-family: &quot;Helvetica Neue&quot;, sans-serif; font-size: 15px; font-weight: 200;" fill="rgb(50, 49, 63)" stroke="none" stroke-width="1px">7</text></g><line x1="30" y1="0" x2="30" y2="378" fill="rgb(0, 0, 0)" stroke="rgb(204, 204, 204)" stroke-width="1px"></line></g></g><g transform="translate(30, 0)" clip-path="url(#clip_0)"><clipPath id="clip_0"><rect width="1944" height="377"></rect></clipPath><g><g><g><line x1="0" y1="0" x2="0" y2="378" fill="rgb(0, 0, 0)" stroke="rgb(60, 60, 60)" stroke-width="1px" opacity="0.25"></line><line x1="149.55846153846156" y1="0" x2="149.55846153846156" y2="378" fill="rgb(0, 0, 0)" stroke="rgb(60, 60, 60)" stroke-width="1px" opacity="0.25"></line><line x1="299.1169230769231" y1="0" x2="299.1169230769231" y2="378" fill="rgb(0, 0, 0)" stroke="rgb(60, 60, 60)" stroke-width="1px" opacity="0.25"></line><line x1="448.67538461538464" y1="0" x2="448.67538461538464" y2="378" fill="rgb(0, 0, 0)" stroke="rgb(60, 60, 60)" stroke-width="1px" opacity="0.25"></line><line x1="598.2338461538462" y1="0" x2="598.2338461538462" y2="378" fill="rgb(0, 0, 0)" stroke="rgb(60, 60, 60)" stroke-width="1px" opacity="0.25"></line><line x1="747.7923076923078" y1="0" x2="747.7923076923078" y2="378" fill="rgb(0, 0, 0)" stroke="rgb(60, 60, 60)" stroke-width="1px" opacity="0.25"></line><line x1="897.3507692307693" y1="0" x2="897.3507692307693" y2="378" fill="rgb(0, 0, 0)" stroke="rgb(60, 60, 60)" stroke-width="1px" opacity="0.25"></line><line x1="1046.9092307692308" y1="0" x2="1046.9092307692308" y2="378" fill="rgb(0, 0, 0)" stroke="rgb(60, 60, 60)" stroke-width="1px" opacity="0.25"></line><line x1="1196.4676923076925" y1="0" x2="1196.4676923076925" y2="378" fill="rgb(0, 0, 0)" stroke="rgb(60, 60, 60)" stroke-width="1px" opacity="0.25"></line><line x1="1346.0261538461539" y1="0" x2="1346.0261538461539" y2="378" fill="rgb(0, 0, 0)" stroke="rgb(60, 60, 60)" stroke-width="1px" opacity="0.25"></line><line x1="1495.5846153846155" y1="0" x2="1495.5846153846155" y2="378" fill="rgb(0, 0, 0)" stroke="rgb(60, 60, 60)" stroke-width="1px" opacity="0.25"></line><line x1="1645.143076923077" y1="0" x2="1645.143076923077" y2="378" fill="rgb(0, 0, 0)" stroke="rgb(60, 60, 60)" stroke-width="1px" opacity="0.25"></line><line x1="1794.7015384615386" y1="0" x2="1794.7015384615386" y2="378" fill="rgb(0, 0, 0)" stroke="rgb(60, 60, 60)" stroke-width="1px" opacity="0.25"></line><line x1="1944.26" y1="0" x2="1944.26" y2="378" fill="rgb(0, 0, 0)" stroke="rgb(60, 60, 60)" stroke-width="1px" opacity="0.25"></line></g><g><line x1="0" y1="378" x2="1944.26" y2="378" fill="rgb(0, 0, 0)" stroke="rgb(60, 60, 60)" stroke-width="1px" opacity="0.25"></line><line x1="0" y1="330.75" x2="1944.26" y2="330.75" fill="rgb(0, 0, 0)" stroke="rgb(60, 60, 60)" stroke-width="1px" opacity="0.25"></line><line x1="0" y1="283.5" x2="1944.26" y2="283.5" fill="rgb(0, 0, 0)" stroke="rgb(60, 60, 60)" stroke-width="1px" opacity="0.25"></line><line x1="0" y1="236.25" x2="1944.26" y2="236.25" fill="rgb(0, 0, 0)" stroke="rgb(60, 60, 60)" stroke-width="1px" opacity="0.25"></line><line x1="0" y1="189" x2="1944.26" y2="189" fill="rgb(0, 0, 0)" stroke="rgb(60, 60, 60)" stroke-width="1px" opacity="0.25"></line><line x1="0" y1="141.75" x2="1944.26" y2="141.75" fill="rgb(0, 0, 0)" stroke="rgb(60, 60, 60)" stroke-width="1px" opacity="0.25"></line><line x1="0" y1="94.5" x2="1944.26" y2="94.5" fill="rgb(0, 0, 0)" stroke="rgb(60, 60, 60)" stroke-width="1px" opacity="0.25"></line><line x1="0" y1="47.25" x2="1944.26" y2="47.25" fill="rgb(0, 0, 0)" stroke="rgb(60, 60, 60)" stroke-width="1px" opacity="0.25"></line><line x1="0" y1="0" x2="1944.26" y2="0" fill="rgb(0, 0, 0)" stroke="rgb(60, 60, 60)" stroke-width="1px" opacity="0.25"></line></g></g></g><g><g><line x1="0" y1="330.75" x2="1944.26" y2="330.75" fill="rgb(0, 0, 0)" stroke="rgb(153, 153, 153)" stroke-width="1.5px"></line></g></g><g><g><line x1="149.55846153846156" y1="0" x2="149.55846153846156" y2="378" fill="rgb(0, 0, 0)" stroke="rgb(153, 153, 153)" stroke-width="1.5px"></line></g></g><g><g><g><g><g><path stroke="rgb(255, 112, 67)" stroke-width="2px" d="M151.80183846153844,52.980714440345764L153.29742307692308,79.07232463359833L155.5408,52.58600865231182L156.2885923076923,22.637028476087096L158.53196923076922,42.823204646957095L162.27093076923077,43.140523863620444L163.7665153846154,44.21588571873559L165.2621,65.35429049695284L167.5054769230769,68.00546674328007L169.74885384615385,60.06724636903306L171.24443846153846,75.07653021386932L174.9834,73.26655096686648L175.7311923076923,75.27793639468746L176.4789846153846,85.2557347319239L177.22677692307693,66.43113933037023L177.97456923076925,68.12253702372328L179.47015384615386,77.29082243383465L180.21794615384616,82.72599282788724L180.96573846153845,99.52561948752867L183.2091153846154,79.92343867661788L183.95690769230768,62.019067770807965L186.20028461538462,36.585422618369364L187.69586923076923,31.925037334706985L189.19145384615385,39.35910494654462L189.93924615384614,39.40956495325372L191.43483076923076,51.3287225748266L192.18262307692308,53.49251802472958L192.9304153846154,75.25103282947799L193.6782076923077,62.413360486848205L201.9039230769231,37.60651472268398L204.1473,59.91802027704455L207.13846923076923,46.079492950729104L210.12963846153843,68.76464819141415L210.87743076923076,73.5137225958149L211.62522307692308,20.035611414803952L214.6163923076923,47.78889302946965L216.85976923076925,62.14884191773666L217.60756153846154,25.37933784609362L220.59873076923077,40.12305781111047L222.8421076923077,47.74561012039612L225.08548461538462,45.49491864833675L228.07665384615385,55.15223647576846L228.82444615384617,54.38506750092023L229.57223846153846,72.98840195610336L230.32003076923078,92.14699234041586L234.8067846153846,101.70486503452298L236.30236923076924,127.89882645330619L240.78912307692306,127.19340530118455L243.7802923076923,130.5558572199887L246.02366923076923,121.32881285415584L248.26704615384614,124.83349625981808L249.0148384615385,158.49088552348758L250.51042307692305,158.9649643354984L252.7538,141.1996078997894L253.50159230769228,148.50601378489867L254.24938461538463,163.69017110941292L255.74496923076924,137.1420347130799L259.48393076923077,161.88181217497066L265.4662692307692,171.52621635341222L268.45743846153846,151.8110548402342L269.2052307692308,150.66803300877618L269.95302307692305,121.46340467352894L273.69198461538457,144.26360001475607L274.4397769230769,153.51089368423834L276.68315384615386,132.64302167554663L279.6743230769231,46.114287020691904L280.4221153846154,63.28790978346507L281.1699076923077,77.59963201495935L284.16107692307696,97.52639316517804L284.9088692307692,107.11624890215359L287.1522461538462,117.11353441670826L287.9000384615385,133.79524101138492L288.6478307692307,149.59041176451274L289.3956230769231,121.71214040741245L290.14341538461537,118.79019642512344L293.1345846153846,70.62462380098867L293.88237692307695,66.00578194071147L294.63016923076924,16.06873330863192L297.62133846153847,42.762472733450295L299.1169230769231,11.509027822624205L299.86471538461535,33.787522641856185L302.85588461538464,50.367176933243115L304.3514692307692,39.42386372771932L306.59484615384616,64.98084805933581L307.34263846153846,96.8566325485665L310.3338076923077,71.07110904671163L313.3249769230769,60.89177177168051L314.07276923076927,100.9313532531387L315.56835384615385,76.4658540956251L316.31614615384615,96.91494062425477L317.06393846153844,115.94071462563812L319.3073153846154,92.40069395872553L320.8029,102.18279415582174L323.79406923076925,128.10050831833465L325.28965384615384,140.440860267991L326.03744615384613,153.9183371583208L326.7852384615384,168.75801542948685L327.5330307692308,161.2725522299704L329.77640769230766,134.8333494421153L330.5242,149.15521392369413L332.76757692307694,112.82698070525498L334.26316153846153,125.48791467926557L337.25433076923076,117.78574123128709L338.7499153846154,146.2502402499779L343.9844615384616,161.9010190247384L345.48004615384616,143.29253629576237L346.97563076923075,156.14429336230086L354.45355384615385,163.24970626410385L355.20134615384615,155.99486460329362L356.69693076923073,179.146542768518L357.4447230769231,185.88562355914772L358.9403076923077,201.3832708716898L359.6881,156.0952443213564L362.67926923076925,159.37635674728324L364.17485384615384,178.7389757368631L364.92264615384613,181.60840214760094L367.1660230769231,178.33272263979194L367.91381538461536,185.68247490389086L370.1571923076923,196.5398566366589L370.90498461538465,205.076000292429L371.6527769230769,191.8069272671519L372.40056923076924,83.96899538297174L373.14836153846153,111.00306174010274L373.8961538461539,124.6534594404848L375.39173846153847,138.06466797258702L376.88732307692305,160.94859023307185L381.3740769230769,161.04689789942444L382.8696615384615,170.47555567925778L383.6174538461538,186.11058446054636L384.36524615384616,129.5848912420526L385.8608307692308,161.73162782571606L388.1042076923077,141.7280814201155L392.59096153846156,131.6127668977183L394.83433846153844,127.95616436484633L396.3299230769231,146.03705445912178L397.07771538461543,149.86559360811492L399.3210923076923,115.21725840242033L400.0688846153846,139.36933009124954L402.31226153846154,155.03435034590737L403.06005384615383,124.35547109474876L403.8078461538462,130.99955946628376L404.5556384615385,133.58820033410498L405.3034307692307,154.28518765838416L406.79901538461536,172.31967684961555L407.5468076923077,166.00375054150575L409.0423923076923,165.0047634074668L409.7901846153846,180.39837647514193L411.28576923076923,152.59592266906608L415.7725230769231,107.8150045079334L416.52031538461534,127.72409215786803L418.0159,125.922460009406L418.76369230769234,123.65209743161995L420.25927692307687,104.28708195511496L421.7548615384615,76.79118151524858L423.25044615384616,103.2141462291018L423.99823846153845,138.16122185784462L424.74603076923074,161.0268877712718L425.4938230769231,177.6448414538567L426.98940769230774,185.90329624925175L429.9805769230769,177.1489660160869L432.97174615384614,172.10987564461468L433.7195384615385,158.4677734815044L435.2151230769231,177.3451438421379L435.96291538461537,180.50604611828888L436.71070769230766,162.77406206285926L437.4585,162.85206946973776L438.2062923076923,155.28335814670544L446.4320076923077,134.8115370909041L448.67538461538464,165.80943518894244L449.42317692307694,175.17658112062875L450.17096923076923,178.38707249652438L451.6665538461538,194.83293158444636L452.41434615384617,191.16752864625352L453.16213846153846,188.9846221463386L455.4055153846154,165.5339164222482L456.9011,152.6139162608149L459.8922692307692,166.1924923521807L460.64006153846157,157.26914085249345L462.13564615384615,149.01003314097917L465.1268153846154,173.3902098738368L466.62239999999997,150.31958576863732L467.3701923076923,112.56138019423264L468.1179846153846,139.27143801578345L470.36136153846155,133.84169536692667L471.85694615384614,144.37827662120475L473.3525307692307,161.25821459682953L474.1003230769231,190.01192993833357L474.84811538461537,180.15463305245822L475.5959076923077,183.29367237672002L477.0914923076923,197.11274079191517L478.58707692307695,215.59862574901447L480.83045384615383,202.1604699608983L481.5782461538461,196.23103139140616L483.07383076923077,212.48589313299186L483.8216230769231,222.71391442037208L485.3172076923077,227.23363588743675L487.5605846153846,209.49457157844915L489.8039615384615,215.26608193870078L490.5517538461538,224.6849718467847L491.2995461538462,205.43249557625893L493.54292307692305,168.37770422467904L497.28188461538457,147.32747570808186L498.029676923077,119.33884948202336L498.77746923076927,95.36124763256998L501.7686384615385,90.67975521379066L502.5164307692308,122.33545588488064L503.26422307692303,138.35977251954623L505.5076,149.57362407547433L506.2553923076923,142.9993834026829L507.00318461538455,141.21203061168796L509.24656153846155,142.98791751245977L509.99435384615384,118.90376758559808L510.7421461538461,121.95434646593935L512.9855230769231,102.72341603269109L513.7333153846154,115.21069721166236L514.4811076923078,134.487256735833L515.9766923076924,132.65802266619326L518.2200692307692,163.047362901145L520.4634461538461,153.17737639536364L521.9590307692308,142.20408728591525L522.7068230769231,151.0200355996444L523.4546153846154,150.23598204054468L525.6979923076923,142.84196616012284L526.4457846153846,146.8356760922943L527.9413692307693,165.881926396201L530.1847461538462,173.52610457635714L532.428123076923,177.89367305594124L533.1759153846153,193.04956714000252L533.9237076923076,197.036026006428L536.1670846153846,193.01946175534533L536.9148769230769,155.39712658277355L537.6626692307692,156.21176218788787L538.4104615384616,168.07392718633784L539.1582538461538,161.0853424488765L539.9060461538461,183.27295106405117L540.6538384615384,138.20698792738992L541.4016307692308,122.98741570316378L542.1494230769231,138.5937243120084L545.8883846153847,122.33748979697305L546.6361769230768,142.75341155393664L548.8795538461538,166.69041203867388L550.3751384615384,176.41617941388282L552.6185153846154,199.57688571138218L554.1140999999999,206.25907549558508L555.6096846153846,211.58623736141863L559.3486461538462,150.50738157462072L560.0964384615385,177.11934755250607L560.8442307692308,178.48054635131194L561.592023076923,190.92670792026388L562.3398153846153,210.02197875724687L563.0876076923076,206.67823221005165L567.5743615384615,224.77451760047404L569.8177384615384,225.129877428005L570.5655307692307,230.52794129434415L572.8089076923077,226.50195999767928L576.5478692307693,227.3737445141995L578.0434538461539,229.69420126407337L580.2868307692307,228.20514188074264L581.0346230769231,218.54683718175247L582.5302076923077,216.44962174964394L583.278,176.0823115211522L584.0257923076923,192.7757798454599L587.0169615384615,196.4533304708351L587.7647538461539,203.09147258894836L589.2603384615385,211.2698398891862L591.5037153846154,196.19212909251655L592.2515076923077,208.43725327420398L593.7470923076922,192.30970872059L595.9904692307692,198.09802850973233L597.4860538461538,211.42670451316536L598.9816384615385,181.65873204639198L599.7294307692307,178.0210322417469L601.2250153846154,177.29371149362333L601.9728076923077,174.0365519247151L602.7206,171.63011154108813L603.4683923076923,156.3712704624619L606.4595615384616,177.44946851697648L607.2073538461538,192.10822656247683L608.7029384615385,211.62564916208322L609.4507307692307,205.35872487461515L614.6852769230769,176.71348260431247L618.4242384615385,200.06754869889227L619.1720307692308,211.66231248315975L620.6676153846154,224.4900982899412L624.406576923077,214.30699667318223L625.9021615384615,220.64434733973786L630.3889153846153,201.46805932511364L631.1367076923077,172.0431154440997L633.3800846153846,181.97095804779988L634.8756692307693,196.37217919325244L636.3712538461539,202.86870474652775L638.6146307692308,192.2637166344033L639.362423076923,198.24877242747198L640.8580076923076,215.0439540267249L642.3535923076923,226.91499848129433L643.1013846153846,241.5414253728555L644.5969692307692,242.82917046204938L645.3447615384615,220.28545231545553L646.0925538461538,184.74862945814598L647.5881384615385,205.76165841511622L649.0837230769231,216.41491723054037L649.8315153846154,211.12695827478873L650.5793076923077,214.85947980399692L651.3271000000001,200.9051867398879L655.0660615384616,201.71742307927303L657.3094384615384,201.59489173719163L659.5528153846153,199.7103197656383L661.0484,191.47786132751384L661.7961923076923,195.23163748787627L664.7873615384616,204.5824149330996L665.5351538461539,221.2257407610053L666.2829461538462,216.53984599148703L669.2741153846154,174.50918356446803L670.0219076923076,186.249526531445L670.7697,193.3084554441349L673.0130769230769,202.36340145409713L676.0042461538461,217.70714035940654L676.7520384615384,220.49889440784838L678.2476230769231,153.1820177193482L678.9954153846154,177.23552248326934L680.491,201.87593942342593L683.4821692307692,205.45796263979588L685.7255461538462,209.11444427384308L688.7167153846154,198.11069253932135L690.2122999999999,197.12167314967076L690.9600923076923,188.3127160531724L691.7078846153846,168.3560443768855L692.4556769230769,156.02311927874536L693.2034692307692,145.46379337946294L694.6990538461539,173.9682521262941L696.1946384615385,185.90376735044933L697.6902230769231,173.88503937970336L698.4380153846154,191.55560653051324L700.6813923076922,197.26052585951956L702.9247692307692,188.77067415088396L703.6725615384615,180.90795827841742L704.420353846154,194.52724009304032L705.9159384615384,201.30056068538656L706.6637307692307,142.4842287797851L711.1504846153847,147.8825470724998L713.3938615384615,112.85090345695005L714.8894461538462,137.6781897588919L716.3850307692308,160.00188868994317L717.8806153846155,154.72384953303975L719.3762,146.40066780888117L720.8717846153846,106.14759485120038L723.1151615384615,130.7911750411547L723.8629538461538,143.56127026363666L725.3585384615385,164.57627446996733L726.8541230769231,159.3748287800754L730.5930846153846,180.06860850602828L734.3320461538462,173.2520019042527L739.5665923076923,192.63512602472582L740.3143846153846,168.21212956924663L742.5577615384615,163.12486689583005L746.2967230769231,173.7973085585876L747.0445153846154,193.09465442448004L750.0356846153845,181.352360378497L750.7834769230769,181.3148701276725L754.5224384615385,188.96938132733862L755.2702307692308,197.40100915027267L758.2614,205.5656282726336L759.0091923076923,218.82475600031282L762.0003615384616,213.7686536223671L763.4959461538461,199.64728032835177L764.2437384615386,214.3591206434397L764.9915307692307,193.68332756066545L767.2349076923076,206.81991518540562L767.9827,213.51140852771903L768.7304923076923,214.73264347714348L769.4782846153846,217.81277545056474L770.9738692307693,226.12177581995113L772.4694538461538,236.95184926318635L773.9650384615384,230.00829024018853L774.7128307692308,235.38011366845774L778.4517923076924,227.2452635822424L779.947376923077,231.78230352860518L782.1907538461538,223.24822467694145L784.4341307692308,180.85728597743878L785.1819230769231,154.41970477186499L787.4253,167.72275053805396L788.1730923076923,177.07911824660528L788.9208846153846,128.0737015205783L789.6686769230769,144.81469816352225L791.1642615384616,159.52338807889063L791.9120538461539,172.35954555756442L792.6598461538462,185.0014324775266L794.9032230769232,182.53766257690808L796.3988076923076,189.3905270189239L797.1465999999999,193.48337271930325L797.8943923076923,143.01686203576367L798.6421846153846,159.94345743733436L799.3899769230769,187.74960870864223L800.1377692307692,210.90350190259795L800.8855615384616,215.91890167361723L802.3811461538462,215.40992249779882L803.1289384615384,205.89617241806175L804.6245230769231,216.71474223642653L805.3723153846154,187.87602829384093L806.1201076923077,206.34535356916814L807.6156923076924,210.63063548451922L809.8590692307693,228.5564901258251L810.6068615384614,225.6214258214395L812.1024461538461,238.20648477002467L813.5980307692307,230.2062969607074L815.0936153846154,185.09332800721793L815.8414076923077,207.6046066617224L818.8325769230769,223.13024245184687L821.8237461538462,235.26452572033426L822.5715384615385,247.52795657623307L823.3193307692308,240.80911399212278L824.0671230769232,247.68584520647366L825.5627076923076,246.14930753929963L832.2928384615385,250.0047292870168L833.0406307692307,248.7059588560966L835.2840076923077,245.2741682036326L838.275176923077,245.87892229784373L839.0229692307693,229.0501170033522L839.7707615384616,233.71707750752032L842.7619307692307,231.90963424360325L844.2575153846154,243.47279772452967L845.0053076923077,242.13927101129258L845.7531,225.5331231040475L846.5008923076923,214.48689486843085L847.9964769230769,211.98197851786406L849.4920615384615,228.89720880158256L852.4832307692308,242.61907045477636L853.9788153846155,232.37804111189848L856.2221923076922,218.58586534935003L856.9699846153845,155.79100730480965L857.7177769230769,151.90943214465946L863.7001153846153,151.5124754919193L868.1868692307693,134.2315240870779L868.9346615384616,145.39713717070146L869.6824538461539,168.84684762809212L871.1780384615384,194.06830953123995L872.673623076923,176.22592216780052L874.917,188.3718623761357L877.9081692307692,197.95285442622668L879.4037538461538,186.1257681143456L880.1515461538461,146.3950454626221L880.8993384615385,144.9021461275211L881.6471307692308,154.7261087987416L883.8905076923077,151.14173706321662L884.6383000000001,160.62823905109363L885.3860923076924,184.77274653958477L887.6294692307692,167.681324415582L889.8728461538461,185.34885663444004L890.6206384615385,153.20959551854295L892.8640153846154,172.32175730048309L893.6118076923076,182.64680329464824L899.5941461538462,192.13791416091087L900.3419384615385,182.83919461570076L901.0897307692308,209.59366280239337L901.837523076923,196.2498978408298L903.3331076923076,218.65212090270686L904.8286923076923,239.04909676949754L905.5764846153846,249.37261335464774L906.3242769230769,244.88859885861444L913.8022,241.09291428271905L916.0455769230769,244.26091892674742L916.7933692307691,257.5140072512045L921.2801230769231,245.06641460318681L922.0279153846154,245.9956232139215L924.2712923076923,241.32346687147978L925.0190846153846,213.89770806177427L927.2624615384616,234.77841499721185L928.0102538461539,231.16356342057526L929.5058384615385,230.93836493905496L931.0014230769231,215.38801199290046L931.7492153846154,222.69617854430587L935.4881769230769,230.4894531875794L936.2359692307692,232.06587599992312L936.9837615384615,241.8387101056541L937.7315538461539,248.90056242246348L938.4793461538461,256.4829586760117L939.2271384615384,254.34428706891643L940.7227230769231,258.0591953883752L942.2183076923077,242.3921182545173L943.7138923076923,254.16935819821737L944.4616846153847,254.0534077202255L945.209476923077,247.94141561309294L945.9572692307692,237.82343523915446L948.9484384615384,252.70596260252267L949.6962307692307,244.93088758327698L950.444023076923,234.43647473127155L951.1918153846154,246.75066346085472L951.9396076923077,260.8077625838431L953.4351923076923,263.79832821945445L957.9219461538462,241.8375221956579L960.9131153846154,252.48903378397688L962.4087,233.80973848939308L963.1564923076922,214.56759388637838L964.652076923077,193.59447446975946L969.1388307692307,191.7516668241329L971.3822076923077,198.13994478790815L974.373376923077,211.79383057641073L976.6167538461539,209.41852765311467L978.1123384615385,219.44789914313688L978.8601307692309,210.08700428822624L982.5990923076924,215.98289848501673L983.3468846153846,229.20825680800428L984.0946769230769,243.4890199548654L986.3380538461539,223.16001996570049L987.8336384615385,236.39336728591297L989.3292230769231,238.1665051781223L993.815976923077,226.2474739951361L995.3115615384615,236.02220828155427L996.8071461538461,238.1215878730595L999.050523076923,238.139129609313L1001.2939,240.364089811203L1002.7894846153846,241.10451164989243L1004.2850692307692,247.0839455497151L1005.0328615384616,249.18094920491262L1006.5284461538461,261.7977689156936L1008.0240307692306,268.5218617488946L1010.2674076923076,273.46488306085314L1011.0152,271.2051159931027L1011.7629923076922,275.51136686248014L1012.5107846153846,275.1802436021362L1013.258576923077,267.8259929821804L1014.0063692307691,262.37132192499763L1014.7541615384615,264.54211089092354L1015.5019538461539,276.1646239681769L1016.9975384615385,283.2157932071867L1019.9887076923077,273.22741558543703L1022.2320846153846,280.2218390476057L1022.979876923077,268.57298501104907L1023.7276692307692,254.6160004041258L1024.4754615384616,255.09950648360757L1025.2232538461537,263.54963337273045L1026.7188384615386,273.8806885586432L1028.2144230769231,270.52877789388117L1028.9622153846155,266.0669941218695L1029.7100076923077,270.1089211125772L1032.701176923077,261.2858739868483L1034.1967615384615,265.30711869602845L1034.9445538461537,255.41380713943994L1037.1879307692307,156.5806150322307L1042.422476923077,167.90074340384396L1043.9180615384616,182.3559817324574L1046.9092307692308,196.24281358921488L1047.657023076923,215.48849646015137L1048.4048153846152,218.55660880218483L1049.9004,222.76047916897565L1050.6481923076922,232.2488675251677L1053.6393615384616,231.99369970441455L1054.3871538461538,246.6434144713926L1055.8827384615386,239.0065493733444L1056.6305307692307,254.51094440525833L1058.1261153846153,259.6710968626028L1058.8739076923077,258.3225690732388L1061.865076923077,231.31653184970125L1062.6128692307693,242.7069855851325L1064.1084538461537,243.06996211388844L1064.856246153846,244.60716063363662L1066.3518307692307,194.73151891695113L1071.5863769230768,195.85113790644527L1074.5775461538462,208.8567995191679L1076.0731307692308,218.42569415458564L1077.5687153846154,233.51416797489742L1078.3165076923076,234.8754061663216L1079.0643,203.29624222946688L1082.0554692307692,210.9492159842056L1082.8032615384616,228.48606737423754L1083.5510538461538,220.98860228434256L1084.2988461538462,229.34681418240112L1087.2900153846153,242.09033720850977L1088.0378076923078,238.70666448402432L1089.5333923076923,244.71337817611715L1090.2811846153847,239.24834175111786L1092.5245615384615,218.2933797454988L1093.2723538461537,229.42524370480814L1094.7679384615383,215.49149250927957L1096.263523076923,222.6465384896071L1097.0113153846153,224.15788068258533L1098.5068999999999,183.69376265115557L1100.7502769230769,183.78229167943806L1101.4980692307693,196.89023058919597L1102.9936538461538,213.84274193691007L1103.7414461538463,196.2478673461818L1105.9848230769232,203.900253117382L1106.7326153846154,164.18328874134977L1107.4804076923078,183.97038933296167L1109.7237846153846,197.39471668926214L1110.4715769230768,216.19446010134484L1111.9671615384616,200.2657108365843L1112.7149538461538,192.21322615618303L1118.6972923076924,141.4422393455092L1122.436253846154,151.69320376030475L1123.184046153846,146.30366123765205L1124.6796307692307,174.89107540785866L1126.9230076923077,200.21228163969195L1128.4185923076923,209.426722171161L1129.1663846153847,221.4761496859816L1130.6619692307693,227.86495270157076L1131.4097615384615,217.392089619829L1132.1575538461539,186.2337761041274L1133.6531384615384,203.7742848489086L1134.4009307692309,222.4964225128015L1137.3921,232.87745091793695L1138.1398923076922,225.78805740259298L1138.8876846153846,234.85315612023837L1140.3832692307692,246.34351763777548L1141.8788538461538,234.01661848348468L1142.6266461538462,168.7123830264576L1144.870023076923,162.2837126450354L1145.6178153846154,182.07629315031483L1147.8611923076924,195.3023713785244L1148.6089846153848,201.25662489794357L1149.356776923077,212.01181496828923L1150.8523615384615,228.58048918366538L1153.0957384615385,242.81927483892522L1154.591323076923,219.0497602193839L1157.5824923076923,207.63117704147393L1158.3302846153845,197.7439521579289L1159.8258692307693,214.09221214877317L1161.3214538461539,223.10430604876478L1162.0692461538463,242.39767301906267L1165.8082076923079,241.90254103008206L1169.5471692307692,255.8171893595719L1171.790546153846,262.32323735766124L1172.5383384615384,250.73314106315382L1174.033923076923,176.91278376460085L1176.2773,198.518554476142L1177.7728846153846,207.82527193207747L1178.520676923077,211.4548540813065L1181.5118461538461,218.95251588442616L1183.0074307692307,229.27084333832016L1184.5030153846153,216.09760398574633L1188.9897692307693,236.13609034544598L1190.4853538461539,249.55992853622732L1191.9809384615385,262.74215875998016L1197.2154846153846,255.1235934649696L1197.963276923077,239.6558182600967L1199.4588615384614,226.49316382915433L1202.4500307692308,208.1322707693629L1203.197823076923,193.6871476778072L1205.4412,188.18714993069025L1206.1889923076924,172.19780787523155L1206.9367846153846,178.27729234453489L1208.4323692307692,188.72236773058933L1209.1801615384616,206.19649888026842L1209.927953846154,180.06568058290583L1210.6757461538461,203.62394325501523L1212.9191230769231,195.53706632905644L1213.6669153846153,180.06959532780203L1215.1625,201.14682022796276L1215.9102923076923,208.27837636126046L1217.405876923077,223.09863245926667L1218.153669230769,234.44359987729683L1221.892630769231,214.2849059085361L1222.640423076923,221.86538891039783L1225.6315923076925,201.97377415531872L1227.8749692307692,198.76262612767218L1228.6227615384614,213.38668803673744L1229.3705538461538,223.6490299685936L1230.8661384615384,228.1148985552105L1231.6139307692306,239.38317904192706L1236.848476923077,245.90261817231578L1239.8396461538462,232.5959438105806L1241.3352307692307,224.53799531621806L1242.8308153846156,203.07936952720542L1244.3264,206.57919115790096L1245.074192307692,204.82302537734006L1246.569776923077,228.480455606329L1248.813153846154,235.35167702368702L1249.560946153846,225.56418876116916L1250.3087384615385,189.68918527178326L1251.0565307692307,198.40540150016434L1254.7954923076923,207.88404264616878L1255.5432846153847,230.34568324863244L1256.291076923077,216.7799464001602L1257.0388692307693,230.49440451736024L1260.7778307692306,204.67763351817743L1263.0212076923076,213.22341814772142L1263.769,231.9136010299989L1265.2645846153846,238.77652756300515L1269.7513384615386,214.12208021423774L1271.2469230769232,235.63252980031814L1274.238092307692,240.43122905904647L1276.481469230769,248.2223250660467L1279.4726384615385,206.13724451805496L1280.2204307692307,205.98473130103224L1281.7160153846153,204.6230918044748L1283.9593923076923,198.28014577825084L1284.7071846153847,185.24349957624452L1286.2027692307693,211.11207356239854L1287.6983538461539,226.33429596968887L1292.1851076923076,243.89496049005507L1293.6806923076922,222.12048415914154L1294.4284846153846,219.63331954538802L1295.176276923077,231.233371314287L1298.9152384615386,235.47267290105805L1300.4108230769232,232.342741697235L1301.9064076923078,242.60743944581597L1302.6542000000002,232.54744191357491L1303.4019923076924,181.3819871536016L1304.1497846153845,55.062259816417736L1304.8975769230767,86.14795295658877L1305.6453692307691,124.79998048355714L1306.3931615384615,130.19827476112474L1307.8887461538461,154.69700849031156L1308.6365384615385,157.99381586293174L1311.6277076923077,186.75403634412916L1313.1232923076923,191.19656279646426L1314.6188769230769,187.75777087182257L1316.8622538461539,192.81057832694415L1317.6100461538463,215.02334854548266L1323.5923846153846,192.5045280499863L1326.5835538461538,212.3288370405521L1327.3313461538462,211.91229639330592L1328.8269307692308,233.47541656298708L1329.5747230769232,250.86265669651445L1331.0703076923078,260.5391174903521L1331.8181000000002,254.8183061163433L1332.5658923076924,250.12419847097453L1334.061476923077,248.9243324911313L1334.8092692307691,257.8409594617857L1335.5570615384615,258.0300390380679L1337.8004384615383,250.79928102159965L1340.0438153846153,257.6640642151393L1342.2871923076923,218.77973412395775L1343.7827769230769,214.12030812836696L1345.2783615384617,217.71867666035502L1346.7739461538463,205.41820264172242L1347.5217384615385,197.26648407230127L1348.2695307692309,166.70973767478742L1349.017323076923,189.22253268471937L1350.5129076923076,202.16014812796578L1352.0084923076922,219.5648661487044L1354.2518692307692,223.2600836938811L1354.9996615384616,237.63841754187686L1356.4952461538462,247.59718054226673L1357.2430384615384,248.28450586550738L1357.9908307692308,259.96969675344866L1358.7386230769232,261.89439860044035L1360.2342076923078,263.7196672801822L1360.982,247.26865819252725L1361.7297923076924,252.0165143561935L1362.4775846153848,251.492815729187L1363.225376923077,250.91616997417293L1364.7209615384613,250.5804713570792L1365.4687538461537,250.06696814725547L1366.9643384615383,256.1566206847012L1369.2077153846153,262.54581845079895L1369.9555076923077,271.65071879247853L1371.4510923076923,205.11887320216522L1372.946676923077,225.06808379360854L1373.6944692307693,216.7816520934806L1374.4422615384615,226.8980944399441L1376.6856384615385,236.08714018022255L1377.4334307692309,235.98771688346255L1378.181223076923,239.7396817446088L1379.6768076923076,217.80516454699318L1381.1723923076922,231.54902580179916L1381.9201846153846,236.7298136933497L1384.9113538461538,249.19634358754567L1385.6591461538462,254.26202944652886L1387.902523076923,263.8655516861808L1388.6503153846154,240.39266978970622L1392.389276923077,243.94266094582443L1393.1370692307694,220.26095890058807L1397.623823076923,191.0845980807442L1399.1194076923077,200.387383861486L1399.8672,210.51189654918025L1401.3627846153845,225.1289656150461L1402.110576923077,229.95135449672705L1402.8583692307693,245.2488313947516L1405.1017461538463,257.1654663560309L1408.840707692308,263.9117243043596L1410.3362923076922,261.4468008261533L1411.8318769230768,272.4767571211148L1412.5796692307692,276.3490554726353L1413.3274615384614,271.3901442914193L1415.5708384615384,275.6207929693846L1416.3186307692308,275.56340340321765L1418.5620076923078,239.4273221059283L1419.3098,252.96502031792323L1420.8053846153846,263.550279069218L1426.0399307692308,251.42202140352964L1434.265646153846,247.24138636558723L1435.0134384615385,248.37322211002882L1435.761230769231,253.92100131301544L1436.509023076923,252.1442238254425L1437.2568153846155,229.86990846499418L1441.7435692307693,220.48328044259242L1443.2391538461538,235.8602630614733L1444.7347384615384,160.38835445400045L1446.9781153846154,181.08037794515266L1447.7259076923076,205.16793294060048L1448.4737,197.50462730970239L1449.2214923076924,213.25683124062422L1449.9692846153846,227.59631531593803L1450.717076923077,224.79773688838964L1451.4648692307692,228.25225770891575L1452.2126615384616,240.76970904803963L1452.960453846154,237.3407723644312L1453.7082461538462,246.56701679539168L1455.951623076923,248.72268192181178L1457.4472076923075,259.318631041719L1458.195,271.2361503511059L1461.9339615384615,277.8479921495428L1463.429546153846,268.4423533420173L1465.672923076923,271.0506781014131L1466.4207153846155,227.39313380498302L1467.1685076923077,238.70496609869488L1467.9163,246.49784313490304L1469.4118846153847,254.2407158611243L1470.907469230769,252.59783064111275L1471.6552615384614,252.60879228340943L1474.6464307692306,252.9372668034026L1475.394223076923,233.96682513286186L1476.1420153846154,229.96041611853846L1476.8898076923076,241.05947348096856L1479.1331846153846,247.23213385040668L1479.880976923077,257.6320445507376L1480.6287692307692,247.04406995531787L1482.124353846154,241.38738268182172L1482.8721461538462,253.25973977697288L1484.3677307692308,214.49252928934413L1485.8633153846154,207.54586898201242L1486.6111076923075,222.23489014238942L1487.3589,204.41594229484264L1488.1066923076921,226.19005018945268L1489.602276923077,229.3955141045708L1491.0978615384615,246.96230722223189L1491.845653846154,245.3997349679825L1494.836823076923,251.76168286922433L1496.3324076923077,212.6261203775633L1497.8279923076923,229.10859973747162L1499.323576923077,245.24335644855998L1502.314746153846,258.26461414915246L1503.8103307692306,265.90262749729095L1504.558123076923,277.5009434926016L1506.0537076923076,276.68980130811553L1507.5492923076922,274.588772966544L1508.2970846153846,277.7333351843199L1510.5404615384616,219.76278590143852L1512.0360461538462,211.3609492697806L1512.7838384615386,205.23738458700902L1513.5316307692308,224.6573872144852L1515.0272153846154,218.75757414307864L1520.2617615384615,229.16329797074533L1523.2529307692307,237.94471784603866L1526.2441000000001,239.57742095527863L1527.7396846153847,228.45032833049947L1528.487476923077,226.4395075403075L1529.2352692307693,214.6542810410198L1529.9830615384615,223.82750914573163L1530.7308538461537,240.69884917699886L1532.9742307692306,238.49593321532882L1534.4698153846152,251.99835949183205L1535.2176076923076,262.9315331144388L1536.7131923076922,263.595290346007L1540.4521538461538,274.9902348108077L1541.1999461538462,280.9762423425503L1541.9477384615386,281.88446318027076L1544.1911153846154,280.8719884905552L1544.9389076923076,277.09574842479515L1547.1822846153846,277.3884040596222L1548.6778692307691,273.5358169581202L1551.6690384615385,263.1486651941703L1552.4168307692307,265.2801271414412L1553.9124153846153,273.09481849953755L1556.9035846153847,273.8887100611943L1557.651376923077,273.3347630933776L1559.1469615384617,282.16602996773355L1560.642546153846,253.9876098456926L1562.1381307692307,266.3647736587482L1562.885923076923,256.58486903733865L1563.6337153846152,268.0828812531778L1565.8770923076922,256.1404340594728L1566.6248846153846,178.2110972666517L1567.3726769230768,191.0700446338475L1570.3638461538462,198.69997807510853L1571.1116384615384,208.21988940173912L1572.6072230769232,214.80650664515917L1574.1028076923078,209.63375078159672L1574.8506,233.53557591527183L1576.3461846153846,248.1836227686364L1577.8417692307692,243.02248107680944L1578.5895615384616,257.0184495780012L1580.8329384615383,249.25978062416246L1583.0763153846153,262.1977517569274L1585.3196923076923,264.32327015711553L1586.0674846153847,250.77995585214046L1589.058653846154,265.545641310004L1589.8064461538463,262.1908045943479L1591.3020307692307,270.5460417905172L1593.5454076923077,279.16262042234104L1595.0409923076922,287.4677490554036L1596.5365769230768,260.2360633462096L1597.2843692307692,263.1308319687386L1598.0321615384617,274.0743212929002L1598.7799538461538,280.3357459907239L1600.2755384615384,284.8628664765362L1601.0233307692308,281.7773949804786L1601.7711230769232,224.33934981845886L1602.5189153846154,229.42309288162446L1603.2667076923078,245.37922276440028L1607.7534615384614,254.3419174006205L1609.2490461538462,260.33815173611015L1610.7446307692308,241.02213806951022L1611.4924230769232,249.54638734693506L1612.2402153846153,260.00718307085975L1613.7358,259.44177726179873L1616.7269692307693,268.63550675130296L1618.222553846154,260.2367134707483L1621.9615153846153,256.501265157645L1623.4570999999999,250.02105338921947L1627.9438538461538,263.11274082999074L1630.1872307692308,269.6275797251117L1631.6828153846154,182.22528088595485L1634.6739846153848,208.14305233165433L1636.1695692307692,225.72859390938132L1639.1607384615384,241.32136684150575L1639.9085307692308,255.15181734008453L1640.656323076923,264.5187879112789L1641.4041153846154,266.47409016350343L1647.386453846154,258.0405893719946L1648.8820384615385,269.2918230014447L1650.377623076923,280.91384993296595L1651.1254153846153,256.89119068226603L1652.6209999999999,260.42096001260586L1653.3687923076923,245.19158866686112L1657.1077538461539,240.47318117366223L1657.855546153846,252.29002387858222L1658.6033384615384,262.492084205443L1663.8378846153846,248.17117133163953L1667.576846153846,244.56137847442267L1670.5680153846154,259.27747650525043L1672.8113923076924,268.45277815227564L1675.0547692307694,269.7979388111023L1675.8025615384615,239.26771823352084L1681.7848999999999,234.877292853876L1683.2804846153845,228.94338644527122L1685.5238615384615,223.98851607626855L1686.2716538461539,234.20191789775038L1687.7672384615385,238.17800638364906L1691.5062,244.70385697712226L1695.2451615384616,248.03186938349185L1698.2363307692308,235.1899325862231L1698.984123076923,246.66909960029142L1700.4797076923076,260.3410417759825L1701.9752923076924,265.2572850663987L1704.2186692307691,236.67325454390266L1705.714253846154,239.85242161898788L1706.4620461538461,254.9088614970364L1707.957630769231,269.29749606146754L1709.4532153846155,275.87470866715387L1710.2010076923077,255.42018468360484L1710.9488,242.17122556909226L1712.4443846153845,256.06602745270175L1713.939969230769,264.12074655704055L1714.6877615384615,269.61577478378894L1715.4355538461539,258.519405355691L1716.183346153846,261.0628547474854L1717.6789307692306,265.5305537903398L1723.6612692307692,269.9634060133767L1725.904646153846,262.48742957268337L1726.6524384615384,266.3420279431675L1728.148023076923,273.6054931011465L1728.8958153846154,282.6241674414609L1731.8869846153846,285.5132148676184L1737.1215307692307,288.4514471948597L1738.6171153846155,295.2203048873308L1740.8604923076923,289.66125977900526L1741.6082846153845,280.1478648910276L1743.103869230769,276.43739883735594L1743.8516615384615,251.72450052606916L1746.0950384615385,260.66091886784915L1748.3384153846155,264.04414831897645L1750.5817923076922,262.17099538486025L1752.8251692307692,267.57043248447434L1754.3207538461538,278.8487873482319L1755.0685461538462,267.73681734463474L1755.8163384615384,257.9509871002905L1756.5641307692306,231.7923977849382L1757.311923076923,226.03626424292707L1761.798676923077,243.5056899401147L1763.2942615384616,257.55970301529555L1764.0420538461537,242.2016417090161L1764.7898461538462,242.4986927870165L1765.5376384615386,236.0055261423787L1769.2766000000001,247.32680547699135L1770.0243923076923,255.33340543281875L1770.7721846153847,256.5767052691924L1772.267769230769,257.33678290222065L1773.7633538461537,253.08265194872206L1774.511146153846,247.55488476021438L1775.2589384615385,256.8953736681807L1776.0067307692307,255.50812787684345L1776.754523076923,257.443223197242L1777.5023153846153,266.24620486218157L1779.7456923076923,270.24034569397315L1781.241276923077,278.5929372056106L1781.9890692307692,263.46161833157373L1782.7368615384617,272.8235542173205L1785.7280307692308,251.43881097992409" style="fill: none;" fill="none"></path></g></g></g></g><g opacity="0.2"><g><g><g><path stroke="rgb(255, 112, 67)" stroke-width="2px" d="M151.80183846153844,52.980714440345764L153.29742307692308,99.94561278820038L155.5408,14.445713639259338L156.2885923076923,-35.82338082790375L158.53196923076922,90.49487829208374L162.27093076923077,43.99388408660889L163.7665153846154,47.389734506607056L165.2621,132.17573046684265L167.5054769230769,76.83099746704102L169.74885384615385,32.57616448402405L171.24443846153846,128.667227268219L174.9834,66.64853811264038L175.7311923076923,82.77059268951416L176.4789846153846,122.97278702259064L177.22677692307693,-5.55558443069458L177.97456923076925,74.65008473396301L179.47015384615386,112.93170690536499L180.21794615384616,103.97711777687073L180.96573846153845,165.51358544826508L183.2091153846154,2.644704222679138L183.95690769230768,-8.772722482681274L186.20028461538462,-64.21082210540771L187.69586923076923,13.421046495437622L189.19145384615385,68.91984343528748L189.93924615384614,39.61045181751251L191.43483076923076,98.82523584365845L192.18262307692308,62.121541142463684L192.9304153846154,162.07465660572052L193.6782076923077,11.16199779510498L201.9039230769231,-61.46732139587402L204.1473,149.05356127023697L207.13846923076923,-9.219796299934387L210.12963846153843,159.4333770275116L210.87743076923076,92.49797987937927L211.62522307692308,-193.76836681365967L214.6163923076923,158.75698721408844L216.85976923076925,119.56999719142914L217.60756153846154,-121.66049480438232L220.59873076923077,99.08568906784058L222.8421076923077,78.23075330257416L225.08548461538462,36.49334943294525L228.07665384615385,93.77740001678467L228.82444615384617,51.3166526556015L229.57223846153846,147.39667546749115L230.32003076923078,168.77718150615692L234.8067846153846,139.93469059467316L236.30236923076924,232.67102122306824L240.78912307692306,124.37179934978485L243.7802923076923,144.0053649544716L246.02366923076923,84.42129385471344L248.26704615384614,138.85202980041504L249.0148384615385,293.11890538036823L250.51042307692305,160.86126226186752L252.7538,70.13870143890381L253.50159230769228,177.7314664721489L254.24938461538463,224.42651635408401L255.74496923076924,30.949886441230774L259.48393076923077,260.8406258225441L265.4662692307692,210.10374069213867L268.45743846153846,72.95055985450745L269.2052307692308,146.09595268964767L269.95302307692305,4.645034551620483L273.69198461538457,235.46429193019867L274.4397769230769,190.50003933906555L276.68315384615386,49.17158603668213L279.6743230769231,-300.0004777908325L280.4221153846154,131.98237323760986L281.1699076923077,134.84650254249573L284.16107692307696,177.23341727256775L284.9088692307692,145.47566395998L287.1522461538462,157.10266989469528L287.9000384615385,200.52205860614777L288.6478307692307,212.77108812332153L289.3956230769231,10.199064373970032L290.14341538461537,107.10242128372192L293.1345846153846,-122.03765630722046L293.88237692307695,47.530415296554565L294.63016923076924,-183.67945432662964L297.62133846153847,149.53742748498917L299.1169230769231,-113.50474905967712L299.86471538461535,122.90150034427643L302.85588461538464,116.68579316139221L304.3514692307692,-4.349388599395752L306.59484615384616,167.20878446102142L307.34263846153846,224.3597695827484L310.3338076923077,-32.07098436355591L313.3249769230769,20.17442286014557L314.07276923076927,261.0896785855293L315.56835384615385,-21.39614224433899L316.31614615384615,178.7112865447998L317.06393846153844,192.04381048679352L319.3073153846154,-1.7593885660171509L320.8029,141.311194896698L323.79406923076925,231.77136486768723L325.28965384615384,189.80226802825928L326.03744615384613,207.8282446861267L326.7852384615384,228.11672848463058L327.5330307692308,131.33069944381714L329.77640769230766,29.07653832435608L330.5242,206.44267183542252L332.76757692307694,-32.48595213890076L334.26316153846153,176.13165056705475L337.25433076923076,86.97704744338989L338.7499153846154,260.1082363128662L343.9844615384616,224.50413411855698L345.48004615384616,68.85860538482666L346.97563076923075,207.55132162570953L354.45355384615385,191.67135787010193L355.20134615384615,126.97549796104431L356.69693076923073,271.7532554268837L357.4447230769231,212.84194672107697L358.9403076923077,263.3738601207733L359.6881,-25.056861877441406L362.67926923076925,172.5008064508438L364.17485384615384,256.1894516944885L364.92264615384613,193.08610779047012L367.1660230769231,165.23000460863113L367.91381538461536,215.08148396015167L370.1571923076923,239.96938356757164L370.90498461538465,239.2205749154091L371.6527769230769,138.7306351661682L372.40056923076924,-347.38273215293884L373.14836153846153,219.13932716846466L373.8961538461539,179.25505024194717L375.39173846153847,191.70950210094452L376.88732307692305,252.4842792749405L381.3740769230769,161.4401285648346L382.8696615384615,208.19018679857254L383.6174538461538,248.6506995856762L384.36524615384616,-96.5178816318512L385.8608307692308,290.31857416033745L388.1042076923077,61.71389579772949L392.59096153846156,91.15150880813599L394.83433846153844,113.32975423336029L396.3299230769231,218.36061483621597L397.07771538461543,165.1797502040863L399.3210923076923,-23.37608242034912L400.0688846153846,235.97761684656143L402.31226153846154,217.69443136453629L403.06005384615383,1.6399540901184082L403.8078461538462,157.5759129524231L404.5556384615385,143.9427638053894L405.3034307692307,237.07313695549965L406.79901538461536,244.4576336145401L407.5468076923077,140.74004530906677L409.0423923076923,161.0088148713112L409.7901846153846,241.97282874584198L411.28576923076923,41.386107444763184L415.7725230769231,-71.30866813659668L416.52031538461534,207.3604427576065L418.0159,118.71593141555786L418.76369230769234,114.57064712047577L420.25927692307687,26.827020049095154L421.7548615384615,-33.19242024421692L423.25044615384616,208.90600508451462L423.99823846153845,277.9495243728161L424.74603076923074,252.48955142498016L425.4938230769231,244.11665618419647L426.98940769230774,218.9371154308319L429.9805769230769,142.13164508342743L432.97174615384614,151.95351415872574L433.7195384615385,103.89936482906342L435.2151230769231,252.85462528467178L435.96291538461537,193.14965522289276L436.71070769230766,91.84612584114075L437.4585,163.1640990972519L438.2062923076923,125.00851285457611L446.4320076923077,52.92425286769867L448.67538461538464,289.8010275810957L449.42317692307694,212.64516484737396L450.17096923076923,191.2290380001068L451.6665538461538,260.61636793613434L452.41434615384617,176.5059168934822L453.16213846153846,180.25299614667892L455.4055153846154,71.73109352588654L456.9011,100.93391561508179L459.8922692307692,220.50679671764374L460.64006153846157,121.5757348537445L462.13564615384615,115.97360229492188L465.1268153846154,270.91091680526733L466.62239999999997,58.037089347839355L467.3701923076923,-38.471442103385925L468.1179846153846,246.1116693019867L470.36136153846155,112.12272477149963L471.85694615384614,186.5246016383171L473.3525307692307,228.7779664993286L474.1003230769231,305.0267913043499L474.84811538461537,140.7254455089569L475.5959076923077,195.8498296737671L477.0914923076923,252.38901445269585L478.58707692307695,289.54216557741165L480.83045384615383,148.40784680843353L481.5782461538461,172.51327711343765L483.07383076923077,277.5053400993347L483.8216230769231,263.6259995698929L485.3172076923077,245.31252175569534L487.5605846153846,138.53831434249878L489.8039615384615,238.35212337970734L490.5517538461538,262.36053147912025L491.2995461538462,128.42259049415588L493.54292307692305,20.158538818359375L497.28188461538457,63.126561641693115L498.029676923077,7.384344577789307L498.77746923076927,-0.5491597652435303L501.7686384615385,71.9537855386734L502.5164307692308,248.95825856924057L503.26422307692303,202.45703905820847L505.5076,194.4290302991867L506.2553923076923,116.70242071151733L507.00318461538455,134.06261944770813L509.24656153846155,150.09146511554718L509.99435384615384,22.56716787815094L510.7421461538461,134.1566619873047L512.9855230769231,25.799694299697876L513.7333153846154,165.15982192754745L514.4811076923078,211.59349483251572L515.9766923076924,125.34108638763428L518.2200692307692,284.6047238409519L520.4634461538461,113.69743037223816L521.9590307692308,98.31093084812164L522.7068230769231,186.28382885456085L523.4546153846154,147.0997678041458L525.6979923076923,113.26590263843536L526.4457846153846,162.81051582098007L527.9413692307693,242.06692761182785L530.1847461538462,204.1028172969818L532.428123076923,195.3639469742775L533.1759153846153,253.6731434762478L533.9237076923076,212.98186147212982L536.1670846153846,176.9532047510147L536.9148769230769,4.907785892486572L537.6626692307692,159.47030460834503L538.4104615384616,215.52258718013763L539.1582538461538,133.13100349903107L539.9060461538461,272.02338552474976L540.6538384615384,-42.056864619255066L541.4016307692308,62.109126806259155L542.1494230769231,201.01895874738693L545.8883846153847,57.312551736831665L546.6361769230768,224.41709858179092L548.8795538461538,262.438413977623L550.3751384615384,215.31924891471863L552.6185153846154,292.2197109013796L554.1140999999999,232.9878346323967L555.6096846153846,232.8948848247528L559.3486461538462,-93.8080415725708L560.0964384615385,283.56721146404743L560.8442307692308,183.9253415465355L561.592023076923,240.71135419607162L562.3398153846153,286.40306210517883L563.0876076923076,193.30324602127075L567.5743615384615,297.15965916216373L569.8177384615384,226.55131673812866L570.5655307692307,252.12019675970078L572.8089076923077,210.3980348110199L576.5478692307693,230.8608825802803L578.0434538461539,238.97602826356888L580.2868307692307,222.24890434741974L581.0346230769231,179.91361838579178L582.5302076923077,208.06076002120972L583.278,14.613070607185364L584.0257923076923,259.54965314269066L587.0169615384615,211.16353297233582L587.7647538461539,229.64404106140137L589.2603384615385,243.98330909013748L591.5037153846154,135.881285905838L592.2515076923077,257.4177500009537L593.7470923076922,127.79953050613403L595.9904692307692,221.25130766630173L597.4860538461538,264.74140852689743L598.9816384615385,62.5868421792984L599.7294307692307,163.47023302316666L601.2250153846154,174.38442850112915L601.9728076923077,161.00791364908218L602.7206,162.00435000658035L603.4683923076923,95.33590614795685L606.4595615384616,261.76226073503494L607.2073538461538,250.74325874447823L608.7029384615385,289.6953395605087L609.4507307692307,180.2910277247429L614.6852769230769,62.13251352310181L618.4242384615385,293.4838130772114L619.1720307692308,258.0413676202297L620.6676153846154,275.80124151706696L624.406576923077,173.57459020614624L625.9021615384615,245.99375000596046L630.3889153846153,124.76290726661682L631.1367076923077,54.343339920043945L633.3800846153846,221.6823284626007L634.8756692307693,253.97706377506256L636.3712538461539,228.85480695962906L638.6146307692308,149.84376418590546L639.362423076923,222.1889955997467L640.8580076923076,282.2246804237366L642.3535923076923,274.399176299572L643.1013846153846,300.04713293910027L644.5969692307692,247.98015081882477L645.3447615384615,130.1105797290802L646.0925538461538,42.601338028907776L647.5881384615385,289.81377424299717L649.0837230769231,259.0279524922371L649.8315153846154,189.97512245178223L650.5793076923077,229.78956592082977L651.3271000000001,145.08801448345184L655.0660615384616,204.96636843681335L657.3094384615384,201.10476636886597L659.5528153846153,192.17203187942505L661.0484,158.54802757501602L661.7961923076923,210.24674212932587L664.7873615384616,241.98552471399307L665.5351538461539,287.799044072628L666.2829461538462,197.796266913414L669.2741153846154,6.386533856391907L670.0219076923076,233.21089839935303L670.7697,221.5441710948944L673.0130769230769,238.58318549394608L676.0042461538461,279.0820959806442L676.7520384615384,231.6659106016159L678.2476230769231,-116.08548903465271L678.9954153846154,273.4495415389538L680.491,300.43760718405247L683.4821692307692,219.78605550527573L685.7255461538462,223.7403708100319L688.7167153846154,154.09568560123444L690.2122999999999,193.16559559106827L690.9600923076923,153.0768876671791L691.7078846153846,88.52935767173767L692.4556769230769,106.69141888618469L693.2034692307692,103.22648978233337L694.6990538461539,287.98608711361885L696.1946384615385,233.6458282470703L697.6902230769231,125.81012749671936L698.4380153846154,262.2378751337528L700.6813923076922,220.08020317554474L702.9247692307692,154.8112673163414L703.6725615384615,149.45709478855133L704.420353846154,249.00436735153198L705.9159384615384,228.39384305477142L706.6637307692307,-92.78109884262085L711.1504846153847,169.4758202433586L713.3938615384615,-27.275671005249023L714.8894461538462,236.98733496665955L716.3850307692308,249.29668441414833L717.8806153846155,133.61169290542603L719.3762,113.1079409122467L720.8717846153846,-54.864696979522705L723.1151615384615,229.36549580097198L723.8629538461538,194.64165115356445L725.3585384615385,248.63629129529L726.8541230769231,138.5690460205078L730.5930846153846,262.84372740983963L734.3320461538462,145.98557549715042L739.5665923076923,270.1676225066185L740.3143846153846,70.52014374732971L742.5577615384615,142.7758162021637L746.2967230769231,216.48707520961761L747.0445153846154,270.2840378880501L750.0356846153845,134.38318419456482L750.7834769230769,181.1649091243744L754.5224384615385,219.58742612600327L755.2702307692308,231.12752044200897L758.2614,238.22410476207733L759.0091923076923,271.8612669110298L762.0003615384616,193.54424411058426L763.4959461538461,143.16178715229034L764.2437384615386,273.2064819037914L764.9915307692307,110.98015522956848L767.2349076923076,259.3662656843662L767.9827,240.27738189697266L768.7304923076923,219.6175832748413L769.4782846153846,230.13330334424973L770.9738692307693,259.3577772974968L772.4694538461538,280.2721430361271L773.9650384615384,202.23405414819717L774.7128307692308,256.8674073815346L778.4517923076924,194.70586323738098L779.947376923077,249.9304633140564L782.1907538461538,189.11190927028656L784.4341307692308,11.2935311794281L785.1819230769231,48.6693799495697L787.4253,220.9349336028099L788.1730923076923,214.50458908081055L788.9208846153846,-67.94796538352966L789.6686769230769,211.77868473529816L791.1642615384616,218.35814774036407L791.9120538461539,223.70417547225952L792.6598461538462,235.56898015737534L794.9032230769232,172.6825829744339L796.3988076923076,216.8019847869873L797.1465999999999,209.85475552082062L797.8943923076923,-58.849180698394775L798.6421846153846,227.64983904361725L799.3899769230769,298.9742137938738L800.1377692307692,303.519074678421L800.8855615384616,235.98050075769424L802.3811461538462,213.37400579452515L803.1289384615384,167.84117209911346L804.6245230769231,259.9890215098858L805.3723153846154,72.52117252349854L806.1201076923077,280.2226546704769L807.6156923076924,227.77176314592361L809.8590692307693,300.2599086910486L810.6068615384614,213.8811686038971L812.1024461538461,288.5467205643654L813.5980307692307,198.20554572343826L815.0936153846154,4.641452193260193L815.8414076923077,297.64972127974033L818.8325769230769,285.23278561234474L821.8237461538462,283.80165879428387L822.5715384615385,296.58167999982834L823.3193307692308,213.9337436556816L824.0671230769232,275.1927700638771L825.5627076923076,240.00315687060356L832.2928384615385,265.42641627788544L833.0406307692307,243.51087713241577L835.2840076923077,231.5470055937767L838.275176923077,248.29793867468834L839.0229692307693,161.73489582538605L839.7707615384616,252.3849195241928L842.7619307692307,224.67986118793488L844.2575153846154,289.7254516482353L845.0053076923077,236.80516415834427L845.7531,159.10853147506714L846.5008923076923,170.30198192596436L847.9964769230769,201.96231311559677L849.4920615384615,296.5581299364567L852.4832307692308,297.5065170675516L853.9788153846155,191.41392374038696L856.2221923076922,163.4171622991562L856.9699846153845,-95.38842487335205L857.7177769230769,136.38313150405884L863.7001153846153,149.92464888095856L868.1868692307693,65.1077184677124L868.9346615384616,190.05958950519562L869.6824538461539,262.64568945765495L871.1780384615384,294.95415714383125L872.673623076923,104.85637271404266L874.917,236.95562320947647L877.9081692307692,236.27682262659073L879.4037538461538,138.8174228668213L880.1515461538461,-12.52784514427185L880.8993384615385,138.930548787117L881.6471307692308,194.0219594836235L883.8905076923077,136.80425012111664L884.6383000000001,198.57424700260162L885.3860923076924,281.35077649354935L887.6294692307692,99.31563591957092L889.8728461538461,256.01898550987244L890.6206384615385,24.65255105495453L892.8640153846154,248.77040442824364L893.6118076923076,223.9469872713089L899.5941461538462,230.1023576259613L900.3419384615385,145.64431643486023L901.0897307692308,316.6115355491638L901.837523076923,142.8748379945755L903.3331076923076,308.26101315021515L904.8286923076923,320.63700023666024L905.5764846153846,290.6666796952486L906.3242769230769,226.9525408744812L913.8022,225.91017597913742L916.0455769230769,256.932937502861L916.7933692307691,310.5263605490327L921.2801230769231,195.27604401111603L922.0279153846154,249.71245765686035L924.2712923076923,222.6348415017128L925.0190846153846,104.19467282295227L927.2624615384616,318.3012427389622L928.0102538461539,216.70415711402893L929.5058384615385,230.03757101297379L931.0014230769231,153.18660020828247L931.7492153846154,251.92884474992752L935.4881769230769,261.6625517606735L936.2359692307692,238.3715672492981L936.9837615384615,280.9300465285778L937.7315538461539,277.1479716897011L938.4793461538461,286.8125436902046L939.2271384615384,245.78960064053535L940.7227230769231,272.9188286662102L942.2183076923077,179.7238097190857L943.7138923076923,301.2783179730177L944.4616846153847,253.58960580825806L945.209476923077,223.49344718456268L945.9572692307692,197.35151374340057L948.9484384615384,312.23607205599546L949.6962307692307,213.83058750629425L950.444023076923,192.45882332324982L951.1918153846154,296.0074183791876L951.9396076923077,317.0361590757966L953.4351923076923,275.76059076189995L957.9219461538462,153.9942981004715L960.9131153846154,295.0950801372528L962.4087,159.09255731105804L963.1564923076922,137.59901547431946L964.652076923077,109.70199680328369L969.1388307692307,184.38043624162674L971.3822076923077,223.6930566430092L974.373376923077,266.40937373042107L976.6167538461539,199.91731595993042L978.1123384615385,259.5653851032257L978.8601307692309,172.64342486858368L982.5990923076924,239.56647527217865L983.3468846153846,282.1096900999546L984.0946769230769,300.61207254230976L986.3380538461539,141.84402000904083L987.8336384615385,289.3267565667629L989.3292230769231,245.2590567469597L993.815976923077,178.57134926319122L995.3115615384615,275.121145427227L996.8071461538461,246.51910623908043L999.050523076923,238.209296554327L1001.2939,249.26393061876297L1002.7894846153846,244.06619900465012L1004.2850692307692,271.0016811490059L1005.0328615384616,257.56896382570267L1006.5284461538461,312.2650477588177L1008.0240307692306,295.4182330816984L1010.2674076923076,293.2369683086872L1011.0152,262.1660477221012L1011.7629923076922,292.73637033998966L1012.5107846153846,273.8557505607605L1013.258576923077,238.40899050235748L1014.0063692307691,240.55263769626617L1014.7541615384615,273.2252667546272L1015.5019538461539,322.65467627719045L1016.9975384615385,311.4204701632261L1019.9887076923077,233.27390509843826L1022.2320846153846,308.1995328962803L1022.979876923077,221.9775688648224L1023.7276692307692,198.7880619764328L1024.4754615384616,257.03353080153465L1025.2232538461537,297.3501409292221L1026.7188384615386,315.20490930229425L1028.2144230769231,257.12113523483276L1028.9622153846155,248.219859033823L1029.7100076923077,286.276629075408L1032.701176923077,225.9936854839325L1034.1967615384615,281.3920975327492L1034.9445538461537,215.84056091308594L1037.1879307692307,-238.75215339660645L1042.422476923077,213.18125689029694L1043.9180615384616,240.17693504691124L1046.9092307692308,251.7901410162449L1047.657023076923,292.47122794389725L1048.4048153846152,230.8290581703186L1049.9004,239.57596063613892L1050.6481923076922,270.2024209499359L1053.6393615384616,230.97302842140198L1054.3871538461538,305.24227353930473L1055.8827384615386,208.45908898115158L1056.6305307692307,316.52852453291416L1058.1261153846153,280.31170669198036L1058.8739076923077,252.92845791578293L1061.865076923077,123.29238295555115L1062.6128692307693,288.2688005268574L1064.1084538461537,244.52186822891235L1064.856246153846,250.75595471262932L1066.3518307692307,-4.771047949790955L1071.5863769230768,200.32961386442184L1074.5775461538462,260.87944597005844L1076.0731307692308,256.70127269625664L1077.5687153846154,293.8680632561445L1078.3165076923076,240.32035893201828L1079.0643,76.97958648204803L1082.0554692307692,241.56111100316048L1082.8032615384616,298.6334729343653L1083.5510538461538,190.99874192476273L1084.2988461538462,262.7796617746353L1087.2900153846153,293.0644293129444L1088.0378076923078,225.17197358608246L1089.5333923076923,268.7402329444885L1090.2811846153847,217.38819605112076L1092.5245615384615,134.47353172302246L1093.2723538461537,273.9526995420456L1094.7679384615383,159.75648772716522L1096.263523076923,251.26672241091728L1097.0113153846153,230.2032494544983L1098.5068999999999,21.8372905254364L1100.7502769230769,184.1364077925682L1101.4980692307693,249.32198622822762L1102.9936538461538,281.6527873277664L1103.7414461538463,125.86836898326874L1105.9848230769232,234.50979620218277L1106.7326153846154,5.315431237220764L1107.4804076923078,263.1187916994095L1109.7237846153846,251.0920261144638L1110.4715769230768,291.39343374967575L1111.9671615384616,136.55071377754211L1112.7149538461538,160.00328743457794L1118.6972923076924,-61.64170789718628L1122.436253846154,192.697061419487L1123.184046153846,124.74549114704132L1124.6796307692307,289.24073208868504L1126.9230076923077,301.4971065670252L1128.4185923076923,246.28448429703712L1129.1663846153847,269.67385974526405L1130.6619692307693,253.42016476392746L1131.4097615384615,175.50063729286194L1132.1575538461539,61.6005220413208L1133.6531384615384,273.93631982803345L1134.4009307692309,297.3849731683731L1137.3921,274.40156453847885L1138.1398923076922,197.43048334121704L1138.8876846153846,271.11355099081993L1140.3832692307692,292.3049637079239L1141.8788538461538,184.70902186632156L1142.6266461538462,-92.504558801651L1144.870023076923,136.56903111934662L1145.6178153846154,261.2466151714325L1147.8611923076924,248.20668429136276L1148.6089846153848,225.07363897562027L1149.356776923077,255.03257524967194L1150.8523615384615,294.85518604516983L1153.0957384615385,299.77441745996475L1154.591323076923,123.97170174121857L1157.5824923076923,161.95684432983398L1158.3302846153845,158.19505262374878L1159.8258692307693,279.4852521121502L1161.3214538461539,259.15268164873123L1162.0692461538463,319.57114090025425L1165.8082076923079,239.92201307415962L1169.5471692307692,311.47578267753124L1171.790546153846,288.3474293500185L1172.5383384615384,204.3727558851242L1174.033923076923,-118.3686454296112L1176.2773,284.94163732230663L1177.7728846153846,245.05214175581932L1178.520676923077,225.97318267822266L1181.5118461538461,248.94316309690475L1183.0074307692307,270.54415315389633L1184.5030153846153,163.4046465754509L1188.9897692307693,316.29003578424454L1190.4853538461539,303.25528129935265L1191.9809384615385,315.4710796549916L1197.2154846153846,224.64933228492737L1197.963276923077,177.78471744060516L1199.4588615384614,173.84254610538483L1202.4500307692308,134.68869853019714L1203.197823076923,135.90665531158447L1205.4412,166.1871589422226L1206.1889923076924,108.2404396533966L1206.9367846153846,202.59523022174835L1208.4323692307692,230.50266927480698L1209.1801615384616,276.09302347898483L1209.927953846154,75.5424073934555L1210.6757461538461,297.85699394345284L1212.9191230769231,163.18955862522125L1213.6669153846153,118.19971132278442L1215.1625,285.45571982860565L1215.9102923076923,236.80460089445114L1217.405876923077,282.37965685129166L1218.153669230769,279.8234695494175L1221.892630769231,133.65013003349304L1222.640423076923,252.18732091784477L1225.6315923076925,122.40731513500214L1227.8749692307692,185.91803401708603L1228.6227615384614,271.8829356729984L1229.3705538461538,264.6983976960182L1230.8661384615384,245.97837290167809L1231.6139307692306,284.4563009887934L1236.848476923077,271.98037469387054L1239.8396461538462,179.36924636363983L1241.3352307692307,192.306201338768L1242.8308153846156,117.24486637115479L1244.3264,220.57847768068314L1245.074192307692,197.79836225509644L1246.569776923077,323.11017652228475L1248.813153846154,262.83656269311905L1249.560946153846,186.41423571109772L1250.3087384615385,46.1891713142395L1251.0565307692307,233.27026641368866L1254.7954923076923,245.79860723018646L1255.5432846153847,320.1922456584871L1256.291076923077,162.51699900627136L1257.0388692307693,285.3522369861603L1260.7778307692306,101.41054952144623L1263.0212076923076,247.40655666589737L1263.769,306.67433255910873L1265.2645846153846,266.2282336950302L1269.7513384615386,115.50429081916809L1271.2469230769232,321.67432814463973L1274.238092307692,259.6260260939598L1276.481469230769,279.38670909404755L1279.4726384615385,37.79692232608795L1280.2204307692307,205.37467843294144L1281.7160153846153,199.17653381824493L1283.9593923076923,172.9083616733551L1284.7071846153847,133.096914768219L1286.2027692307693,314.58636950701475L1287.6983538461539,287.22318559885025L1292.1851076923076,314.13761857151985L1293.6806923076922,135.02257883548737L1294.4284846153846,209.684661090374L1295.176276923077,277.63357838988304L1298.9152384615386,252.42987924814224L1300.4108230769232,219.82301688194275L1301.9064076923078,283.66623044013977L1302.6542000000002,192.30745178461075L1303.4019923076924,-23.279831886291504L1304.1497846153845,-450.2166495323181L1304.8975769230767,210.49072551727295L1305.6453692307691,279.40809059143066L1306.3931615384615,151.7914518713951L1307.8887461538461,252.69194340705872L1308.6365384615385,171.18104535341263L1311.6277076923077,301.794918268919L1313.1232923076923,208.96666860580444L1314.6188769230769,174.00260317325592L1316.8622538461539,213.02180814743042L1317.6100461538463,303.8744294196367L1323.5923846153846,102.4292460680008L1326.5835538461538,291.62607300281525L1327.3313461538462,210.2461338043213L1328.8269307692308,319.7278972417116L1329.5747230769232,320.41161723062396L1331.0703076923078,299.2449606657028L1331.8181000000002,231.93506062030792L1332.5658923076924,231.34776788949966L1334.061476923077,244.12486857175827L1334.8092692307691,293.50746734440327L1335.5570615384615,258.78635734319687L1337.8004384615383,221.87624895572662L1340.0438153846153,285.12319698929787L1342.2871923076923,63.24241375923157L1343.7827769230769,195.48260414600372L1345.2783615384617,232.1121507883072L1346.7739461538463,156.21630656719208L1347.5217384615385,164.6596097946167L1348.2695307692309,44.482752084732056L1349.017323076923,279.27371272444725L1350.5129076923076,253.91060990095139L1352.0084923076922,289.18373823165894L1354.2518692307692,238.040953874588L1354.9996615384616,295.1517529338598L1356.4952461538462,287.4322325438261L1357.2430384615384,251.03380715847015L1357.9908307692308,306.7104603052139L1358.7386230769232,269.59320598840714L1360.2342076923078,271.0207419991493L1360.982,181.4646218419075L1361.7297923076924,271.00793901085854L1362.4775846153848,249.3980212211609L1363.225376923077,248.60958695411682L1364.7209615384613,249.2376768887043L1365.4687538461537,248.0129553079605L1366.9643384615383,280.5152308344841L1369.2077153846153,288.1026095151901L1369.9555076923077,308.07032015919685L1371.4510923076923,-61.008509159088135L1372.946676923077,304.86492615938187L1373.6944692307693,183.63592529296875L1374.4422615384615,267.36386382579803L1376.6856384615385,272.84332314133644L1377.4334307692309,235.59002369642258L1378.181223076923,254.74754118919373L1379.6768076923076,130.06709575653076L1381.1723923076922,286.524470821023L1381.9201846153846,257.452965259552L1384.9113538461538,299.06246316432953L1385.6591461538462,274.52477288246155L1387.902523076923,302.27964064478874L1388.6503153846154,146.50114220380783L1392.389276923077,258.14262557029724L1393.1370692307694,125.53415071964264L1397.623823076923,74.37915480136871L1399.1194076923077,237.5985269844532L1399.8672,251.00994729995728L1401.3627846153845,283.5972418785095L1402.110576923077,249.24091002345085L1402.8583692307693,306.4387389868498L1405.1017461538463,304.83200620114803L1408.840707692308,290.89675609767437L1410.3362923076922,251.58710691332817L1411.8318769230768,316.596582300961L1412.5796692307692,291.8382488787174L1413.3274615384614,251.55449956655502L1415.5708384615384,292.5433876812458L1416.3186307692308,275.3338451385498L1418.5620076923078,94.88299691677094L1419.3098,307.1158131659031L1420.8053846153846,305.8913140743971L1426.0399307692308,202.90899074077606L1434.265646153846,230.5188462138176L1435.0134384615385,252.90056508779526L1435.761230769231,276.11211812496185L1436.509023076923,245.03711387515068L1437.2568153846155,140.772647023201L1441.7435692307693,182.93676835298538L1443.2391538461538,297.36819353699684L1444.7347384615384,-141.4992799758911L1446.9781153846154,263.84847190976143L1447.7259076923076,301.5181529223919L1448.4737,166.85140478610992L1449.2214923076924,276.2656469643116L1449.9692846153846,284.9542516171932L1450.717076923077,213.60342317819595L1451.4648692307692,242.0703409910202L1452.2126615384616,290.8395144045353L1452.960453846154,223.62502562999725L1453.7082461538462,283.4719945192337L1455.951623076923,257.34534242749214L1457.4472076923075,301.702427521348L1458.195,318.90622758865356L1461.9339615384615,304.29535934329033L1463.429546153846,230.8197981119156L1465.672923076923,281.4839771389961L1466.4207153846155,52.762956619262695L1467.1685076923077,283.9522952735424L1467.9163,277.66935127973557L1469.4118846153847,285.21220676600933L1470.907469230769,246.02628976106644L1471.6552615384614,252.65263885259628L1474.6464307692306,254.25116488337517L1475.394223076923,158.08505845069885L1476.1420153846154,213.93478006124496L1476.8898076923076,285.45570293068886L1479.1331846153846,271.92277532815933L1479.880976923077,299.2316873520613L1480.6287692307692,204.69217157363892L1482.124353846154,218.76063358783722L1482.8721461538462,300.7491681575775L1484.3677307692308,59.42368733882904L1485.8633153846154,179.75922775268555L1486.6111076923075,280.9909747838974L1487.3589,133.14015090465546L1488.1066923076921,313.28648176789284L1489.602276923077,242.21736976504326L1491.0978615384615,317.22947969287634L1491.845653846154,239.14944595098495L1494.836823076923,277.20947447419167L1496.3324076923077,56.08387041091919L1497.8279923076923,295.03851717710495L1499.323576923077,309.78238329291344L1502.314746153846,310.34964495152235L1503.8103307692306,296.4546808898449L1504.558123076923,323.8942074738443L1506.0537076923076,273.44523257017136L1507.5492923076922,266.1846596002579L1508.2970846153846,290.31158405542374L1510.5404615384616,-12.11941123008728L1512.0360461538462,177.7536027431488L1512.7838384615386,180.7431258559227L1513.5316307692308,302.33739772439003L1515.0272153846154,195.1583218574524L1520.2617615384615,270.7861932814121L1523.2529307692307,273.07039734721184L1526.2441000000001,246.10823339223862L1527.7396846153847,183.94195783138275L1528.487476923077,218.3962243795395L1529.2352692307693,167.51337504386902L1529.9830615384615,260.520421564579L1530.7308538461537,308.18420930206776L1532.9742307692306,229.68426936864853L1534.4698153846152,306.0080645978451L1535.2176076923076,306.664227604866L1536.7131923076922,266.25031927227974L1540.4521538461538,320.5700126700103L1541.1999461538462,304.92027246952057L1541.9477384615386,285.5173465311527L1544.1911153846154,276.82208973169327L1544.9389076923076,261.9907881617546L1547.1822846153846,278.55902659893036L1548.6778692307691,258.1254685521126L1551.6690384615385,221.6000581383705L1552.4168307692307,273.8059749305248L1553.9124153846153,304.3535839319229L1556.9035846153847,277.0642763078213L1557.651376923077,271.11897522211075L1559.1469615384617,317.4910974651575L1560.642546153846,141.2739293575287L1562.1381307692307,315.8734289109707L1562.885923076923,217.4652505517006L1563.6337153846152,314.07493011653423L1565.8770923076922,208.3706452846527L1566.6248846153846,-133.50624990463257L1567.3726769230768,242.50583410263062L1570.3638461538462,229.21971184015274L1571.1116384615384,246.2995347082615L1572.6072230769232,241.15297561883926L1574.1028076923078,188.9427273273468L1574.8506,329.1428764499724L1576.3461846153846,306.7758101820946L1577.8417692307692,222.37791430950165L1578.5895615384616,313.00232358276844L1580.8329384615383,218.22510480880737L1583.0763153846153,313.94963628798723L1585.3196923076923,272.8253437578678L1586.0674846153847,196.6066986322403L1589.058653846154,324.60838314145803L1589.8064461538463,248.77145773172379L1591.3020307692307,303.96699057519436L1593.5454076923077,313.62893494963646L1595.0409923076922,320.68826358765364L1596.5365769230768,151.30932050943375L1597.2843692307692,274.7099064588547L1598.0321615384617,317.8482785895467L1598.7799538461538,305.38144478201866L1600.2755384615384,302.9713484197855L1601.0233307692308,269.43550899624825L1601.7711230769232,-5.412830829620361L1602.5189153846154,249.75806513428688L1603.2667076923078,309.2037422955036L1607.7534615384614,290.1926959455013L1609.2490461538462,284.32308907806873L1610.7446307692308,163.7580834031105L1611.4924230769232,283.6433844566345L1612.2402153846153,301.85036596655846L1613.7358,257.18015402555466L1616.7269692307693,305.41042470932007L1618.222553846154,226.64154034852982L1621.9615153846153,241.55947190523148L1623.4570999999999,224.10020631551743L1627.9438538461538,315.47949059307575L1630.1872307692308,295.6869353055954L1631.6828153846154,-167.3839144706726L1634.6739846153848,311.81413811445236L1636.1695692307692,296.07076022028923L1639.1607384615384,303.6924585700035L1639.9085307692308,310.4736193343997L1640.656323076923,301.98667019605637L1641.4041153846154,274.2952991724014L1647.386453846154,224.30658620595932L1648.8820384615385,314.29675751924515L1650.377623076923,327.4019576590508L1651.1254153846153,160.80055367946625L1652.6209999999999,274.5400373339653L1653.3687923076923,184.27410328388214L1657.1077538461539,221.5995512008667L1657.855546153846,299.5573946982622L1658.6033384615384,303.30032551288605L1663.8378846153846,190.88751983642578L1667.576846153846,230.12220704555511L1670.5680153846154,318.1418686285615L1672.8113923076924,305.1539847403765L1675.0547692307694,275.1785814464092L1675.8025615384615,117.14683592319489L1681.7848999999999,217.31559133529663L1683.2804846153845,205.20776081085205L1685.5238615384615,204.16903460025787L1686.2716538461539,275.0555251836777L1687.7672384615385,254.0823603272438L1691.5062,270.8072593510151L1695.2451615384616,261.34391900897026L1698.2363307692308,183.82218539714813L1698.984123076923,292.5857676565647L1700.4797076923076,315.0288104787469L1701.9752923076924,284.9222582280636L1704.2186692307691,122.33713245391846L1705.714253846154,252.5690899193287L1706.4620461538461,315.1346210092306L1707.957630769231,326.85203431919217L1709.4532153846155,302.18355908989906L1710.2010076923077,173.60208874940872L1710.9488,189.17538911104202L1712.4443846153845,311.6452349871397L1713.939969230769,296.33962297439575L1714.6877615384615,291.59588769078255L1715.4355538461539,214.1339276432991L1716.183346153846,271.23665231466293L1717.6789307692306,283.40134996175766L1723.6612692307692,287.69481490552425L1725.904646153846,232.58352380990982L1726.6524384615384,281.76042142510414L1728.148023076923,302.65935373306274L1728.8958153846154,318.69886480271816L1731.8869846153846,297.06940457224846L1737.1215307692307,300.2043765038252L1738.6171153846155,322.2957356572151L1740.8604923076923,267.4250793457031L1741.6082846153845,242.09428533911705L1743.103869230769,261.5955346226692L1743.8516615384615,152.87290728092194L1746.0950384615385,296.40659223496914L1748.3384153846155,277.57706612348557L1750.5817923076922,254.67838364839554L1752.8251692307692,289.16818088293076L1754.3207538461538,323.96220680326223L1755.0685461538462,223.28893733024597L1755.8163384615384,218.80766612291336L1756.5641307692306,127.15804052352905L1757.311923076923,203.0117300748825L1761.798676923077,313.38339272886515L1763.2942615384616,313.77575531601906L1764.0420538461537,180.76939648389816L1764.7898461538462,243.6868970990181L1765.5376384615386,210.03285956382751L1769.2766000000001,292.6119228154421L1770.0243923076923,287.3598052561283L1770.7721846153847,261.54990461468697L1772.267769230769,260.3770934343338L1773.7633538461537,236.06612813472748L1774.511146153846,225.44381600618362L1775.2589384615385,294.25732930004597L1776.0067307692307,249.95914471149445L1776.754523076923,265.18360447883606L1777.5023153846153,301.45813152194023L1779.7456923076923,286.21690902113914L1781.241276923077,312.00330325216055L1781.9890692307692,202.93634283542633L1782.7368615384617,310.2712977603078L1785.7280307692308,165.8998380303383" style="fill: none;" fill="none"></path></g></g></g></g></g></g><g transform="translate(30, 378)" clip-path="url(#clip_1)"><clipPath id="clip_1"><rect width="1944" height="21"></rect></clipPath><g><g><line x1="0" y1="0" x2="0" y2="5" style="visibility: inherit;" fill="rgb(0, 0, 0)" stroke="rgb(204, 204, 204)" stroke-width="1px"></line><line x1="149.55846153846156" y1="0" x2="149.55846153846156" y2="5" style="visibility: inherit;" fill="rgb(0, 0, 0)" stroke="rgb(204, 204, 204)" stroke-width="1px"></line><line x1="299.1169230769231" y1="0" x2="299.1169230769231" y2="5" style="visibility: inherit;" fill="rgb(0, 0, 0)" stroke="rgb(204, 204, 204)" stroke-width="1px"></line><line x1="448.67538461538464" y1="0" x2="448.67538461538464" y2="5" style="visibility: inherit;" fill="rgb(0, 0, 0)" stroke="rgb(204, 204, 204)" stroke-width="1px"></line><line x1="598.2338461538462" y1="0" x2="598.2338461538462" y2="5" style="visibility: inherit;" fill="rgb(0, 0, 0)" stroke="rgb(204, 204, 204)" stroke-width="1px"></line><line x1="747.7923076923078" y1="0" x2="747.7923076923078" y2="5" style="visibility: inherit;" fill="rgb(0, 0, 0)" stroke="rgb(204, 204, 204)" stroke-width="1px"></line><line x1="897.3507692307693" y1="0" x2="897.3507692307693" y2="5" style="visibility: inherit;" fill="rgb(0, 0, 0)" stroke="rgb(204, 204, 204)" stroke-width="1px"></line><line x1="1046.9092307692308" y1="0" x2="1046.9092307692308" y2="5" style="visibility: inherit;" fill="rgb(0, 0, 0)" stroke="rgb(204, 204, 204)" stroke-width="1px"></line><line x1="1196.4676923076925" y1="0" x2="1196.4676923076925" y2="5" style="visibility: inherit;" fill="rgb(0, 0, 0)" stroke="rgb(204, 204, 204)" stroke-width="1px"></line><line x1="1346.0261538461539" y1="0" x2="1346.0261538461539" y2="5" style="visibility: inherit;" fill="rgb(0, 0, 0)" stroke="rgb(204, 204, 204)" stroke-width="1px"></line><line x1="1495.5846153846155" y1="0" x2="1495.5846153846155" y2="5" style="visibility: inherit;" fill="rgb(0, 0, 0)" stroke="rgb(204, 204, 204)" stroke-width="1px"></line><line x1="1645.143076923077" y1="0" x2="1645.143076923077" y2="5" style="visibility: inherit;" fill="rgb(0, 0, 0)" stroke="rgb(204, 204, 204)" stroke-width="1px"></line><line x1="1794.7015384615386" y1="0" x2="1794.7015384615386" y2="5" style="visibility: inherit;" fill="rgb(0, 0, 0)" stroke="rgb(204, 204, 204)" stroke-width="1px"></line><line x1="1944.26" y1="0" x2="1944.26" y2="5" style="visibility: inherit;" fill="rgb(0, 0, 0)" stroke="rgb(204, 204, 204)" stroke-width="1px"></line></g><g transform="translate(0, 8)"><text x="0" y="0" dx="0em" dy="0.95em" style="text-anchor: middle; visibility: hidden; font-family: &quot;Helvetica Neue&quot;, sans-serif; font-size: 15px; font-weight: 200;" fill="rgb(50, 49, 63)" stroke="none" stroke-width="1px">-20k</text><text x="149.55846153846156" y="0" dx="0em" dy="0.95em" style="text-anchor: middle; visibility: inherit; font-family: &quot;Helvetica Neue&quot;, sans-serif; font-size: 15px; font-weight: 200;" fill="rgb(50, 49, 63)" stroke="none" stroke-width="1px">0</text><text x="299.1169230769231" y="0" dx="0em" dy="0.95em" style="text-anchor: middle; visibility: inherit; font-family: &quot;Helvetica Neue&quot;, sans-serif; font-size: 15px; font-weight: 200;" fill="rgb(50, 49, 63)" stroke="none" stroke-width="1px">20k</text><text x="448.67538461538464" y="0" dx="0em" dy="0.95em" style="text-anchor: middle; visibility: inherit; font-family: &quot;Helvetica Neue&quot;, sans-serif; font-size: 15px; font-weight: 200;" fill="rgb(50, 49, 63)" stroke="none" stroke-width="1px">40k</text><text x="598.2338461538462" y="0" dx="0em" dy="0.95em" style="text-anchor: middle; visibility: inherit; font-family: &quot;Helvetica Neue&quot;, sans-serif; font-size: 15px; font-weight: 200;" fill="rgb(50, 49, 63)" stroke="none" stroke-width="1px">60k</text><text x="747.7923076923078" y="0" dx="0em" dy="0.95em" style="text-anchor: middle; visibility: inherit; font-family: &quot;Helvetica Neue&quot;, sans-serif; font-size: 15px; font-weight: 200;" fill="rgb(50, 49, 63)" stroke="none" stroke-width="1px">80k</text><text x="897.3507692307693" y="0" dx="0em" dy="0.95em" style="text-anchor: middle; visibility: inherit; font-family: &quot;Helvetica Neue&quot;, sans-serif; font-size: 15px; font-weight: 200;" fill="rgb(50, 49, 63)" stroke="none" stroke-width="1px">100k</text><text x="1046.9092307692308" y="0" dx="0em" dy="0.95em" style="text-anchor: middle; visibility: inherit; font-family: &quot;Helvetica Neue&quot;, sans-serif; font-size: 15px; font-weight: 200;" fill="rgb(50, 49, 63)" stroke="none" stroke-width="1px">120k</text><text x="1196.4676923076925" y="0" dx="0em" dy="0.95em" style="text-anchor: middle; visibility: inherit; font-family: &quot;Helvetica Neue&quot;, sans-serif; font-size: 15px; font-weight: 200;" fill="rgb(50, 49, 63)" stroke="none" stroke-width="1px">140k</text><text x="1346.0261538461539" y="0" dx="0em" dy="0.95em" style="text-anchor: middle; visibility: inherit; font-family: &quot;Helvetica Neue&quot;, sans-serif; font-size: 15px; font-weight: 200;" fill="rgb(50, 49, 63)" stroke="none" stroke-width="1px">160k</text><text x="1495.5846153846155" y="0" dx="0em" dy="0.95em" style="text-anchor: middle; visibility: inherit; font-family: &quot;Helvetica Neue&quot;, sans-serif; font-size: 15px; font-weight: 200;" fill="rgb(50, 49, 63)" stroke="none" stroke-width="1px">180k</text><text x="1645.143076923077" y="0" dx="0em" dy="0.95em" style="text-anchor: middle; visibility: inherit; font-family: &quot;Helvetica Neue&quot;, sans-serif; font-size: 15px; font-weight: 200;" fill="rgb(50, 49, 63)" stroke="none" stroke-width="1px">200k</text><text x="1794.7015384615386" y="0" dx="0em" dy="0.95em" style="text-anchor: middle; visibility: inherit; font-family: &quot;Helvetica Neue&quot;, sans-serif; font-size: 15px; font-weight: 200;" fill="rgb(50, 49, 63)" stroke="none" stroke-width="1px">220k</text><text x="1944.26" y="0" dx="0em" dy="0.95em" style="text-anchor: middle; visibility: hidden; font-family: &quot;Helvetica Neue&quot;, sans-serif; font-size: 15px; font-weight: 200;" fill="rgb(50, 49, 63)" stroke="none" stroke-width="1px">240k</text></g><line x1="0" y1="0" x2="1944.26" y2="0" fill="rgb(0, 0, 0)" stroke="rgb(204, 204, 204)" stroke-width="1px"></line></g></g></g></g></svg>