<svg viewBox="0 0 1974.2578125 400" xmlns="http://www.w3.org/2000/svg"><g><g><g><g><g><line x1="30" y1="378" x2="25" y2="378" style="visibility: inherit;" fill="rgb(0, 0, 0)" stroke="rgb(204, 204, 204)" stroke-width="1px"></line><line x1="30" y1="346.5" x2="25" y2="346.5" style="visibility: inherit;" fill="rgb(0, 0, 0)" stroke="rgb(204, 204, 204)" stroke-width="1px"></line><line x1="30" y1="315" x2="25" y2="315" style="visibility: inherit;" fill="rgb(0, 0, 0)" stroke="rgb(204, 204, 204)" stroke-width="1px"></line><line x1="30" y1="283.5" x2="25" y2="283.5" style="visibility: inherit;" fill="rgb(0, 0, 0)" stroke="rgb(204, 204, 204)" stroke-width="1px"></line><line x1="30" y1="252" x2="25" y2="252" style="visibility: inherit;" fill="rgb(0, 0, 0)" stroke="rgb(204, 204, 204)" stroke-width="1px"></line><line x1="30" y1="220.5" x2="25" y2="220.5" style="visibility: inherit;" fill="rgb(0, 0, 0)" stroke="rgb(204, 204, 204)" stroke-width="1px"></line><line x1="30" y1="189" x2="25" y2="189" style="visibility: inherit;" fill="rgb(0, 0, 0)" stroke="rgb(204, 204, 204)" stroke-width="1px"></line><line x1="30" y1="157.5" x2="25" y2="157.5" style="visibility: inherit;" fill="rgb(0, 0, 0)" stroke="rgb(204, 204, 204)" stroke-width="1px"></line><line x1="30" y1="126" x2="25" y2="126" style="visibility: inherit;" fill="rgb(0, 0, 0)" stroke="rgb(204, 204, 204)" stroke-width="1px"></line><line x1="30" y1="94.5" x2="25" y2="94.5" style="visibility: inherit;" fill="rgb(0, 0, 0)" stroke="rgb(204, 204, 204)" stroke-width="1px"></line><line x1="30" y1="63" x2="25" y2="63" style="visibility: inherit;" fill="rgb(0, 0, 0)" stroke="rgb(204, 204, 204)" stroke-width="1px"></line><line x1="30" y1="31.5" x2="25" y2="31.5" style="visibility: inherit;" fill="rgb(0, 0, 0)" stroke="rgb(204, 204, 204)" stroke-width="1px"></line><line x1="30" y1="0" x2="25" y2="0" style="visibility: inherit;" fill="rgb(0, 0, 0)" stroke="rgb(204, 204, 204)" stroke-width="1px"></line></g><g transform="translate(20, 0)"><text x="0" y="378" dx="0em" dy="0.3em" style="text-anchor: end; visibility: hidden; font-family: &quot;Helvetica Neue&quot;, sans-serif; font-size: 15px; font-weight: 200;" fill="rgb(50, 49, 63)" stroke="none" stroke-width="1px">-2</text><text x="0" y="346.5" dx="0em" dy="0.3em" style="text-anchor: end; visibility: inherit; font-family: &quot;Helvetica Neue&quot;, sans-serif; font-size: 15px; font-weight: 200;" fill="rgb(50, 49, 63)" stroke="none" stroke-width="1px">0</text><text x="0" y="315" dx="0em" dy="0.3em" style="text-anchor: end; visibility: inherit; font-family: &quot;Helvetica Neue&quot;, sans-serif; font-size: 15px; font-weight: 200;" fill="rgb(50, 49, 63)" stroke="none" stroke-width="1px">2</text><text x="0" y="283.5" dx="0em" dy="0.3em" style="text-anchor: end; visibility: inherit; font-family: &quot;Helvetica Neue&quot;, sans-serif; font-size: 15px; font-weight: 200;" fill="rgb(50, 49, 63)" stroke="none" stroke-width="1px">4</text><text x="0" y="252" dx="0em" dy="0.3em" style="text-anchor: end; visibility: inherit; font-family: &quot;Helvetica Neue&quot;, sans-serif; font-size: 15px; font-weight: 200;" fill="rgb(50, 49, 63)" stroke="none" stroke-width="1px">6</text><text x="0" y="220.5" dx="0em" dy="0.3em" style="text-anchor: end; visibility: inherit; font-family: &quot;Helvetica Neue&quot;, sans-serif; font-size: 15px; font-weight: 200;" fill="rgb(50, 49, 63)" stroke="none" stroke-width="1px">8</text><text x="0" y="189" dx="0em" dy="0.3em" style="text-anchor: end; visibility: inherit; font-family: &quot;Helvetica Neue&quot;, sans-serif; font-size: 15px; font-weight: 200;" fill="rgb(50, 49, 63)" stroke="none" stroke-width="1px">10</text><text x="0" y="157.5" dx="0em" dy="0.3em" style="text-anchor: end; visibility: inherit; font-family: &quot;Helvetica Neue&quot;, sans-serif; font-size: 15px; font-weight: 200;" fill="rgb(50, 49, 63)" stroke="none" stroke-width="1px">12</text><text x="0" y="126" dx="0em" dy="0.3em" style="text-anchor: end; visibility: inherit; font-family: &quot;Helvetica Neue&quot;, sans-serif; font-size: 15px; font-weight: 200;" fill="rgb(50, 49, 63)" stroke="none" stroke-width="1px">14</text><text x="0" y="94.5" dx="0em" dy="0.3em" style="text-anchor: end; visibility: inherit; font-family: &quot;Helvetica Neue&quot;, sans-serif; font-size: 15px; font-weight: 200;" fill="rgb(50, 49, 63)" stroke="none" stroke-width="1px">16</text><text x="0" y="63" dx="0em" dy="0.3em" style="text-anchor: end; visibility: inherit; font-family: &quot;Helvetica Neue&quot;, sans-serif; font-size: 15px; font-weight: 200;" fill="rgb(50, 49, 63)" stroke="none" stroke-width="1px">18</text><text x="0" y="31.5" dx="0em" dy="0.3em" style="text-anchor: end; visibility: inherit; font-family: &quot;Helvetica Neue&quot;, sans-serif; font-size: 15px; font-weight: 200;" fill="rgb(50, 49, 63)" stroke="none" stroke-width="1px">20</text><text x="0" y="0" dx="0em" dy="0.3em" style="text-anchor: end; visibility: hidden; font-family: &quot;Helvetica Neue&quot;, sans-serif; font-size: 15px; font-weight: 200;" fill="rgb(50, 49, 63)" stroke="none" stroke-width="1px">22</text></g><line x1="30" y1="0" x2="30" y2="378" fill="rgb(0, 0, 0)" stroke="rgb(204, 204, 204)" stroke-width="1px"></line></g></g><g transform="translate(30, 0)" clip-path="url(#clip_0)"><clipPath id="clip_0"><rect width="1944" height="377"></rect></clipPath><g><g><g><line x1="0" y1="0" x2="0" y2="378" fill="rgb(0, 0, 0)" stroke="rgb(60, 60, 60)" stroke-width="1px" opacity="0.25"></line><line x1="216.02888888888887" y1="0" x2="216.02888888888887" y2="378" fill="rgb(0, 0, 0)" stroke="rgb(60, 60, 60)" stroke-width="1px" opacity="0.25"></line><line x1="432.05777777777774" y1="0" x2="432.05777777777774" y2="378" fill="rgb(0, 0, 0)" stroke="rgb(60, 60, 60)" stroke-width="1px" opacity="0.25"></line><line x1="648.0866666666666" y1="0" x2="648.0866666666666" y2="378" fill="rgb(0, 0, 0)" stroke="rgb(60, 60, 60)" stroke-width="1px" opacity="0.25"></line><line x1="864.1155555555555" y1="0" x2="864.1155555555555" y2="378" fill="rgb(0, 0, 0)" stroke="rgb(60, 60, 60)" stroke-width="1px" opacity="0.25"></line><line x1="1080.1444444444444" y1="0" x2="1080.1444444444444" y2="378" fill="rgb(0, 0, 0)" stroke="rgb(60, 60, 60)" stroke-width="1px" opacity="0.25"></line><line x1="1296.1733333333332" y1="0" x2="1296.1733333333332" y2="378" fill="rgb(0, 0, 0)" stroke="rgb(60, 60, 60)" stroke-width="1px" opacity="0.25"></line><line x1="1512.2022222222222" y1="0" x2="1512.2022222222222" y2="378" fill="rgb(0, 0, 0)" stroke="rgb(60, 60, 60)" stroke-width="1px" opacity="0.25"></line><line x1="1728.231111111111" y1="0" x2="1728.231111111111" y2="378" fill="rgb(0, 0, 0)" stroke="rgb(60, 60, 60)" stroke-width="1px" opacity="0.25"></line><line x1="1944.26" y1="0" x2="1944.26" y2="378" fill="rgb(0, 0, 0)" stroke="rgb(60, 60, 60)" stroke-width="1px" opacity="0.25"></line></g><g><line x1="0" y1="378" x2="1944.26" y2="378" fill="rgb(0, 0, 0)" stroke="rgb(60, 60, 60)" stroke-width="1px" opacity="0.25"></line><line x1="0" y1="346.5" x2="1944.26" y2="346.5" fill="rgb(0, 0, 0)" stroke="rgb(60, 60, 60)" stroke-width="1px" opacity="0.25"></line><line x1="0" y1="315" x2="1944.26" y2="315" fill="rgb(0, 0, 0)" stroke="rgb(60, 60, 60)" stroke-width="1px" opacity="0.25"></line><line x1="0" y1="283.5" x2="1944.26" y2="283.5" fill="rgb(0, 0, 0)" stroke="rgb(60, 60, 60)" stroke-width="1px" opacity="0.25"></line><line x1="0" y1="252" x2="1944.26" y2="252" fill="rgb(0, 0, 0)" stroke="rgb(60, 60, 60)" stroke-width="1px" opacity="0.25"></line><line x1="0" y1="220.5" x2="1944.26" y2="220.5" fill="rgb(0, 0, 0)" stroke="rgb(60, 60, 60)" stroke-width="1px" opacity="0.25"></line><line x1="0" y1="189" x2="1944.26" y2="189" fill="rgb(0, 0, 0)" stroke="rgb(60, 60, 60)" stroke-width="1px" opacity="0.25"></line><line x1="0" y1="157.5" x2="1944.26" y2="157.5" fill="rgb(0, 0, 0)" stroke="rgb(60, 60, 60)" stroke-width="1px" opacity="0.25"></line><line x1="0" y1="126" x2="1944.26" y2="126" fill="rgb(0, 0, 0)" stroke="rgb(60, 60, 60)" stroke-width="1px" opacity="0.25"></line><line x1="0" y1="94.5" x2="1944.26" y2="94.5" fill="rgb(0, 0, 0)" stroke="rgb(60, 60, 60)" stroke-width="1px" opacity="0.25"></line><line x1="0" y1="63" x2="1944.26" y2="63" fill="rgb(0, 0, 0)" stroke="rgb(60, 60, 60)" stroke-width="1px" opacity="0.25"></line><line x1="0" y1="31.5" x2="1944.26" y2="31.5" fill="rgb(0, 0, 0)" stroke="rgb(60, 60, 60)" stroke-width="1px" opacity="0.25"></line><line x1="0" y1="0" x2="1944.26" y2="0" fill="rgb(0, 0, 0)" stroke="rgb(60, 60, 60)" stroke-width="1px" opacity="0.25"></line></g></g></g><g><g><line x1="0" y1="346.5" x2="1944.26" y2="346.5" fill="rgb(0, 0, 0)" stroke="rgb(153, 153, 153)" stroke-width="1.5px"></line></g></g><g><g><line x1="216.02888888888887" y1="0" x2="216.02888888888887" y2="378" fill="rgb(0, 0, 0)" stroke="rgb(153, 153, 153)" stroke-width="1.5px"></line></g></g><g><g><g><g><g><path stroke="rgb(255, 112, 67)" stroke-width="2px" d="M222.50975555555556,195.3781750202179L226.83033333333333,205.17575407028195L231.15091111111113,225.10752954834794L233.31119999999999,212.67529275940686L235.4714888888889,199.8267174318596L237.63177777777776,199.92318295129658L239.79206666666667,204.52275250475915L241.95235555555556,211.18767107361418L252.7538,210.81916646354742L257.0743777777778,212.7873052208891L259.23466666666667,213.45687485560128L261.39495555555555,201.20357642449915L267.8758222222222,211.62846331225984L270.0361111111111,216.73063335354146L274.35668888888887,213.9266842028637L278.6772666666667,223.14481644031193L287.31842222222224,229.3587637105461L289.47871111111107,229.37249851839502L291.639,236.95968107342816L293.7992888888889,232.4961213657578L295.9595777777778,229.78597867391264L298.11986666666667,234.45765799733502L300.28015555555555,234.59971784269678L302.44044444444444,239.3191059995078L304.6007333333333,233.23127300542944L306.7610222222222,231.27507239452027L311.0816,221.2350911353935L313.2418888888889,225.34186072942208L315.40217777777775,227.9788200627481L319.7227555555556,223.8204923275794L321.88304444444447,220.2418358430315L326.20362222222224,215.71715135378324L330.5242,219.68288325241795L332.6844888888889,226.80692344274095L337.00506666666666,237.94169447662316L339.1653555555556,239.34352388367108L341.32564444444444,233.97479826330786L343.4859333333333,237.92123914691325L367.2491111111111,231.55697946295956L369.4094,234.26201426001106L373.7299777777778,231.2073080355057L382.3711333333333,226.71965830114146L386.6917111111111,212.60557100610333L391.01228888888886,210.61096602136817L393.17257777777775,210.6439997712829L395.3328666666667,210.1854827024956L397.4931555555556,215.64965504277995L399.6534444444444,223.80416410843281L403.97402222222223,215.30853945522657L406.1343111111111,211.6458208931108L408.2946,206.3525190413976L410.4548888888889,200.98569250211352L412.6151777777778,204.4912788032091L414.7754666666667,205.89893813973393L419.09604444444443,214.68064482918933L421.2563333333334,218.07370774989636L427.7372,224.7310471167016L432.05777777777774,223.40183947727715L434.21806666666663,215.27547422616334L436.3783555555556,205.0860609111622L442.85922222222223,201.4465465507574L445.0195111111111,194.54808483328748L447.1798,188.6802261866811L449.3400888888889,198.49655768324618L451.50037777777777,203.41135984741155L460.1415333333333,209.58481164097685L462.30182222222226,202.9733361558307L466.62239999999997,199.44756950931955L479.58413333333334,192.0345614126291L481.7444222222222,190.24548259311007L483.9047111111111,196.27336364412355L488.2252888888889,187.9753551758465L494.7061555555555,196.5111591121366L499.0267333333333,192.06974990638977L501.1870222222222,185.6531300539819L503.34731111111114,193.71105617433324L507.6678888888889,180.64932811604223L511.9884666666666,168.0048808449306L514.1487555555556,186.94156216433214L516.3090444444445,193.30251818491854L518.4693333333333,197.5083375062479L520.6296222222222,195.21861947060745L522.7899111111111,194.76201405494513L529.2707777777778,196.2419401941042L531.4310666666667,177.23469989718296L533.5913555555555,163.14771802434436L537.9119333333333,164.68983270270118L540.0722222222222,165.2862221381262L546.5530888888889,169.4244288368763L548.7133777777777,176.0634031551857L550.8736666666666,180.4833308968693L553.0339555555555,173.97460459187118L555.1942444444445,180.79422392326993L559.5148222222223,189.73776657384934L561.675111111111,195.8374076483999L563.8353999999999,173.648195875446L570.3162666666667,171.84543782222863L574.6368444444445,169.2387320967054L576.7971333333334,161.0171646551445L581.117711111111,160.61944432855728L583.278,158.17960168322767L587.5985777777778,153.42931538679534L591.9191555555556,161.23058018653163L594.0794444444444,167.20097902322811L596.2397333333333,174.0865065810111L598.4000222222222,166.7398526948365L602.7206,176.5209083308323L604.8808888888889,179.90209939885122L607.0411777777778,183.3822926268574L609.2014666666666,189.72369451422227L613.5220444444444,181.51869436169198L615.6823333333333,163.13638436025113L617.8426222222222,162.72199830393112L620.0029111111111,166.71855213629897L622.1632,163.7923085879092L624.323488888889,171.5348068866224L628.6440666666666,170.4091987445375L630.8043555555555,168.58868449801895L632.9646444444444,160.4898296822842L635.1249333333333,161.88828727640927L639.4455111111112,165.8072769883406L643.7660888888889,163.61170022035364L645.9263777777777,165.63521417256212L648.0866666666666,160.2964815797438L650.2469555555556,156.60854122654553L656.7278222222222,156.09195759785905L658.8881111111111,150.57609960947346L663.2086888888888,159.0692700188504L669.6895555555556,159.89137058585086L671.8498444444444,167.29242834352996L678.3307111111112,167.68617174548754L680.491,169.2022463601659L686.9718666666666,177.8157176909323L689.1321555555555,178.58974027136773L691.2924444444444,169.43869700034233L693.4527333333334,182.7873145977647L695.6130222222222,161.5431614430727L697.7733111111111,172.1903734614044L699.9336,169.41084178364983L706.4144666666667,157.26864096384577L710.7350444444445,149.96129686722207L712.8953333333333,140.8378115263703L715.0556222222222,131.35832380987173L717.215911111111,132.69860009938057L719.3762,141.9495570547548L723.6967777777778,140.45196675357556L725.8570666666667,129.6769363331582L728.0173555555556,136.1010717429945L730.1776444444444,142.18256885832383L736.6585111111111,136.85332995276318L738.8188,126.67925781902204L740.9790888888889,134.21797142741303L745.2996666666667,141.50967110250176L747.4599555555556,143.94444971922064L749.6202444444444,144.1528265924694L751.7805333333333,140.25244735490813L758.2614,137.98984016427627L762.5819777777779,134.6352307434816L777.7040000000001,125.23978678671025L782.0245777777777,127.91274026463432L786.3451555555555,133.83195259912813L799.3068888888888,125.30820457731883L805.7877555555556,106.65528711156207L807.9480444444445,107.91812030852765L810.1083333333333,106.5171908249929L812.2686222222222,112.73284679337138L814.4289111111111,113.10463208900921L816.5892,122.17644105710221L820.9097777777778,120.15714219695434L823.0700666666667,133.05967524437986L829.5509333333334,145.2838513595969L831.7112222222222,146.79895737513783L836.0318,131.9424931744328L838.1920888888889,134.8713063986771L844.6729555555556,139.86945379508916L846.8332444444444,148.06562452899124L848.9935333333333,125.66401981820036L851.1538222222222,117.52919234839572L853.3141111111111,115.78318735764418L855.4744,113.56632821405725L857.634688888889,124.2081504237238L859.7949777777778,130.9464317140248L861.9552666666667,134.37353083111975L864.1155555555555,132.27040764982013L868.4361333333333,125.8141049170058L872.7567111111111,141.24561658092819L874.917,142.7351685729701L883.5581555555556,138.61155767179162L885.7184444444445,137.4178579881718L890.0390222222222,128.31460560440462L892.1993111111111,127.87745343112502L894.3596,126.4879014846766L898.6801777777778,134.4648157403536L900.8404666666667,137.61390033131178L903.0007555555555,133.2399655085034L905.1610444444444,127.83239847034031L911.6419111111112,128.0599804370388L918.1227777777777,136.90278261890288L922.4433555555555,130.96014900199793L924.6036444444445,123.85572362893598L928.9242222222223,121.88511677546325L931.084511111111,130.28174873958443L937.5653777777777,124.98266780193978L939.7256666666667,120.60737857672638L941.8859555555556,109.38856933476973L946.2065333333334,108.32646039297146L948.3668222222221,126.447594286362L950.527111111111,122.41188163865382L952.6874,119.11710172739635L954.8476888888889,115.08690976974975L957.0079777777778,114.94573230646148L959.1682666666667,122.19257360380561L961.3285555555556,127.04753341421821L965.6491333333333,140.27197572505744L967.8094222222222,145.15180365972736L972.13,108.61480249351672L980.7711555555557,91.46019755511617L982.9314444444444,101.13886965679433L985.0917333333334,108.63206664218347L987.2520222222222,118.86698296462572L991.5726,107.46927816704965L993.7328888888889,93.37111049521809L998.0534666666666,88.75864681902607L1002.3740444444444,97.19458191635675L1006.6946222222223,96.35898317529728L1008.854911111111,110.76318160401962L1011.0152,118.93052394952122L1013.1754888888888,109.08259598227937L1017.4960666666666,98.4336681668965L1019.6563555555556,86.86788408796059L1023.9769333333332,87.54969381364236L1026.1372222222221,85.17517556406699L1028.2975111111111,84.06944762593622L1030.4578000000001,62.555185500193545L1034.778377777778,71.31790166172095L1036.9386666666667,77.75647439219728L1041.2592444444444,83.09393063909351L1043.4195333333332,92.4984230337663L1045.5798222222222,105.04690165027961L1047.740111111111,126.62303238475309L1049.9004,127.53942770452491L1052.0606888888888,127.85074191642752L1060.7018444444445,124.67093710385129L1062.8621333333333,119.97322319573055L1067.182711111111,113.27135084967529L1069.343,91.06377448162016L1073.6635777777776,117.05002485530036L1075.8238666666666,117.70193842900954L1080.1444444444444,110.08022349558809L1082.3047333333334,104.01312660759714L1084.4650222222224,102.69088539748213L1086.6253111111112,105.55541584705372L1088.7856000000002,100.23241832904074L1090.945888888889,115.73153927367571L1093.1061777777777,113.38193771395396L1099.5870444444445,103.9380519640709L1103.9076222222222,104.11559831716733L1108.2281999999998,107.85845379525915L1112.5487777777778,120.33067907090583L1114.7090666666668,109.51349535938579L1116.8693555555556,104.54363844677988L1119.0296444444446,92.12057893979699L1123.350222222222,100.65446533765908L1127.6707999999999,89.75605928108308L1131.9913777777776,97.08878125512774L1134.1516666666666,102.04080106229918L1136.3119555555556,116.82892571617236L1142.7928222222222,99.92772177639858L1147.1134,107.1437559428474L1149.273688888889,102.11049616357968L1151.4339777777777,97.84237880723703L1153.5942666666667,99.56433492674057L1155.7545555555555,107.19731335460045L1157.9148444444443,105.78803743218504L1162.235422222222,97.61140061454074L1164.3957111111113,110.74464059699454L1166.556,121.52594915095068L1173.0368666666668,98.83344242622934L1175.1971555555556,78.66275404016557L1179.5177333333334,87.53281005319263L1181.6780222222221,73.97083765742235L1185.9986,85.8431509532694L1192.4794666666667,69.39515007322342L1196.8000444444444,74.02844429640226L1198.9603333333334,67.21157379649685L1201.1206222222222,71.13215242785299L1203.2809111111112,82.2481571115024L1209.7617777777778,84.07201402004296L1220.5632222222223,87.48796843382303L1222.7235111111113,82.69399127080112L1224.8838,76.0115360952542L1233.5249555555556,78.71982505616546L1235.6852444444444,85.12792045829298L1237.8455333333334,103.36767888830184L1244.3264,107.91327305448914L1246.486688888889,94.87728735457154L1248.646977777778,100.9892972679956L1250.8072666666667,84.35627040640696L1255.1278444444445,74.69273937047467L1257.2881333333332,72.14424276591097L1259.4484222222222,78.926290227896L1263.769,78.78016382370475L1265.9292888888888,83.78512792519001L1268.0895777777778,75.53260005896306L1270.2498666666665,85.74607478288823L1274.5704444444445,77.37930649684279L1278.8910222222223,70.12428622378042L1281.051311111111,78.97643555746981L1287.5321777777779,74.71253920830492L1291.8527555555554,80.4691953757382L1294.0130444444444,76.6177753527146L1296.1733333333332,77.70799448642578L1302.6542000000002,67.90151550414913L1304.814488888889,83.69880701734826L1309.1350666666667,73.18137227403486L1311.2953555555555,62.63210457887146L1313.4556444444445,47.71894078513702L1315.6159333333333,57.37925504891649L1317.7762222222223,47.340973657358234L1322.0968,55.50037330149695L1324.2570888888888,62.5158387641834L1326.4173777777776,77.06163956488984L1332.8982444444446,79.27785531493674L1335.0585333333333,74.88331359078614L1337.2188222222223,66.54139484922189L1339.3791111111111,54.331591621717564L1341.5394,48.30596619898546L1343.6996888888889,72.22777690930741L1345.8599777777777,74.5270987704879L1348.0202666666667,77.80697373990108L1350.1805555555554,95.18269799903146L1356.6614222222224,88.11431750261869L1360.982,77.04579093141626L1363.142288888889,74.40703584419305L1369.6231555555555,84.13978616131635L1373.9437333333333,71.1826264678104L1376.104022222222,74.12900846947537L1380.4245999999998,64.34658455649463L1384.7451777777778,67.58304614861362L1389.0657555555556,73.25466581217091L1395.5466222222221,79.20295111363447L1397.7069111111111,88.8346681914752L1399.8672,120.00192213233515L1402.027488888889,105.49957885882219L1404.1877777777777,108.45238315694303L1406.3480666666667,97.76715774244286L1408.5083555555555,79.85083842997727L1410.6686444444445,94.85979734043258L1412.8289333333335,89.31204765780751L1414.9892222222222,82.75782618319181L1417.1495111111112,68.3984539778645L1419.3098,65.26868088019813L1421.470088888889,69.54764715014238L1423.6303777777778,77.44896338127722L1425.7906666666665,72.45540559882062L1430.1112444444443,78.10036278243172L1432.2715333333333,88.70676732441035L1434.431822222222,90.25290036503668L1438.7524,86.31566467526909L1443.0729777777779,89.81618120386884L1449.5538444444444,103.04988195192561L1451.7141333333334,94.47335521135125L1453.8744222222222,92.52830708625635L1460.3552888888887,102.03730688574086L1462.5155777777777,90.09871490861718L1466.8361555555557,86.84722248765422L1468.9964444444445,76.67621243836555L1471.1567333333335,98.02770515157442L1479.7978888888888,110.52563454209695L1481.9581777777778,107.42111107110122L1486.2787555555556,100.75185877799305L1492.7596222222223,102.70257731055665L1494.919911111111,96.84301401595627L1499.2404888888889,63.979918109737696L1505.7213555555556,35.17864827105433L1507.8816444444444,25.151635867667437L1510.0419333333332,27.25411013151188L1514.362511111111,26.95980532475295L1516.5228,14.193178808752577L1520.843377777778,41.04423993115728L1523.0036666666667,61.22775539783726L1525.1639555555557,62.402899337038036L1527.3242444444445,66.82504278200832L1529.4845333333333,54.92522930922485L1535.9654,67.7962598309706L1538.1256888888888,58.142628630462525L1542.4462666666666,31.352474848797556L1544.6065555555554,42.60157178272459L1546.7668444444444,45.492653452791046L1548.9271333333334,37.49092823937514L1557.568288888889,52.866805177330775L1559.7285777777777,56.34494064760196L1561.8888666666667,54.12850750694264L1570.5300222222222,45.94725638397205L1572.690311111111,39.9731857758178L1574.8506,33.468965910388135L1577.010888888889,7.57422458530516L1579.1711777777778,25.636431880005603L1585.6520444444445,24.43357177353579L1587.8123333333333,14.293885388188983L1592.132911111111,34.540073043674965L1596.4534888888888,28.160979752994194L1600.7740666666666,53.11576457441379L1605.0946444444446,53.85606867170753L1607.2549333333334,62.83234930115083L1611.5755111111112,64.93124647201807L1613.7358,72.68553930331632L1615.896088888889,72.51660542336595L1618.0563777777777,66.91505884049326L1620.2166666666667,75.82330125902484L1622.3769555555555,79.22778430250798L1628.8578222222222,87.6859769556325L1631.0181111111112,86.34654481676426L1633.1784,85.54326292250317L1635.338688888889,74.1657108018697L1639.6592666666668,76.47349700529583L1641.8195555555556,58.05809333482745L1646.1401333333333,44.69585649617005L1648.300422222222,39.674400364935366L1650.460711111111,50.6863598152637L1654.7812888888889,51.12081512805935L1656.9415777777779,67.06338417527769L1659.1018666666669,66.38586664197999L1661.2621555555556,61.37488384245364L1663.4224444444444,52.77363134382989L1665.5827333333334,51.266575439443784L1676.3841777777777,55.81912792815416L1682.8650444444443,54.984366520990136L1689.3459111111113,57.8731468079481L1693.6664888888888,73.281531553109L1695.8267777777778,79.32705987345338L1700.1473555555556,80.8083072729998L1704.4679333333333,92.47136543815077L1706.6282222222221,74.9742526898761L1708.7885111111111,73.61359070857202L1715.269377777778,71.94985303179294L1717.4296666666667,68.80961720860694L1719.5899555555557,71.73987955027178L1721.7502444444444,76.47683744568309L1723.9105333333334,66.4436164294774L1728.231111111111,59.28967507641272L1736.8722666666665,31.854570452060386L1739.0325555555555,12.898274186202798L1743.3531333333333,9.44234295125716L1745.5134222222223,12.765077745405108L1747.673711111111,10.395064382145563L1749.834,26.985332606943246L1758.4751555555556,26.445036791731354L1764.9560222222221,19.980931777135083L1773.597177777778,43.62217303782751L1775.7574666666667,43.83385550713575L1777.9177555555555,63.212398813057234L1780.0780444444445,63.68162702392601L1782.2383333333332,81.69932693537919L1784.3986222222222,62.775014545892475L1786.558911111111,52.67128202627083L1788.7192,46.86585881956404L1790.8794888888888,54.09073116499576L1795.2000666666668,51.3249755074055L1799.5206444444445,50.72575103199256L1801.6809333333333,46.41184510354816L1806.001511111111,64.89674578956459L1808.1618,48.085435762816246L1810.3220888888889,51.897142612785956L1814.6426666666666,49.62802922236989L1816.8029555555554,55.80942153539712L1818.9632444444444,57.61331929847762L1821.1235333333334,48.830545251251635L1823.2838222222224,49.331328061963234L1825.4441111111112,50.04726192772L1827.6044,51.30838659143143L1836.2455555555555,24.264263079450075L1838.4058444444445,24.458729589689142L1844.886711111111,25.775828047361642L1849.207288888889,26.49982169768549L1853.5278666666668,22.331552151849564L1857.8484444444446,40.79265365919326L1862.169022222222,34.37577093379383L1866.4895999999999,42.6894737302199L1870.8101777777777,45.94603050700306L1872.9704666666667,38.76549254219907L1875.1307555555554,34.54142407068554L1879.4513333333334,4.886194066118776L1881.6116222222222,6.456289923915506L1883.7719111111112,8.046635943038666L1890.2527777777777,0.5184055943357748L1894.5733555555555,-26.374929397975052L1903.214511111111,-15.591226253302693L1905.3748,2.09145514695507L1909.6953777777778,-0.2301451323138508L1911.8556666666666,27.250314207259237L1920.4968222222221,29.63240125289235L1922.6571111111111,26.305196114466014L1929.1379777777777,46.25359869645865L1939.9394222222222,43.52998095072769L1942.0997111111112,47.21299061232776L1948.5805777777775,57.80108392281511" style="fill: none;" fill="none"></path></g></g></g></g><g opacity="0.2"><g><g><g><path stroke="rgb(255, 112, 67)" stroke-width="2px" d="M222.50975555555556,195.3781750202179L226.83033333333333,213.01381731033325L231.15091111111113,253.809286236763L233.31119999999999,188.4075665473938L235.4714888888889,169.48352193832397L237.63177777777776,200.1826057434082L239.79206666666667,218.09803247451782L241.95235555555556,232.25640642642975L252.7538,209.5924472808838L257.0743777777778,219.60322380065918L259.23466666666667,215.84757542610168L261.39495555555555,156.40058398246765L267.8758222222222,250.46243977546692L270.0361111111111,236.01733446121216L274.35668888888887,203.20416355133057L278.6772666666667,258.7200086116791L287.31842222222224,253.5149245262146L289.47871111111107,229.42620062828064L291.639,266.7616971731186L293.7992888888889,214.8991892337799L295.9595777777778,219.0703911781311L298.11986666666667,252.9720207452774L300.28015555555555,235.16376435756683L302.44044444444444,258.08522522449493L304.6007333333333,208.9949369430542L306.7610222222222,223.47983121871948L311.0816,181.19654202461243L313.2418888888889,241.72922086715698L315.40217777777775,238.50625491142273L319.7227555555556,207.2129201889038L321.88304444444447,205.94493055343628L326.20362222222224,197.63633751869202L330.5242,235.5332429409027L332.6844888888889,255.2850226163864L337.00506666666666,282.4581946134567L339.1653555555556,244.94856691360474L341.32564444444444,212.50686478614807L343.4859333333333,253.70290446281433L367.2491111111111,206.1052279472351L369.4094,245.08035564422607L373.7299777777778,218.99010729789734L382.3711333333333,208.77096819877625L386.6917111111111,156.15402460098267L391.01228888888886,202.63308906555176L393.17257777777775,210.776127576828L395.3328666666667,208.35149431228638L397.4931555555556,237.50558280944824L399.6534444444444,256.4212911128998L403.97402222222223,181.32679867744446L406.1343111111111,196.99520802497864L408.2946,185.17961382865906L410.4548888888889,179.51863145828247L412.6151777777778,218.51349592208862L414.7754666666667,211.52953433990479L419.09604444444443,249.80726623535156L421.2563333333334,231.64589595794678L427.7372,251.36030495166779L432.05777777777774,218.0850248336792L434.21806666666663,182.77009105682373L436.3783555555556,164.32848572731018L442.85922222222223,186.88851141929626L445.0195111111111,166.95427179336548L447.1798,165.20881462097168L449.3400888888889,237.76185286045074L451.50037777777777,223.07055616378784L460.1415333333333,234.27860641479492L462.30182222222226,176.52744483947754L466.62239999999997,185.3445074558258L479.58413333333334,162.38253664970398L481.7444222222222,183.08916878700256L483.9047111111111,220.38488388061523L488.2252888888889,154.78332567214966L494.7061555555555,230.65437126159668L499.0267333333333,174.30411458015442L501.1870222222222,159.98665237426758L503.34731111111114,225.94275891780853L507.6678888888889,128.40241813659668L511.9884666666666,117.42709350585938L514.1487555555556,262.68828535079956L516.3090444444445,218.74634170532227L518.4693333333333,214.33161449432373L520.6296222222222,186.05974745750427L522.7899111111111,192.9355924129486L529.2707777777778,202.16164469718933L531.4310666666667,101.20573925971985L533.5913555555555,106.79979085922241L537.9119333333333,170.85829138755798L540.0722222222222,167.67177987098694L546.5530888888889,185.97725558280945L548.7133777777777,202.619300365448L550.8736666666666,198.16304183006287L553.0339555555555,147.9396994113922L555.1942444444445,208.07270121574402L559.5148222222223,225.51193714141846L561.675111111111,220.23597192764282L563.8353999999999,84.89134883880615L570.3162666666667,164.63440561294556L574.6368444444445,158.811909198761L576.7971333333334,128.1308948993683L581.117711111111,159.02856302261353L583.278,148.4202311038971L587.5985777777778,134.4281702041626L591.9191555555556,192.4356393814087L594.0794444444444,191.0825743675232L596.2397333333333,201.62861680984497L598.4000222222222,137.3532371520996L602.7206,215.64513087272644L604.8808888888889,193.42686367034912L607.0411777777778,197.30306553840637L609.2014666666666,215.08930206298828L613.5220444444444,148.69869375228882L615.6823333333333,89.60714435577393L617.8426222222222,161.06445407867432L620.0029111111111,182.70476746559143L622.1632,152.08733439445496L624.323488888889,202.50480008125305L628.6440666666666,165.90676617622375L630.8043555555555,161.30662751197815L632.9646444444444,128.0944104194641L635.1249333333333,167.48211765289307L639.4455111111112,181.48323583602905L643.7660888888889,154.82939314842224L645.9263777777777,173.72926998138428L648.0866666666666,138.9415512084961L650.2469555555556,141.85677981376648L656.7278222222222,154.02562308311462L658.8881111111111,128.51266765594482L663.2086888888888,193.04195165634155L669.6895555555556,163.17977285385132L671.8498444444444,196.89665937423706L678.3307111111112,169.26114535331726L680.491,175.26654481887817L686.9718666666666,212.2696030139923L689.1321555555555,181.68583059310913L691.2924444444444,132.8345239162445L693.4527333333334,236.18178498744965L695.6130222222222,76.5665488243103L697.7733111111111,214.779221534729L699.9336,158.29271507263184L706.4144666666667,108.69983768463135L710.7350444444445,120.73192048072815L712.8953333333333,104.34387016296387L715.0556222222222,93.44037294387817L717.215911111111,138.05970525741577L719.3762,178.95338487625122L723.6967777777778,134.46160554885864L725.8570666666667,86.57681465148926L728.0173555555556,161.79761338233948L730.1776444444444,166.5085573196411L736.6585111111111,115.53637433052063L738.8188,85.98296928405762L740.9790888888889,164.37282586097717L745.2996666666667,170.67646980285645L747.4599555555556,153.6835641860962L749.6202444444444,144.98633408546448L751.7805333333333,124.65093040466309L758.2614,128.93941140174866L762.5819777777779,121.21679306030273L777.7040000000001,87.65801095962524L782.0245777777777,138.60455417633057L786.3451555555555,157.50880193710327L799.3068888888888,91.21321249008179L805.7877555555556,32.043617248535156L807.9480444444445,112.96945309638977L810.1083333333333,100.91347289085388L812.2686222222222,137.59547066688538L814.4289111111111,114.59177327156067L816.5892,158.46367692947388L820.9097777777778,112.07994675636292L823.0700666666667,184.66980743408203L829.5509333333334,194.1805558204651L831.7112222222222,152.85938143730164L836.0318,72.51663637161255L838.1920888888889,146.5865592956543L844.6729555555556,159.8620433807373L846.8332444444444,180.8503074645996L848.9935333333333,36.05760097503662L851.1538222222222,84.98988246917725L853.3141111111111,108.79916739463806L855.4744,104.69889163970947L857.634688888889,166.77543926239014L859.7949777777778,157.89955687522888L861.9552666666667,148.0819272994995L864.1155555555555,123.85791492462158L868.4361333333333,99.98889398574829L872.7567111111111,202.97166323661804L874.917,148.6933765411377L883.5581555555556,122.11711406707764L885.7184444444445,132.64305925369263L890.0390222222222,91.90159606933594L892.1993111111111,126.12884473800659L894.3596,120.92969369888306L898.6801777777778,166.37247276306152L900.8404666666667,150.21023869514465L903.0007555555555,115.7442262172699L905.1610444444444,106.20213031768799L911.6419111111112,128.970308303833L918.1227777777777,172.27399134635925L922.4433555555555,107.18961453437805L924.6036444444445,95.43802213668823L928.9242222222223,114.00268936157227L931.084511111111,163.86827659606934L937.5653777777777,103.78634405136108L939.7256666666667,103.1062216758728L941.8859555555556,64.51333236694336L946.2065333333334,104.0780246257782L948.3668222222221,198.93212985992432L950.527111111111,106.26903104782104L952.6874,105.93798208236694L954.8476888888889,98.96614193916321L957.0079777777778,114.3810224533081L959.1682666666667,151.17993879318237L961.3285555555556,146.46737265586853L965.6491333333333,193.1697449684143L967.8094222222222,164.67111539840698L972.13,-37.533202171325684L980.7711555555557,22.841777801513672L982.9314444444444,139.85355806350708L985.0917333333334,138.60485458374023L987.2520222222222,159.80664825439453L991.5726,61.878458976745605L993.7328888888889,36.978439807891846L998.0534666666666,70.30879211425781L1002.3740444444444,130.93832230567932L1006.6946222222223,93.01658821105957L1008.854911111111,168.3799753189087L1011.0152,151.5998933315277L1013.1754888888888,69.69088411331177L1017.4960666666666,55.83795690536499L1019.6563555555556,40.6047477722168L1023.9769333333332,90.27693271636963L1026.1372222222221,75.67710256576538L1028.2975111111111,79.64653587341309L1030.4578000000001,-23.5018630027771L1034.778377777778,106.36876630783081L1036.9386666666667,103.51076531410217L1041.2592444444444,104.44375562667847L1043.4195333333332,130.11639261245728L1045.5798222222222,155.240816116333L1047.740111111111,212.9275553226471L1049.9004,131.20500898361206L1052.0606888888888,129.0959987640381L1060.7018444444445,111.95171785354614L1062.8621333333333,101.18236756324768L1067.182711111111,86.4638614654541L1069.343,2.233469009399414L1073.6635777777776,220.99502635002136L1075.8238666666666,120.30959272384644L1080.1444444444444,79.59336376190186L1082.3047333333334,79.74473905563354L1084.4650222222224,97.4019205570221L1086.6253111111112,117.01353764533997L1088.7856000000002,78.94042825698853L1090.945888888889,177.72802305221558L1093.1061777777777,103.98353147506714L1099.5870444444445,66.16250896453857L1103.9076222222222,104.82578372955322L1108.2281999999998,122.82987570762634L1112.5487777777778,170.21958017349243L1114.7090666666668,66.24476051330566L1116.8693555555556,84.6642107963562L1119.0296444444446,42.428340911865234L1123.350222222222,134.79001092910767L1127.6707999999999,46.16243505477905L1131.9913777777776,126.41966915130615L1134.1516666666666,121.84888029098511L1136.3119555555556,175.98142433166504L1142.7928222222222,32.32290601730347L1147.1134,136.00789260864258L1149.273688888889,81.97745704650879L1151.4339777777777,80.76990938186646L1153.5942666666667,106.45215940475464L1155.7545555555555,137.72922706604004L1157.9148444444443,100.1509337425232L1162.235422222222,64.90485334396362L1164.3957111111113,163.2776005268097L1166.556,164.6511833667755L1173.0368666666668,8.06341552734375L1175.1971555555556,-2.0199995040893555L1179.5177333333334,123.0130341053009L1181.6780222222221,19.72294807434082L1185.9986,133.33240413665771L1192.4794666666667,3.603146553039551L1196.8000444444444,92.56162118911743L1198.9603333333334,39.944091796875L1201.1206222222222,86.81446695327759L1203.2809111111112,126.71217584609985L1209.7617777777778,91.36744165420532L1220.5632222222223,101.15178608894348L1222.7235111111113,63.51808261871338L1224.8838,49.281715393066406L1233.5249555555556,89.55298089981079L1235.6852444444444,110.76030206680298L1237.8455333333334,176.3267126083374L1244.3264,126.09564971923828L1246.486688888889,42.73334455490112L1248.646977777778,125.4373369216919L1250.8072666666667,17.82416296005249L1255.1278444444445,36.038615226745605L1257.2881333333332,61.95025634765625L1259.4484222222222,106.05448007583618L1263.769,78.1956582069397L1265.9292888888888,103.80498433113098L1268.0895777777778,42.522488594055176L1270.2498666666665,126.59997367858887L1274.5704444444445,43.91223335266113L1278.8910222222223,41.10420513153076L1281.051311111111,114.38503289222717L1287.5321777777779,57.65695381164551L1291.8527555555554,103.49582004547119L1294.0130444444444,61.21209526062012L1296.1733333333332,82.06887102127075L1302.6542000000002,28.675599575042725L1304.814488888889,146.88797307014465L1309.1350666666667,31.11163330078125L1311.2953555555555,20.435033798217773L1313.4556444444445,-11.933714389801025L1315.6159333333333,96.02051210403442L1317.7762222222223,7.187848091125488L1322.0968,88.13797187805176L1324.2570888888888,90.5777006149292L1326.4173777777776,135.24484276771545L1332.8982444444446,88.14271831512451L1335.0585333333333,57.30514669418335L1337.2188222222223,33.17371988296509L1339.3791111111111,5.4923787117004395L1341.5394,24.20346450805664L1343.6996888888889,167.9150197505951L1345.8599777777777,83.72438621520996L1348.0202666666667,90.92647361755371L1350.1805555555554,164.68559503555298L1356.6614222222224,59.84079551696777L1360.982,32.771684646606445L1363.142288888889,63.85201549530029L1369.6231555555555,123.07078742980957L1373.9437333333333,19.35398769378662L1376.104022222222,85.91453647613525L1380.4245999999998,25.216888904571533L1384.7451777777778,80.52889251708984L1389.0657555555556,95.94114446640015L1395.5466222222221,102.99609231948853L1397.7069111111111,127.36153650283813L1399.8672,244.67093789577484L1402.027488888889,47.49020576477051L1404.1877777777777,120.26360034942627L1406.3480666666667,55.02625608444214L1408.5083555555555,8.185561180114746L1410.6686444444445,154.89563298225403L1412.8289333333335,67.12104892730713L1414.9892222222222,56.540940284729004L1417.1495111111112,10.960965156555176L1419.3098,52.74958848953247L1421.470088888889,86.66351222991943L1423.6303777777778,109.05422830581665L1425.7906666666665,52.48117446899414L1430.1112444444443,100.68019151687622L1432.2715333333333,131.13238549232483L1434.431822222222,96.43743252754211L1438.7524,70.56672191619873L1443.0729777777779,103.81824731826782L1449.5538444444444,155.98468494415283L1451.7141333333334,60.167248249053955L1453.8744222222222,84.74811458587646L1460.3552888888887,140.0733060836792L1462.5155777777777,42.34434700012207L1466.8361555555557,73.84125280380249L1468.9964444444445,35.99217224121094L1471.1567333333335,183.4336760044098L1479.7978888888888,160.517352104187L1481.9581777777778,95.00301718711853L1486.2787555555556,74.0748496055603L1492.7596222222223,110.50545144081116L1494.919911111111,73.40476083755493L1499.2404888888889,-67.47246551513672L1507.8816444444444,-14.956413745880127L1510.0419333333332,35.66400718688965L1514.362511111111,25.782586097717285L1516.5228,-36.87332725524902L1520.843377777778,148.44848442077637L1523.0036666666667,141.96181726455688L1525.1639555555557,67.10347509384155L1527.3242444444445,84.51361656188965L1529.4845333333333,7.32597541809082L1535.9654,119.28038191795349L1538.1256888888888,19.528103828430176L1542.4462666666666,-75.80814027786255L1544.6065555555554,87.59795951843262L1546.7668444444444,57.05698013305664L1548.9271333333334,5.48402738571167L1557.568288888889,114.37031292915344L1559.7285777777777,70.25748252868652L1561.8888666666667,45.26277494430542L1570.5300222222222,13.222251892089844L1572.690311111111,16.076903343200684L1574.8506,7.452086448669434L1577.010888888889,-96.00474071502686L1579.1711777777778,97.88526105880737L1585.6520444444445,19.62213134765625L1587.8123333333333,-26.264860153198242L1592.132911111111,115.5248236656189L1596.4534888888888,2.644606590270996L1600.7740666666666,152.93490386009216L1605.0946444444446,56.81728506088257L1607.2549333333334,98.73747181892395L1611.5755111111112,73.32683515548706L1613.7358,103.70271062850952L1615.896088888889,71.84086990356445L1618.0563777777777,44.508872509002686L1620.2166666666667,111.45627093315125L1622.3769555555555,92.84571647644043L1628.8578222222222,121.5187475681305L1631.0181111111112,80.9888162612915L1633.1784,82.33013534545898L1635.338688888889,28.655502319335938L1639.6592666666668,85.70464181900024L1641.8195555555556,-15.603521347045898L1646.1401333333333,-8.753090858459473L1648.300422222222,19.588575839996338L1650.460711111111,94.73419761657715L1654.7812888888889,52.85863637924194L1656.9415777777779,130.833660364151L1659.1018666666669,63.67579650878906L1661.2621555555556,41.330952644348145L1663.4224444444444,18.368621349334717L1665.5827333333334,45.238351821899414L1676.3841777777777,74.0293378829956L1682.8650444444443,51.645320892333984L1689.3459111111113,69.42826795578003L1693.6664888888888,134.91507053375244L1695.8267777777778,103.50917315483093L1700.1473555555556,86.7332968711853L1704.4679333333333,139.12359809875488L1706.6282222222221,4.985801696777344L1708.7885111111111,68.17094278335571L1715.269377777778,65.29490232467651L1717.4296666666667,56.24867391586304L1719.5899555555557,83.46092891693115L1721.7502444444444,95.42466902732849L1723.9105333333334,26.31073236465454L1728.231111111111,30.673909664154053L1736.8722666666665,-77.88584804534912L1743.3531333333333,-4.381381988525391L1745.5134222222223,26.05601692199707L1747.673711111111,0.915010929107666L1749.834,93.34640550613403L1758.4751555555556,24.28385353088379L1764.9560222222221,-5.87548828125L1773.597177777778,138.18713808059692L1775.7574666666667,44.6805853843689L1777.9177555555555,140.72657203674316L1780.0780444444445,65.55853986740112L1782.2383333333332,153.77012658119202L1784.3986222222222,-12.922235012054443L1786.558911111111,12.256351947784424L1788.7192,23.644165992736816L1790.8794888888888,82.99022054672241L1795.2000666666668,40.26195287704468L1799.5206444444445,48.328853130340576L1801.6809333333333,29.156221389770508L1806.001511111111,138.83634853363037L1808.1618,-19.159804344177246L1810.3220888888889,67.1439700126648L1814.6426666666666,40.551575660705566L1816.8029555555554,80.5349907875061L1818.9632444444444,64.82891035079956L1821.1235333333334,13.699449062347412L1823.2838222222224,51.33445930480957L1825.4441111111112,52.91099739074707L1827.6044,56.352885246276855L1836.2455555555555,-83.91223096847534L1838.4058444444445,25.236595630645752L1844.886711111111,31.044221878051758L1849.207288888889,29.395796298980713L1853.5278666666668,5.658473968505859L1857.8484444444446,114.63705968856812L1862.169022222222,8.708240032196045L1866.4895999999999,75.94428491592407L1870.8101777777777,58.97225761413574L1872.9704666666667,10.043340682983398L1875.1307555555554,17.645150184631348L1879.4513333333334,-113.73472595214844L1881.6116222222222,12.736673355102539L1883.7719111111112,14.40802001953125L1890.2527777777777,-29.594515800476074L1894.5733555555555,-133.94826936721802L1896.7336444444443,8.971246719360352L1903.214511111111,-0.7333545684814453L1905.3748,72.82218074798584L1909.6953777777778,-9.516546249389648L1911.8556666666666,137.17215156555176L1920.4968222222221,39.160749435424805L1922.6571111111111,12.996375560760498L1929.1379777777777,126.04720902442932L1939.9394222222222,32.635509967803955L1942.0997111111112,61.94502925872803L1948.5805777777775,100.1534571647644" style="fill: none;" fill="none"></path></g></g></g></g></g><g><g opacity="0.0673372"><span style="white-space: normal;" fill="rgb(0, 0, 0)" stroke="none" stroke-width="1px">Alt + Scroll to Zoom</span></g></g></g><g transform="translate(30, 378)" clip-path="url(#clip_1)"><clipPath id="clip_1"><rect width="1944" height="21"></rect></clipPath><g><g><line x1="0" y1="0" x2="0" y2="5" style="visibility: inherit;" fill="rgb(0, 0, 0)" stroke="rgb(204, 204, 204)" stroke-width="1px"></line><line x1="216.02888888888887" y1="0" x2="216.02888888888887" y2="5" style="visibility: inherit;" fill="rgb(0, 0, 0)" stroke="rgb(204, 204, 204)" stroke-width="1px"></line><line x1="432.05777777777774" y1="0" x2="432.05777777777774" y2="5" style="visibility: inherit;" fill="rgb(0, 0, 0)" stroke="rgb(204, 204, 204)" stroke-width="1px"></line><line x1="648.0866666666666" y1="0" x2="648.0866666666666" y2="5" style="visibility: inherit;" fill="rgb(0, 0, 0)" stroke="rgb(204, 204, 204)" stroke-width="1px"></line><line x1="864.1155555555555" y1="0" x2="864.1155555555555" y2="5" style="visibility: inherit;" fill="rgb(0, 0, 0)" stroke="rgb(204, 204, 204)" stroke-width="1px"></line><line x1="1080.1444444444444" y1="0" x2="1080.1444444444444" y2="5" style="visibility: inherit;" fill="rgb(0, 0, 0)" stroke="rgb(204, 204, 204)" stroke-width="1px"></line><line x1="1296.1733333333332" y1="0" x2="1296.1733333333332" y2="5" style="visibility: inherit;" fill="rgb(0, 0, 0)" stroke="rgb(204, 204, 204)" stroke-width="1px"></line><line x1="1512.2022222222222" y1="0" x2="1512.2022222222222" y2="5" style="visibility: inherit;" fill="rgb(0, 0, 0)" stroke="rgb(204, 204, 204)" stroke-width="1px"></line><line x1="1728.231111111111" y1="0" x2="1728.231111111111" y2="5" style="visibility: inherit;" fill="rgb(0, 0, 0)" stroke="rgb(204, 204, 204)" stroke-width="1px"></line><line x1="1944.26" y1="0" x2="1944.26" y2="5" style="visibility: inherit;" fill="rgb(0, 0, 0)" stroke="rgb(204, 204, 204)" stroke-width="1px"></line></g><g transform="translate(0, 8)"><text x="0" y="0" dx="0em" dy="0.95em" style="text-anchor: middle; visibility: hidden; font-family: &quot;Helvetica Neue&quot;, sans-serif; font-size: 15px; font-weight: 200;" fill="rgb(50, 49, 63)" stroke="none" stroke-width="1px">-10k</text><text x="216.02888888888887" y="0" dx="0em" dy="0.95em" style="text-anchor: middle; visibility: inherit; font-family: &quot;Helvetica Neue&quot;, sans-serif; font-size: 15px; font-weight: 200;" fill="rgb(50, 49, 63)" stroke="none" stroke-width="1px">0</text><text x="432.05777777777774" y="0" dx="0em" dy="0.95em" style="text-anchor: middle; visibility: inherit; font-family: &quot;Helvetica Neue&quot;, sans-serif; font-size: 15px; font-weight: 200;" fill="rgb(50, 49, 63)" stroke="none" stroke-width="1px">10k</text><text x="648.0866666666666" y="0" dx="0em" dy="0.95em" style="text-anchor: middle; visibility: inherit; font-family: &quot;Helvetica Neue&quot;, sans-serif; font-size: 15px; font-weight: 200;" fill="rgb(50, 49, 63)" stroke="none" stroke-width="1px">20k</text><text x="864.1155555555555" y="0" dx="0em" dy="0.95em" style="text-anchor: middle; visibility: inherit; font-family: &quot;Helvetica Neue&quot;, sans-serif; font-size: 15px; font-weight: 200;" fill="rgb(50, 49, 63)" stroke="none" stroke-width="1px">30k</text><text x="1080.1444444444444" y="0" dx="0em" dy="0.95em" style="text-anchor: middle; visibility: inherit; font-family: &quot;Helvetica Neue&quot;, sans-serif; font-size: 15px; font-weight: 200;" fill="rgb(50, 49, 63)" stroke="none" stroke-width="1px">40k</text><text x="1296.1733333333332" y="0" dx="0em" dy="0.95em" style="text-anchor: middle; visibility: inherit; font-family: &quot;Helvetica Neue&quot;, sans-serif; font-size: 15px; font-weight: 200;" fill="rgb(50, 49, 63)" stroke="none" stroke-width="1px">50k</text><text x="1512.2022222222222" y="0" dx="0em" dy="0.95em" style="text-anchor: middle; visibility: inherit; font-family: &quot;Helvetica Neue&quot;, sans-serif; font-size: 15px; font-weight: 200;" fill="rgb(50, 49, 63)" stroke="none" stroke-width="1px">60k</text><text x="1728.231111111111" y="0" dx="0em" dy="0.95em" style="text-anchor: middle; visibility: inherit; font-family: &quot;Helvetica Neue&quot;, sans-serif; font-size: 15px; font-weight: 200;" fill="rgb(50, 49, 63)" stroke="none" stroke-width="1px">70k</text><text x="1944.26" y="0" dx="0em" dy="0.95em" style="text-anchor: middle; visibility: hidden; font-family: &quot;Helvetica Neue&quot;, sans-serif; font-size: 15px; font-weight: 200;" fill="rgb(50, 49, 63)" stroke="none" stroke-width="1px">80k</text></g><line x1="0" y1="0" x2="1944.26" y2="0" fill="rgb(0, 0, 0)" stroke="rgb(204, 204, 204)" stroke-width="1px"></line></g></g></g></g></svg>