<svg viewBox="0 0 1974.2578125 400" xmlns="http://www.w3.org/2000/svg"><g><g><g><g><g><line x1="30" y1="378" x2="25" y2="378" style="visibility: inherit;" fill="rgb(0, 0, 0)" stroke="rgb(204, 204, 204)" stroke-width="1px"></line><line x1="30" y1="336" x2="25" y2="336" style="visibility: inherit;" fill="rgb(0, 0, 0)" stroke="rgb(204, 204, 204)" stroke-width="1px"></line><line x1="30" y1="294" x2="25" y2="294" style="visibility: inherit;" fill="rgb(0, 0, 0)" stroke="rgb(204, 204, 204)" stroke-width="1px"></line><line x1="30" y1="252" x2="25" y2="252" style="visibility: inherit;" fill="rgb(0, 0, 0)" stroke="rgb(204, 204, 204)" stroke-width="1px"></line><line x1="30" y1="210" x2="25" y2="210" style="visibility: inherit;" fill="rgb(0, 0, 0)" stroke="rgb(204, 204, 204)" stroke-width="1px"></line><line x1="30" y1="168" x2="25" y2="168" style="visibility: inherit;" fill="rgb(0, 0, 0)" stroke="rgb(204, 204, 204)" stroke-width="1px"></line><line x1="30" y1="126" x2="25" y2="126" style="visibility: inherit;" fill="rgb(0, 0, 0)" stroke="rgb(204, 204, 204)" stroke-width="1px"></line><line x1="30" y1="84" x2="25" y2="84" style="visibility: inherit;" fill="rgb(0, 0, 0)" stroke="rgb(204, 204, 204)" stroke-width="1px"></line><line x1="30" y1="42" x2="25" y2="42" style="visibility: inherit;" fill="rgb(0, 0, 0)" stroke="rgb(204, 204, 204)" stroke-width="1px"></line><line x1="30" y1="0" x2="25" y2="0" style="visibility: inherit;" fill="rgb(0, 0, 0)" stroke="rgb(204, 204, 204)" stroke-width="1px"></line></g><g transform="translate(20, 0)"><text x="0" y="378" dx="0em" dy="0.3em" style="text-anchor: end; visibility: hidden; font-family: &quot;Helvetica Neue&quot;, sans-serif; font-size: 15px; font-weight: 200;" fill="rgb(50, 49, 63)" stroke="none" stroke-width="1px">-1</text><text x="0" y="336" dx="0em" dy="0.3em" style="text-anchor: end; visibility: inherit; font-family: &quot;Helvetica Neue&quot;, sans-serif; font-size: 15px; font-weight: 200;" fill="rgb(50, 49, 63)" stroke="none" stroke-width="1px">0</text><text x="0" y="294" dx="0em" dy="0.3em" style="text-anchor: end; visibility: inherit; font-family: &quot;Helvetica Neue&quot;, sans-serif; font-size: 15px; font-weight: 200;" fill="rgb(50, 49, 63)" stroke="none" stroke-width="1px">1</text><text x="0" y="252" dx="0em" dy="0.3em" style="text-anchor: end; visibility: inherit; font-family: &quot;Helvetica Neue&quot;, sans-serif; font-size: 15px; font-weight: 200;" fill="rgb(50, 49, 63)" stroke="none" stroke-width="1px">2</text><text x="0" y="210" dx="0em" dy="0.3em" style="text-anchor: end; visibility: inherit; font-family: &quot;Helvetica Neue&quot;, sans-serif; font-size: 15px; font-weight: 200;" fill="rgb(50, 49, 63)" stroke="none" stroke-width="1px">3</text><text x="0" y="168" dx="0em" dy="0.3em" style="text-anchor: end; visibility: inherit; font-family: &quot;Helvetica Neue&quot;, sans-serif; font-size: 15px; font-weight: 200;" fill="rgb(50, 49, 63)" stroke="none" stroke-width="1px">4</text><text x="0" y="126" dx="0em" dy="0.3em" style="text-anchor: end; visibility: inherit; font-family: &quot;Helvetica Neue&quot;, sans-serif; font-size: 15px; font-weight: 200;" fill="rgb(50, 49, 63)" stroke="none" stroke-width="1px">5</text><text x="0" y="84" dx="0em" dy="0.3em" style="text-anchor: end; visibility: inherit; font-family: &quot;Helvetica Neue&quot;, sans-serif; font-size: 15px; font-weight: 200;" fill="rgb(50, 49, 63)" stroke="none" stroke-width="1px">6</text><text x="0" y="42" dx="0em" dy="0.3em" style="text-anchor: end; visibility: inherit; font-family: &quot;Helvetica Neue&quot;, sans-serif; font-size: 15px; font-weight: 200;" fill="rgb(50, 49, 63)" stroke="none" stroke-width="1px">7</text><text x="0" y="0" dx="0em" dy="0.3em" style="text-anchor: end; visibility: hidden; font-family: &quot;Helvetica Neue&quot;, sans-serif; font-size: 15px; font-weight: 200;" fill="rgb(50, 49, 63)" stroke="none" stroke-width="1px">8</text></g><line x1="30" y1="0" x2="30" y2="378" fill="rgb(0, 0, 0)" stroke="rgb(204, 204, 204)" stroke-width="1px"></line></g></g><g transform="translate(30, 0)" clip-path="url(#clip_0)"><clipPath id="clip_0"><rect width="1944" height="377"></rect></clipPath><g><g><g><line x1="0" y1="0" x2="0" y2="378" fill="rgb(0, 0, 0)" stroke="rgb(60, 60, 60)" stroke-width="1px" opacity="0.25"></line><line x1="149.55846153846156" y1="0" x2="149.55846153846156" y2="378" fill="rgb(0, 0, 0)" stroke="rgb(60, 60, 60)" stroke-width="1px" opacity="0.25"></line><line x1="299.1169230769231" y1="0" x2="299.1169230769231" y2="378" fill="rgb(0, 0, 0)" stroke="rgb(60, 60, 60)" stroke-width="1px" opacity="0.25"></line><line x1="448.67538461538464" y1="0" x2="448.67538461538464" y2="378" fill="rgb(0, 0, 0)" stroke="rgb(60, 60, 60)" stroke-width="1px" opacity="0.25"></line><line x1="598.2338461538462" y1="0" x2="598.2338461538462" y2="378" fill="rgb(0, 0, 0)" stroke="rgb(60, 60, 60)" stroke-width="1px" opacity="0.25"></line><line x1="747.7923076923078" y1="0" x2="747.7923076923078" y2="378" fill="rgb(0, 0, 0)" stroke="rgb(60, 60, 60)" stroke-width="1px" opacity="0.25"></line><line x1="897.3507692307693" y1="0" x2="897.3507692307693" y2="378" fill="rgb(0, 0, 0)" stroke="rgb(60, 60, 60)" stroke-width="1px" opacity="0.25"></line><line x1="1046.9092307692308" y1="0" x2="1046.9092307692308" y2="378" fill="rgb(0, 0, 0)" stroke="rgb(60, 60, 60)" stroke-width="1px" opacity="0.25"></line><line x1="1196.4676923076925" y1="0" x2="1196.4676923076925" y2="378" fill="rgb(0, 0, 0)" stroke="rgb(60, 60, 60)" stroke-width="1px" opacity="0.25"></line><line x1="1346.0261538461539" y1="0" x2="1346.0261538461539" y2="378" fill="rgb(0, 0, 0)" stroke="rgb(60, 60, 60)" stroke-width="1px" opacity="0.25"></line><line x1="1495.5846153846155" y1="0" x2="1495.5846153846155" y2="378" fill="rgb(0, 0, 0)" stroke="rgb(60, 60, 60)" stroke-width="1px" opacity="0.25"></line><line x1="1645.143076923077" y1="0" x2="1645.143076923077" y2="378" fill="rgb(0, 0, 0)" stroke="rgb(60, 60, 60)" stroke-width="1px" opacity="0.25"></line><line x1="1794.7015384615386" y1="0" x2="1794.7015384615386" y2="378" fill="rgb(0, 0, 0)" stroke="rgb(60, 60, 60)" stroke-width="1px" opacity="0.25"></line><line x1="1944.26" y1="0" x2="1944.26" y2="378" fill="rgb(0, 0, 0)" stroke="rgb(60, 60, 60)" stroke-width="1px" opacity="0.25"></line></g><g><line x1="0" y1="378" x2="1944.26" y2="378" fill="rgb(0, 0, 0)" stroke="rgb(60, 60, 60)" stroke-width="1px" opacity="0.25"></line><line x1="0" y1="336" x2="1944.26" y2="336" fill="rgb(0, 0, 0)" stroke="rgb(60, 60, 60)" stroke-width="1px" opacity="0.25"></line><line x1="0" y1="294" x2="1944.26" y2="294" fill="rgb(0, 0, 0)" stroke="rgb(60, 60, 60)" stroke-width="1px" opacity="0.25"></line><line x1="0" y1="252" x2="1944.26" y2="252" fill="rgb(0, 0, 0)" stroke="rgb(60, 60, 60)" stroke-width="1px" opacity="0.25"></line><line x1="0" y1="210" x2="1944.26" y2="210" fill="rgb(0, 0, 0)" stroke="rgb(60, 60, 60)" stroke-width="1px" opacity="0.25"></line><line x1="0" y1="168" x2="1944.26" y2="168" fill="rgb(0, 0, 0)" stroke="rgb(60, 60, 60)" stroke-width="1px" opacity="0.25"></line><line x1="0" y1="126" x2="1944.26" y2="126" fill="rgb(0, 0, 0)" stroke="rgb(60, 60, 60)" stroke-width="1px" opacity="0.25"></line><line x1="0" y1="84" x2="1944.26" y2="84" fill="rgb(0, 0, 0)" stroke="rgb(60, 60, 60)" stroke-width="1px" opacity="0.25"></line><line x1="0" y1="42" x2="1944.26" y2="42" fill="rgb(0, 0, 0)" stroke="rgb(60, 60, 60)" stroke-width="1px" opacity="0.25"></line><line x1="0" y1="0" x2="1944.26" y2="0" fill="rgb(0, 0, 0)" stroke="rgb(60, 60, 60)" stroke-width="1px" opacity="0.25"></line></g></g></g><g><g><line x1="0" y1="336" x2="1944.26" y2="336" fill="rgb(0, 0, 0)" stroke="rgb(153, 153, 153)" stroke-width="1.5px"></line></g></g><g><g><line x1="149.55846153846156" y1="0" x2="149.55846153846156" y2="378" fill="rgb(0, 0, 0)" stroke="rgb(153, 153, 153)" stroke-width="1.5px"></line></g></g><g><g><g><g><g><path stroke="rgb(255, 112, 67)" stroke-width="2px" d="M158.53196923076922,92.10739517211914L164.5143076923077,85.28932634989417L170.49664615384614,38.43981498968401L173.48781538461537,77.70897820325405L176.4789846153846,83.54843318672306L179.47015384615386,71.54507133435243L182.46132307692307,73.34789951892458L185.45249230769232,71.84680652249654L200.40833846153848,89.15998942800996L206.3906769230769,96.47694044751694L209.38184615384617,94.40173737494405L212.37301538461537,74.28353794932372L221.3465230769231,60.29849110459213L224.33769230769232,54.52586906758671L230.32003076923078,45.69531261136859L236.30236923076924,40.68844651158946L248.26704615384614,50.447378012282L251.2582153846154,47.86350973655658L254.24938461538463,50.38768532896222L257.2405538461539,36.18339335637222L260.23172307692306,48.785443542905625L263.2228923076923,48.69383604053246L266.2140615384615,46.91097668756737L269.2052307692308,55.95102192759748L272.19640000000004,60.790273921176606L275.1875692307692,52.25135105801144L281.1699076923077,69.8856160381103L284.16107692307696,80.08442862286898L287.1522461538462,82.33811194647382L293.1345846153846,69.85982543558691L296.1257538461538,78.69661302341768L302.1080923076923,65.44654677747673L308.09043076923075,67.53257846150285L311.0816,80.55689077997476L317.06393846153844,20.731096235741802L320.0551076923077,24.97351645849818L323.0462769230769,44.70898065525466L326.03744615384613,48.3155505380808L358.9403076923077,68.21555962312488L361.9314769230769,62.27385155169145L367.91381538461536,79.23677860384288L379.8784923076923,73.20813075607714L385.8608307692308,71.71370915132343L391.8431692307692,88.50231617896293L394.83433846153844,102.49971012085001L397.82550769230767,96.698400369789L400.81667692307695,80.38932435807766L403.8078461538462,81.13052585101286L409.7901846153846,97.98173204330345L412.7813538461538,85.01067390944547L415.7725230769231,88.51430880728799L418.76369230769234,118.34178131862404L421.7548615384615,115.27068845575849L424.74603076923074,121.8609687164772L430.72836923076926,121.37000818120538L433.7195384615385,126.78838731404838L442.6930461538462,121.39275806285445L448.67538461538464,123.97487280472879L451.6665538461538,136.86033073762772L454.65772307692305,148.96191289646507L463.6312307692308,143.82633134823791L466.62239999999997,147.33830660601137L469.6135692307692,140.83000144523723L472.6047384615385,126.85814235692004L475.5959076923077,123.35990461540476L487.5605846153846,98.61040863790276L490.5517538461538,97.63297591106789L496.5340923076923,118.67580199458484L514.4811076923078,89.91340179286658L517.4722769230768,105.40251010058677L520.4634461538461,115.89070262214966L526.4457846153846,134.8713654615155L535.4192923076923,123.25195150533003L541.4016307692308,133.37828574847194L544.3928000000001,136.74321754059025L547.3839692307691,131.35025388407036L553.3663076923077,150.69432721458446L559.3486461538462,149.72677560298862L562.3398153846153,118.77715382289813L565.3309846153846,96.3780260683219L568.3221538461539,99.49121636985319L571.3133230769231,109.16025607264993L574.3044923076924,113.513909700971L583.278,109.08181025433646L586.2691692307692,111.73834212448907L589.2603384615385,140.64492836533776L595.2426769230769,153.98120153074822L598.2338461538462,172.36054073159465L607.2073538461538,166.8413622596875L610.198523076923,137.41462722750938L613.1896923076923,112.35540474690453L616.1808615384615,127.35923893872666L619.1720307692308,107.07842315948011L625.1543692307692,72.95487221383638L628.1455384615385,85.79349754101315L631.1367076923077,94.99466704068237L640.1102153846153,118.1828153602163L646.0925538461538,77.37252943582826L649.0837230769231,62.3246621480414L655.0660615384616,83.16051593178389L658.0572307692308,102.13498203868039L664.0395692307692,118.34566129986678L670.0219076923076,86.93406077489863L673.0130769230769,100.50187699324329L676.0042461538461,109.9052983634108L678.9954153846154,95.93501082285616L684.9777538461539,100.61518509586284L687.9689230769231,125.4347347856073L690.9600923076923,86.24416462795148L693.9512615384615,91.20081456684954L699.9336,118.27472617024972L702.9247692307692,138.1400106575472L705.9159384615384,152.04680562244596L708.9071076923077,154.17760315123513L711.898276923077,159.53421394497667L714.8894461538462,132.14259866436925L720.8717846153846,143.21541388485429L723.8629538461538,129.29318338749542L726.8541230769231,142.13164935209338L729.8452923076923,139.28701313096L735.8276307692307,154.52735125034104L741.8099692307693,166.2853167455298L744.8011384615385,174.53353846876038L747.7923076923078,174.43630304978853L750.7834769230769,175.374216199292L759.7569846153846,179.85228223830595L762.7481538461539,178.50795541787187L768.7304923076923,169.43670414752637L777.7040000000001,184.85377348953475L780.6951692307691,152.41554576152927L789.6686769230769,157.60615096087852L792.6598461538462,168.19977653500092L801.6333538461539,157.54800157925666L804.6245230769231,145.50559448545002L807.6156923076924,172.21386575178383L810.6068615384614,139.55807208598304L813.5980307692307,158.30530595446245L816.5892,143.43306960792972L819.5803692307692,149.49845601822264L828.5538769230769,153.80097352429502L834.5362153846154,160.66945046555435L837.5273846153847,152.15319438275827L840.5185538461537,135.16168152091586L843.509723076923,136.99375084875174L846.5008923076923,136.57607215116937L852.4832307692308,147.7210891204717L855.4744,132.1103237118436L858.4655692307692,128.4181209918748L861.4567384615385,113.17596140836798L870.4302461538462,107.62412140635746L873.4214153846153,98.74810732100877L876.4125846153846,98.8889531190751L882.3949230769231,98.4761210676478L885.3860923076924,117.03327836962114L888.3772615384615,145.57739784218137L891.3684307692308,147.9406774671655L900.3419384615385,157.76446805252877L906.3242769230769,170.85251405918L927.2624615384616,180.7832569367361L933.2447999999999,190.8898953824577L939.2271384615384,181.2443236851165L957.1741538461539,189.15375801272947L966.1476615384615,208.95630313831774L969.1388307692307,217.50289823117419L972.13,199.23789883854047L975.1211692307692,201.44944725991928L978.1123384615385,214.15970109750143L981.1035076923076,181.58741892853828L987.0858461538461,191.66779547913433L990.0770153846155,186.51812405573176L999.050523076923,164.63636623372116L1002.0416923076922,172.7264963988422L1008.0240307692306,167.4888799193667L1011.0152,180.81176166559592L1019.9887076923077,151.6548260118591L1022.979876923077,160.41108252732175L1025.9710461538461,157.42155324719917L1028.9622153846155,152.69926099222957L1031.9533846153847,136.85236724410103L1034.9445538461537,129.09894224956545L1037.935723076923,137.7222952600711L1040.9268923076922,147.4633204266543L1043.9180615384616,156.96077236534077L1046.9092307692308,158.2182089567257L1052.8915692307692,169.47524866104706L1058.8739076923077,165.51514842224583L1061.865076923077,165.83106920013802L1073.8297538461538,151.5330121746856L1076.8209230769232,169.6976880257287L1082.8032615384616,174.19962838689153L1085.7944307692308,186.7548435481363L1088.7856000000002,198.9820042254109L1094.7679384615383,181.44089779866368L1097.7591076923077,176.86160953531768L1100.7502769230769,182.18612228783053L1103.7414461538463,191.66945485235917L1112.7149538461538,191.31163066197763L1121.6884615384615,183.15590281144247L1127.6707999999999,173.57060962403193L1130.6619692307693,176.00230249948797L1136.6443076923078,198.04858148247L1139.6354769230768,208.74417076230046L1148.6089846153848,203.61198776340484L1151.600153846154,201.22925009231565L1154.591323076923,203.96771699508665L1160.5736615384615,214.13429923312376L1163.5648307692309,194.40096660817872L1166.556,203.99645354243285L1169.5471692307692,185.63598615242773L1172.5383384615384,200.57825103055427L1175.5295076923078,192.12282612046388L1178.520676923077,201.89439203040433L1181.5118461538461,205.4681317464243L1187.4941846153845,170.57845914012037L1190.4853538461539,162.37341108040687L1196.4676923076925,170.75389224780938L1208.4323692307692,196.9561209717857L1211.4235384615386,196.22957144097228L1214.4147076923075,169.74708278906934L1217.405876923077,185.2607976590203L1223.3882153846155,179.93687165535349L1226.3793846153847,181.19694395666804L1232.361723076923,184.7224319124658L1238.3440615384616,200.42480369762094L1244.3264,194.1655650802891L1247.317569230769,201.9657076413187L1250.3087384615385,198.9388659330012L1253.2999076923077,217.2264720226766L1259.282246153846,203.84463739597334L1262.2734153846154,207.06088419122327L1268.2557538461538,207.39620290885625L1271.2469230769232,165.15734013470225L1274.238092307692,188.43671233298153L1277.2292615384615,189.50088029576756L1283.2116,200.5440707641714L1286.2027692307693,172.46050113343188L1292.1851076923076,187.0873876087108L1295.176276923077,195.91902469573327L1298.1674461538462,195.8411708750559L1301.1586153846154,158.07313964193924L1304.1497846153845,168.02528016905677L1307.1409538461537,173.5540210178748L1319.1056307692306,190.72145158221366L1322.0968,172.49599900380804L1328.0791384615384,193.86531655419694L1331.0703076923078,201.4628766411847L1337.0526461538461,177.02138239815284L1340.0438153846153,195.2556099468426L1346.0261538461539,196.133010639664L1349.017323076923,203.93016968879417L1352.0084923076922,214.0255866902138L1354.9996615384616,204.62844893591128L1357.9908307692308,203.19030778611918L1360.982,204.72017196818368L1363.9731692307691,216.53971303307353L1372.946676923077,200.87663813275765L1378.9290153846155,203.821189275127L1384.9113538461538,202.89568433025784L1390.8936923076924,204.59973952658424L1393.8848615384616,205.0060619154568L1396.8760307692307,198.73123312306365L1399.8672,202.23010912189454L1405.8495384615385,195.0678183766172L1411.8318769230768,189.751550653137L1417.8142153846154,201.95386503422833L1420.8053846153846,209.28610552378163L1423.796553846154,176.35120077949895L1432.7700615384615,180.16299931225885L1438.7524,182.68807700489128L1441.7435692307693,187.156453539643L1444.7347384615384,188.42475885527395L1447.7259076923076,198.28121228517745L1450.717076923077,214.92185212375045L1453.7082461538462,226.8242045497999L1459.6905846153845,240.2727793340767L1462.681753846154,234.15052565613462L1465.672923076923,229.4295124743706L1474.6464307692306,237.86946118150757L1477.6376,249.45701763848152L1483.6199384615386,233.88510587866853L1486.6111076923075,212.954273057427L1492.5934461538461,220.61917282139936L1501.5669538461539,210.58143349485144L1507.5492923076922,222.43331591285502L1510.5404615384616,205.63889668780357L1513.5316307692308,210.9898453585131L1516.5228,214.32904936725484L1525.4963076923077,225.82875148339735L1540.4521538461538,229.70729659305945L1543.4433230769232,201.3349683627044L1546.4344923076922,192.7967890059594L1558.3991692307693,164.31815859124217L1561.3903384615382,182.7908827499163L1564.3815076923077,163.59752820615861L1573.3550153846154,171.95200070289684L1576.3461846153846,160.12377516864072L1579.3373538461537,175.85349630068407L1582.3285230769231,153.1437484641923L1588.3108615384617,158.78764338652718L1591.3020307692307,184.26183181890192L1594.2931999999998,190.17531809718082L1600.2755384615384,197.81251476216852L1603.2667076923078,198.43271120396085L1606.2578769230768,197.01250740692478L1609.2490461538462,173.13425977075468L1615.2313846153847,170.3175404154807L1621.2137230769229,119.65474453636403L1624.2048923076923,134.10997259671214L1633.1784,160.5811798100052L1639.1607384615384,161.63721977268682L1642.1519076923078,149.56177738980475L1645.143076923077,170.3228467279754L1654.1165846153845,179.03792272997552L1657.1077538461539,171.396873370748L1663.0900923076924,154.12543670013844L1666.0812615384614,172.15822394430876L1669.0724307692308,172.3626963276882L1672.0636,167.59855931434788L1675.0547692307694,192.47060179260373L1681.0371076923075,190.72938136694435L1684.0282769230769,204.30444954584124L1687.019446153846,210.05269450148012L1695.9929538461538,223.57771039168094L1698.984123076923,189.7691602719629L1701.9752923076924,178.32285347086622L1704.9664615384615,197.0782926758324L1707.957630769231,198.25772681873596L1710.9488,175.8794993642295L1713.939969230769,173.8445809748431L1716.9311384615385,190.5293317529885L1719.9223076923076,184.80488076951724L1728.8958153846154,200.98497903463544L1734.878153846154,212.14137621019123L1737.8693230769231,217.7901726348705L1746.8428307692307,189.93968853819425L1752.8251692307692,205.73588035478636L1755.8163384615384,201.17035997688325L1761.798676923077,201.78557940148954L1767.7810153846153,198.2952699329348L1773.7633538461537,210.41853964057697L1782.7368615384617,201.23401326916326L1785.7280307692308,190.26723590677344L1788.7192,143.97661755232306L1791.7103692307692,165.0444579899176L1794.7015384615386,176.91249205111373L1797.6927076923077,197.9279550189885L1800.683876923077,178.8273255248954L1803.675046153846,170.601449348139L1806.6662153846153,188.16811884054118L1809.6573846153847,202.82710180766247L1812.6485538461538,211.41799477010457L1815.6397230769232,215.17100622868134L1818.6308923076922,187.33410341434157L1821.6220615384616,173.60495954269152L1824.6132307692308,178.1448168239115L1830.5955692307693,177.673788315544L1833.5867384615383,176.42700768032827L1836.5779076923077,191.90611749107964L1842.5602461538463,204.19890460344413L1848.5425846153846,188.45079677082907L1857.5160923076924,194.94209188443668L1860.5072615384615,203.85115962205128L1863.4984307692307,212.37674621723332L1872.4719384615385,209.37254536932497L1875.4631076923079,198.33150835661723L1881.4454461538462,179.9149774219881L1884.4366153846154,185.48072995394793L1887.4277846153846,187.77423182845374L1899.3924615384615,174.67817624187674L1902.3836307692309,188.88928534012004L1908.3659692307692,195.65769149002207L1917.339476923077,193.6740688414317L1920.3306461538461,210.13832853086328L1926.3129846153845,199.30840490537912L1935.2864923076925,210.5974009853842L1938.2776615384614,202.74011084415451L1941.2688307692308,213.27953898889174L1947.2511692307692,210.87166919694224" style="fill: none;" fill="none"></path></g></g></g></g><g opacity="0.2"><g><g><g><path stroke="rgb(255, 112, 67)" stroke-width="2px" d="M158.53196923076922,92.10739517211914L164.5143076923077,79.83487129211426L170.49664615384614,-29.023481369018555L173.48781538461537,154.36238479614258L176.4789846153846,97.3388900756836L179.47015384615386,39.26467037200928L182.46132307692307,78.66880989074707L185.45249230769232,67.10164260864258L200.40833846153848,146.79404067993164L206.3906769230769,121.81648635864258L209.38184615384617,86.99221801757812L212.37301538461537,0.7233009338378906L221.3465230769231,8.202484130859375L224.33769230769232,32.70479393005371L230.32003076923078,11.92657470703125L236.30236923076924,21.365635871887207L248.26704615384614,88.38434600830078L251.2582153846154,37.76077079772949L254.24938461538463,60.3025016784668L257.2405538461539,-19.814952850341854L260.23172307692306,98.61247730255127L263.2228923076923,48.33078575134277L266.2140615384615,39.832159996032715L269.2052307692308,91.89775085449219L272.19640000000004,80.05587100982666L275.1875692307692,18.224696159362793L281.1699076923077,140.209490776062L284.16107692307696,120.78104209899902L287.1522461538462,91.3354082107544L293.1345846153846,20.023916244506836L296.1257538461538,114.0000057220459L302.1080923076923,12.498770713806152L308.09043076923075,75.8700942993164L311.0816,132.62111949920654L317.06393846153844,-218.45074081420898L320.0551076923077,41.93631362915039L323.0462769230769,123.62521934509277L326.03744615384613,62.73808479309082L358.9403076923077,147.79906368255615L361.9314769230769,38.51096820831299L367.91381538461536,147.0794677734375L379.8784923076923,49.09610366821289L385.8608307692308,65.7365312576294L391.8431692307692,155.65217399597168L394.83433846153844,158.48623752593994L397.82550769230767,73.49417209625244L400.81667692307695,15.155293464660645L403.8078461538462,84.09524917602539L409.7901846153846,165.38505363464355L412.7813538461538,33.12736701965332L415.7725230769231,102.52864837646484L418.76369230769234,237.65030908584595L421.7548615384615,102.98642921447754L424.74603076923074,148.22189712524414L430.72836923076926,119.40617752075195L433.7195384615385,148.46180248260498L442.6930461538462,99.81032180786133L448.67538461538464,134.30330085754395L451.6665538461538,188.4020390510559L454.65772307692305,197.36814880371094L463.6312307692308,123.28403663635254L466.62239999999997,161.3861904144287L469.6135692307692,114.79680633544922L472.6047384615385,70.9707498550415L475.5959076923077,109.36696243286133L487.5605846153846,-0.3875255584716797L490.5517538461538,93.72324657440186L496.5340923076923,202.84707927703857L514.4811076923078,-25.13616943359375L517.4722769230768,167.35893058776858L520.4634461538461,157.84346580505374L526.4457846153846,210.7940068244934L535.4192923076923,76.77430057525635L541.4016307692308,173.88361930847168L544.3928000000001,150.20294380187985L547.3839692307691,109.77840042114258L553.3663076923077,228.0706171989441L559.3486461538462,145.85656929016113L562.3398153846153,-5.021329879760742L565.3309846153846,6.781517028808594L568.3221538461539,111.94397735595703L571.3133230769231,147.8364143371582L574.3044923076924,130.92852401733398L583.278,91.35341262817383L586.2691692307692,122.36446952819824L589.2603384615385,256.27127265930176L595.2426769230769,207.3262939453125L598.2338461538462,245.87789726257324L607.2073538461538,144.7646484375L610.198523076923,19.707687377929688L613.1896923076923,12.118515014648438L616.1808615384615,187.37457561492917L619.1720307692308,25.95516014099121L625.1543692307692,-63.53933143615723L628.1455384615385,137.14799880981445L631.1367076923077,131.7993450164795L640.1102153846153,210.93540859222412L646.0925538461538,-85.86861419677734L649.0837230769231,2.133193016052246L655.0660615384616,166.50393104553223L658.0572307692308,178.03284645080566L664.0395692307692,183.1883783340454L670.0219076923076,-38.71234130859375L673.0130769230769,154.7731418609619L676.0042461538461,147.51898384094238L678.9954153846154,40.053860664367676L684.9777538461539,119.33588218688965L687.9689230769231,224.71293354034424L690.9600923076923,-70.51811599731445L693.9512615384615,111.02741432189941L699.9336,226.57037258148193L702.9247692307692,217.60114860534668L705.9159384615384,207.6739854812622L708.9071076923077,162.7007932662964L711.898276923077,180.96065711975098L714.8894461538462,22.57613754272461L720.8717846153846,187.50667476654053L723.8629538461538,73.60426139831543L726.8541230769231,193.48551321029663L729.8452923076923,127.90846824645999L735.8276307692307,215.48870372772217L741.8099692307693,213.3171787261963L744.8011384615385,207.5264253616333L747.7923076923078,174.04736137390137L750.7834769230769,179.12586879730222L759.7569846153846,197.76454639434814L762.7481538461539,173.13064813613892L768.7304923076923,133.1516990661621L777.7040000000001,246.52205085754395L780.6951692307691,22.66263484954834L789.6686769230769,178.36857175827024L792.6598461538462,210.57427883148193L801.6333538461539,114.94090175628662L804.6245230769231,97.33596611022949L807.6156923076924,279.04695081710815L810.6068615384614,8.934897422790527L813.5980307692307,233.29424142837524L816.5892,83.94412422180176L819.5803692307692,173.7600016593933L828.5538769230769,171.011043548584L834.5362153846154,188.14335823059082L837.5273846153847,118.0881700515747L840.5185538461537,67.19563007354736L843.509723076923,144.32202816009521L846.5008923076923,134.90535736083984L852.4832307692308,192.30115699768066L855.4744,69.66726207733154L858.4655692307692,113.64931011199951L861.4567384615385,52.20732307434082L870.4302461538462,85.41676139831543L873.4214153846153,63.24405097961426L876.4125846153846,99.45233631134033L882.3949230769231,96.82479286193848L885.3860923076924,191.26190757751465L888.3772615384615,259.7538757324219L891.3684307692308,157.39379596710202L900.3419384615385,197.05963039398193L906.3242769230769,223.2046980857849L927.2624615384616,220.50622844696045L933.2447999999999,231.31644916534424L939.2271384615384,142.66203689575195L957.1741538461539,220.79149532318115L966.1476615384615,288.1664836406708L969.1388307692307,251.6892786026001L972.13,126.17790126800537L975.1211692307692,210.29564094543457L978.1123384615385,265.0007164478302L981.1035076923076,51.29829025268555L987.0858461538461,231.98930168151855L990.0770153846155,165.91943836212158L999.050523076923,77.10933494567871L1002.0416923076922,205.08701705932617L1008.0240307692306,146.53841400146484L1011.0152,234.1032886505127L1019.9887076923077,35.02708339691162L1022.979876923077,195.43610858917236L1025.9710461538461,145.46343612670898L1028.9622153846155,133.81009197235107L1031.9533846153847,73.46479225158691L1034.9445538461537,98.08524227142334L1037.935723076923,172.21570730209353L1040.9268923076922,186.42742109298706L1043.9180615384616,194.95058012008667L1046.9092307692308,163.2479553222656L1052.8915692307692,214.50340747833252L1058.8739076923077,149.67474746704102L1061.865076923077,167.09475231170654L1073.8297538461538,94.34078407287598L1076.8209230769232,242.35639142990112L1082.8032615384616,192.20738983154297L1085.7944307692308,236.97570419311523L1088.7856000000002,247.89064693450928L1094.7679384615383,111.2764720916748L1097.7591076923077,158.5444564819336L1100.7502769230769,203.48417329788208L1103.7414461538463,229.60278511047363L1112.7149538461538,189.88033390045166L1121.6884615384615,150.53299140930176L1127.6707999999999,135.22943687438965L1130.6619692307693,185.72907400131226L1136.6443076923078,286.2336974143982L1139.6354769230768,251.52652788162231L1148.6089846153848,183.08325576782227L1151.600153846154,191.69829940795898L1154.591323076923,214.92158460617065L1160.5736615384615,254.80062818527222L1163.5648307692309,115.46763610839844L1166.556,242.37840127944946L1169.5471692307692,112.19411659240723L1172.5383384615384,260.3473105430603L1175.5295076923078,158.30112648010254L1178.520676923077,240.98065567016602L1181.5118461538461,219.76309061050415L1187.4941846153845,31.019768714904785L1190.4853538461539,129.55321884155273L1196.4676923076925,204.27581691741943L1208.4323692307692,301.76503586769104L1211.4235384615386,193.3233733177185L1214.4147076923075,63.81712818145752L1217.405876923077,247.31565713882446L1223.3882153846155,158.64116764068604L1226.3793846153847,186.23723316192624L1232.361723076923,198.82438373565674L1238.3440615384616,263.2342908382416L1244.3264,169.12861061096189L1247.317569230769,233.166277885437L1250.3087384615385,186.83149909973142L1253.2999076923077,290.3768963813782L1259.282246153846,150.31729888916016L1262.2734153846154,219.9258713722229L1268.2557538461538,208.73747777938843L1271.2469230769232,-3.7981109619140625L1274.238092307692,281.55420112609863L1277.2292615384615,193.75755214691162L1283.2116,244.71683263778687L1286.2027692307693,60.12622261047363L1292.1851076923076,245.59493350982666L1295.176276923077,231.24557304382324L1298.1674461538462,195.5297555923462L1301.1586153846154,7.001014709472656L1304.1497846153845,207.83384227752686L1307.1409538461537,195.66898441314697L1319.1056307692306,259.3911738395691L1322.0968,99.59418869018555L1328.0791384615384,279.34258675575256L1331.0703076923078,231.85311698913574L1337.0526461538461,79.25540542602539L1340.0438153846153,268.19252014160156L1346.0261538461539,199.6426134109497L1349.017323076923,235.11880588531494L1352.0084923076922,254.40725469589233L1354.9996615384616,167.0398979187012L1357.9908307692308,197.43774318695068L1360.982,210.83962869644165L1363.9731692307691,263.81787729263306L1372.946676923077,138.22433853149414L1378.9290153846155,215.5993938446045L1384.9113538461538,199.19366455078125L1390.8936923076924,211.41596031188965L1393.8848615384616,206.63135147094727L1396.8760307692307,173.6319179534912L1399.8672,216.22561311721802L1405.8495384615385,166.4186553955078L1411.8318769230768,168.4864797592163L1417.8142153846154,250.76312255859375L1420.8053846153846,238.61506748199463L1423.796553846154,44.611581802368164L1432.7700615384615,195.41019344329834L1438.7524,192.78838777542114L1441.7435692307693,205.0299596786499L1444.7347384615384,193.49798011779785L1447.7259076923076,237.70702600479126L1450.717076923077,281.4844114780426L1453.7082461538462,274.4336142539978L1459.6905846153845,294.0670784711838L1462.681753846154,209.66151094436646L1465.672923076923,210.54545974731445L1474.6464307692306,271.62925601005554L1477.6376,295.80724346637726L1483.6199384615386,171.5974588394165L1486.6111076923075,129.23094177246094L1492.5934461538461,251.27877187728882L1501.5669538461539,170.4304761886597L1507.5492923076922,269.8408455848694L1510.5404615384616,138.46121978759766L1513.5316307692308,232.39364004135132L1516.5228,227.68586540222168L1525.4963076923077,271.82755994796753L1540.4521538461538,245.22147703170776L1543.4433230769232,87.84565544128418L1546.4344923076922,158.6440715789795L1558.3991692307693,50.40363693237305L1561.3903384615382,256.68177938461304L1564.3815076923077,86.82411003112793L1573.3550153846154,205.36989068984985L1576.3461846153846,112.81087303161621L1579.3373538461537,238.77238082885742L1582.3285230769231,62.3047571182251L1588.3108615384617,181.3632230758667L1591.3020307692307,286.1585855484009L1594.2931999999998,213.82926321029663L1600.2755384615384,228.36130142211914L1603.2667076923078,200.91349697113037L1606.2578769230768,191.33169221878052L1609.2490461538462,77.62126922607422L1615.2313846153847,159.05066299438477L1621.2137230769229,-82.99643898010254L1624.2048923076923,191.93088483810425L1633.1784,266.4660086631775L1639.1607384615384,165.8613796234131L1642.1519076923078,101.26000785827637L1645.143076923077,253.36712408065796L1654.1165846153845,213.89822673797607L1657.1077538461539,140.8326759338379L1663.0900923076924,85.0396900177002L1666.0812615384614,244.28937292099L1669.0724307692308,173.18058586120605L1672.0636,148.54201126098633L1675.0547692307694,291.95877170562744L1681.0371076923075,183.76449966430664L1684.0282769230769,258.60472226142883L1687.019446153846,233.04567432403564L1695.9929538461538,277.67777395248413L1698.984123076923,54.53495979309082L1701.9752923076924,132.5376262664795L1704.9664615384615,272.100049495697L1707.957630769231,202.97546339035034L1710.9488,86.36658954620361L1713.939969230769,165.70490741729736L1716.9311384615385,257.26833486557007L1719.9223076923076,161.90707683563235L1728.8958153846154,265.70537209510803L1734.878153846154,256.76696491241455L1737.8693230769231,240.38535833358765L1746.8428307692307,78.53775215148926L1752.8251692307692,268.9206476211548L1755.8163384615384,182.908278465271L1761.798676923077,204.24645709991455L1767.7810153846153,184.3340320587158L1773.7633538461537,258.91161847114563L1782.7368615384617,164.4959077835083L1785.7280307692308,146.40012645721436L1788.7192,-41.185855865478516L1791.7103692307692,249.3158197402954L1794.7015384615386,224.38462829589844L1797.6927076923077,281.98980689048767L1800.683876923077,102.42480754852295L1803.675046153846,137.69794464111325L1806.6662153846153,258.43479681015015L1809.6573846153847,261.46303367614746L1812.6485538461538,245.78156661987305L1815.6397230769232,230.18305206298828L1818.6308923076922,75.98649215698242L1821.6220615384616,118.68838405609131L1824.6132307692308,196.3042459487915L1830.5955692307693,175.78967428207397L1833.5867384615383,171.4398851394653L1836.5779076923077,253.82255673408508L1842.5602461538463,253.37005305290222L1848.5425846153846,125.45836544036865L1857.5160923076924,220.9072723388672L1860.5072615384615,239.48743057250977L1863.4984307692307,246.47909259796143L1872.4719384615385,197.35574197769165L1875.4631076923079,154.16736030578613L1881.4454461538462,106.24885368347168L1884.4366153846154,207.7437400817871L1887.4277846153846,196.94823932647705L1899.3924615384615,122.29395389556885L1902.3836307692309,245.73372173309326L1908.3659692307692,222.73131608963013L1917.339476923077,185.73957824707028L1920.3306461538461,275.9953672885895L1926.3129846153845,155.98871040344238L1935.2864923076925,255.75338530540466L1938.2776615384614,171.31095027923584L1941.2688307692308,255.43725156784058L1947.2511692307692,201.2401900291443" style="fill: none;" fill="none"></path></g></g></g></g></g></g><g transform="translate(30, 378)" clip-path="url(#clip_1)"><clipPath id="clip_1"><rect width="1944" height="21"></rect></clipPath><g><g><line x1="0" y1="0" x2="0" y2="5" style="visibility: inherit;" fill="rgb(0, 0, 0)" stroke="rgb(204, 204, 204)" stroke-width="1px"></line><line x1="149.55846153846156" y1="0" x2="149.55846153846156" y2="5" style="visibility: inherit;" fill="rgb(0, 0, 0)" stroke="rgb(204, 204, 204)" stroke-width="1px"></line><line x1="299.1169230769231" y1="0" x2="299.1169230769231" y2="5" style="visibility: inherit;" fill="rgb(0, 0, 0)" stroke="rgb(204, 204, 204)" stroke-width="1px"></line><line x1="448.67538461538464" y1="0" x2="448.67538461538464" y2="5" style="visibility: inherit;" fill="rgb(0, 0, 0)" stroke="rgb(204, 204, 204)" stroke-width="1px"></line><line x1="598.2338461538462" y1="0" x2="598.2338461538462" y2="5" style="visibility: inherit;" fill="rgb(0, 0, 0)" stroke="rgb(204, 204, 204)" stroke-width="1px"></line><line x1="747.7923076923078" y1="0" x2="747.7923076923078" y2="5" style="visibility: inherit;" fill="rgb(0, 0, 0)" stroke="rgb(204, 204, 204)" stroke-width="1px"></line><line x1="897.3507692307693" y1="0" x2="897.3507692307693" y2="5" style="visibility: inherit;" fill="rgb(0, 0, 0)" stroke="rgb(204, 204, 204)" stroke-width="1px"></line><line x1="1046.9092307692308" y1="0" x2="1046.9092307692308" y2="5" style="visibility: inherit;" fill="rgb(0, 0, 0)" stroke="rgb(204, 204, 204)" stroke-width="1px"></line><line x1="1196.4676923076925" y1="0" x2="1196.4676923076925" y2="5" style="visibility: inherit;" fill="rgb(0, 0, 0)" stroke="rgb(204, 204, 204)" stroke-width="1px"></line><line x1="1346.0261538461539" y1="0" x2="1346.0261538461539" y2="5" style="visibility: inherit;" fill="rgb(0, 0, 0)" stroke="rgb(204, 204, 204)" stroke-width="1px"></line><line x1="1495.5846153846155" y1="0" x2="1495.5846153846155" y2="5" style="visibility: inherit;" fill="rgb(0, 0, 0)" stroke="rgb(204, 204, 204)" stroke-width="1px"></line><line x1="1645.143076923077" y1="0" x2="1645.143076923077" y2="5" style="visibility: inherit;" fill="rgb(0, 0, 0)" stroke="rgb(204, 204, 204)" stroke-width="1px"></line><line x1="1794.7015384615386" y1="0" x2="1794.7015384615386" y2="5" style="visibility: inherit;" fill="rgb(0, 0, 0)" stroke="rgb(204, 204, 204)" stroke-width="1px"></line><line x1="1944.26" y1="0" x2="1944.26" y2="5" style="visibility: inherit;" fill="rgb(0, 0, 0)" stroke="rgb(204, 204, 204)" stroke-width="1px"></line></g><g transform="translate(0, 8)"><text x="0" y="0" dx="0em" dy="0.95em" style="text-anchor: middle; visibility: hidden; font-family: &quot;Helvetica Neue&quot;, sans-serif; font-size: 15px; font-weight: 200;" fill="rgb(50, 49, 63)" stroke="none" stroke-width="1px">-5k</text><text x="149.55846153846156" y="0" dx="0em" dy="0.95em" style="text-anchor: middle; visibility: inherit; font-family: &quot;Helvetica Neue&quot;, sans-serif; font-size: 15px; font-weight: 200;" fill="rgb(50, 49, 63)" stroke="none" stroke-width="1px">0</text><text x="299.1169230769231" y="0" dx="0em" dy="0.95em" style="text-anchor: middle; visibility: inherit; font-family: &quot;Helvetica Neue&quot;, sans-serif; font-size: 15px; font-weight: 200;" fill="rgb(50, 49, 63)" stroke="none" stroke-width="1px">5k</text><text x="448.67538461538464" y="0" dx="0em" dy="0.95em" style="text-anchor: middle; visibility: inherit; font-family: &quot;Helvetica Neue&quot;, sans-serif; font-size: 15px; font-weight: 200;" fill="rgb(50, 49, 63)" stroke="none" stroke-width="1px">10k</text><text x="598.2338461538462" y="0" dx="0em" dy="0.95em" style="text-anchor: middle; visibility: inherit; font-family: &quot;Helvetica Neue&quot;, sans-serif; font-size: 15px; font-weight: 200;" fill="rgb(50, 49, 63)" stroke="none" stroke-width="1px">15k</text><text x="747.7923076923078" y="0" dx="0em" dy="0.95em" style="text-anchor: middle; visibility: inherit; font-family: &quot;Helvetica Neue&quot;, sans-serif; font-size: 15px; font-weight: 200;" fill="rgb(50, 49, 63)" stroke="none" stroke-width="1px">20k</text><text x="897.3507692307693" y="0" dx="0em" dy="0.95em" style="text-anchor: middle; visibility: inherit; font-family: &quot;Helvetica Neue&quot;, sans-serif; font-size: 15px; font-weight: 200;" fill="rgb(50, 49, 63)" stroke="none" stroke-width="1px">25k</text><text x="1046.9092307692308" y="0" dx="0em" dy="0.95em" style="text-anchor: middle; visibility: inherit; font-family: &quot;Helvetica Neue&quot;, sans-serif; font-size: 15px; font-weight: 200;" fill="rgb(50, 49, 63)" stroke="none" stroke-width="1px">30k</text><text x="1196.4676923076925" y="0" dx="0em" dy="0.95em" style="text-anchor: middle; visibility: inherit; font-family: &quot;Helvetica Neue&quot;, sans-serif; font-size: 15px; font-weight: 200;" fill="rgb(50, 49, 63)" stroke="none" stroke-width="1px">35k</text><text x="1346.0261538461539" y="0" dx="0em" dy="0.95em" style="text-anchor: middle; visibility: inherit; font-family: &quot;Helvetica Neue&quot;, sans-serif; font-size: 15px; font-weight: 200;" fill="rgb(50, 49, 63)" stroke="none" stroke-width="1px">40k</text><text x="1495.5846153846155" y="0" dx="0em" dy="0.95em" style="text-anchor: middle; visibility: inherit; font-family: &quot;Helvetica Neue&quot;, sans-serif; font-size: 15px; font-weight: 200;" fill="rgb(50, 49, 63)" stroke="none" stroke-width="1px">45k</text><text x="1645.143076923077" y="0" dx="0em" dy="0.95em" style="text-anchor: middle; visibility: inherit; font-family: &quot;Helvetica Neue&quot;, sans-serif; font-size: 15px; font-weight: 200;" fill="rgb(50, 49, 63)" stroke="none" stroke-width="1px">50k</text><text x="1794.7015384615386" y="0" dx="0em" dy="0.95em" style="text-anchor: middle; visibility: inherit; font-family: &quot;Helvetica Neue&quot;, sans-serif; font-size: 15px; font-weight: 200;" fill="rgb(50, 49, 63)" stroke="none" stroke-width="1px">55k</text><text x="1944.26" y="0" dx="0em" dy="0.95em" style="text-anchor: middle; visibility: hidden; font-family: &quot;Helvetica Neue&quot;, sans-serif; font-size: 15px; font-weight: 200;" fill="rgb(50, 49, 63)" stroke="none" stroke-width="1px">60k</text></g><line x1="0" y1="0" x2="1944.26" y2="0" fill="rgb(0, 0, 0)" stroke="rgb(204, 204, 204)" stroke-width="1px"></line></g></g></g></g></svg>